STARTFONT 2.1
COMMENT
COMMENT Converted from OpenType font "ArialI.otf" by "otf2bdf 3.0".
COMMENT
FONT -FreeType-Arial-Medium-I-Normal--22-160-100-100-P-117-ISO10646-1
SIZE 16 100 100
FONTBOUNDINGBOX 35 29 -11 -7
STARTPROPERTIES 19
FOUNDRY "FreeType"
FAMILY_NAME "Arial"
WEIGHT_NAME "Medium"
SLANT "I"
SETWIDTH_NAME "Normal"
ADD_STYLE_NAME ""
PIXEL_SIZE 22
POINT_SIZE 160
RESOLUTION_X 100
RESOLUTION_Y 100
SPACING "P"
AVERAGE_WIDTH 117
CHARSET_REGISTRY "ISO10646"
CHARSET_ENCODING "1"
FONT_ASCENT 19
FONT_DESCENT 4
COPYRIGHT "© 2006 The Monotype Corporation. All Rights Reserved."
_OTF_FONTFILE "ArialI.otf"
_OTF_PSNAME "Arial-ItalicMT"
ENDPROPERTIES
CHARS 959
STARTCHAR 0020
ENCODING 32
SWIDTH 270 0
DWIDTH 6 0
BBX 0 0 0 0
BITMAP
ENDCHAR
STARTCHAR 0021
ENCODING 33
SWIDTH 270 0
DWIDTH 6 0
BBX 6 16 1 0
BITMAP
1C
18
18
18
18
30
30
30
30
20
20
20
00
00
60
E0
ENDCHAR
STARTCHAR 0022
ENCODING 34
SWIDTH 360 0
DWIDTH 8 0
BBX 6 6 3 10
BITMAP
6C
EC
CC
CC
C8
88
ENDCHAR
STARTCHAR 0023
ENCODING 35
SWIDTH 540 0
DWIDTH 12 0
BBX 12 16 1 0
BITMAP
0C60
0C60
0840
0840
FFF0
FFF0
18C0
1080
1080
3180
FFF0
FFF0
2100
6100
6300
6300
ENDCHAR
STARTCHAR 0024
ENCODING 36
SWIDTH 540 0
DWIDTH 12 0
BBX 12 19 1 -2
BITMAP
0100
0FC0
1DE0
3160
3130
3200
3200
1E00
0F00
0780
04C0
0460
C460
C460
6CC0
79C0
3F00
0800
0800
ENDCHAR
STARTCHAR 0025
ENCODING 37
SWIDTH 900 0
DWIDTH 20 0
BBX 17 17 2 -1
BITMAP
3C0300
660600
620C00
C61800
C61000
C63000
CC6000
7CC000
018E00
011F80
031180
063180
0C3180
083180
183300
303E00
600C00
ENDCHAR
STARTCHAR 0026
ENCODING 38
SWIDTH 675 0
DWIDTH 15 0
BBX 12 16 2 0
BITMAP
0780
0CC0
18C0
18C0
18C0
1F80
0F00
3E00
7600
E700
C3B0
C1F0
C0E0
C1E0
77F0
3F30
ENDCHAR
STARTCHAR 0027
ENCODING 39
SWIDTH 180 0
DWIDTH 4 0
BBX 3 6 3 10
BITMAP
E0
C0
C0
C0
C0
80
ENDCHAR
STARTCHAR 0028
ENCODING 40
SWIDTH 315 0
DWIDTH 7 0
BBX 7 21 2 -5
BITMAP
06
0C
18
18
30
30
60
60
C0
C0
C0
C0
C0
C0
C0
C0
C0
C0
40
60
60
ENDCHAR
STARTCHAR 0029
ENCODING 41
SWIDTH 315 0
DWIDTH 7 0
BBX 7 21 -1 -5
BITMAP
0C
0C
04
06
06
06
06
06
06
06
06
06
0C
0C
0C
18
18
30
60
40
C0
ENDCHAR
STARTCHAR 002A
ENCODING 42
SWIDTH 405 0
DWIDTH 9 0
BBX 7 6 3 9
BITMAP
30
30
FE
38
78
4C
ENDCHAR
STARTCHAR 002B
ENCODING 43
SWIDTH 585 0
DWIDTH 13 0
BBX 10 10 2 3
BITMAP
0C00
0C00
0C00
0C00
FFC0
FFC0
0C00
0C00
0C00
0C00
ENDCHAR
STARTCHAR 002C
ENCODING 44
SWIDTH 270 0
DWIDTH 6 0
BBX 3 5 1 -3
BITMAP
60
E0
40
40
80
ENDCHAR
STARTCHAR 002D
ENCODING 45
SWIDTH 315 0
DWIDTH 7 0
BBX 6 2 1 5
BITMAP
FC
FC
ENDCHAR
STARTCHAR 002E
ENCODING 46
SWIDTH 270 0
DWIDTH 6 0
BBX 3 2 1 0
BITMAP
60
E0
ENDCHAR
STARTCHAR 002F
ENCODING 47
SWIDTH 270 0
DWIDTH 6 0
BBX 10 16 -1 0
BITMAP
00C0
0080
0180
0300
0300
0600
0600
0C00
0C00
1800
1800
3000
3000
6000
4000
C000
ENDCHAR
STARTCHAR 0030
ENCODING 48
SWIDTH 540 0
DWIDTH 12 0
BBX 11 16 2 0
BITMAP
0F00
1F80
30C0
6040
6060
6060
C060
C0C0
C0C0
C0C0
C0C0
8180
C180
C300
6700
7C00
ENDCHAR
STARTCHAR 0031
ENCODING 49
SWIDTH 540 0
DWIDTH 12 0
BBX 8 16 3 0
BITMAP
03
06
0E
3E
76
C6
0C
0C
0C
0C
18
18
18
18
18
30
ENDCHAR
STARTCHAR 0032
ENCODING 50
SWIDTH 540 0
DWIDTH 12 0
BBX 11 16 1 0
BITMAP
0780
1FC0
3860
3060
3020
0060
0060
00C0
0380
0700
0E00
1C00
3000
7000
7FC0
FFC0
ENDCHAR
STARTCHAR 0033
ENCODING 51
SWIDTH 540 0
DWIDTH 12 0
BBX 11 16 1 0
BITMAP
0780
1FC0
1860
3060
0060
0060
00E0
0780
07C0
00C0
00E0
0060
C0C0
60C0
7380
3F00
ENDCHAR
STARTCHAR 0034
ENCODING 52
SWIDTH 540 0
DWIDTH 12 0
BBX 11 16 1 0
BITMAP
0060
00E0
01C0
03C0
06C0
0EC0
0CC0
1980
3180
6180
FFE0
FFE0
0300
0300
0300
0300
ENDCHAR
STARTCHAR 0035
ENCODING 53
SWIDTH 540 0
DWIDTH 12 0
BBX 11 16 2 0
BITMAP
1FE0
1FC0
3000
3000
3000
6F00
7F80
61C0
40C0
00C0
00C0
C0C0
C1C0
C180
E700
7E00
ENDCHAR
STARTCHAR 0036
ENCODING 54
SWIDTH 540 0
DWIDTH 12 0
BBX 11 16 2 0
BITMAP
0780
1FC0
38C0
3060
6000
6600
FF80
F180
E0C0
C0C0
C0C0
C0C0
C180
C180
7700
3E00
ENDCHAR
STARTCHAR 0037
ENCODING 55
SWIDTH 540 0
DWIDTH 12 0
BBX 10 16 3 0
BITMAP
FFC0
FFC0
0180
0300
0300
0600
0C00
0C00
1800
3800
3000
3000
6000
6000
6000
C000
ENDCHAR
STARTCHAR 0038
ENCODING 56
SWIDTH 540 0
DWIDTH 12 0
BBX 11 16 2 0
BITMAP
0F00
3FC0
30C0
6060
6040
60C0
3180
3F00
7180
C0C0
C0C0
C0C0
C180
C180
E300
7E00
ENDCHAR
STARTCHAR 0039
ENCODING 57
SWIDTH 540 0
DWIDTH 12 0
BBX 11 16 1 0
BITMAP
0780
1FC0
3860
3060
6060
6060
6060
6060
30E0
3FE0
0EC0
00C0
C1C0
6180
7700
3E00
ENDCHAR
STARTCHAR 003A
ENCODING 58
SWIDTH 270 0
DWIDTH 6 0
BBX 5 12 1 0
BITMAP
18
38
30
00
00
00
00
00
00
00
60
E0
ENDCHAR
STARTCHAR 003B
ENCODING 59
SWIDTH 270 0
DWIDTH 6 0
BBX 5 15 1 -3
BITMAP
18
38
30
00
00
00
00
00
00
00
60
E0
40
40
80
ENDCHAR
STARTCHAR 003C
ENCODING 60
SWIDTH 585 0
DWIDTH 13 0
BBX 11 11 2 2
BITMAP
0060
03E0
0F80
3C00
F000
E000
7800
1F00
03C0
00E0
0020
ENDCHAR
STARTCHAR 003D
ENCODING 61
SWIDTH 585 0
DWIDTH 13 0
BBX 10 6 2 5
BITMAP
FFC0
FFC0
0000
0000
0000
FFC0
ENDCHAR
STARTCHAR 003E
ENCODING 62
SWIDTH 585 0
DWIDTH 13 0
BBX 11 10 2 2
BITMAP
C000
F000
3C00
0F80
01E0
01E0
0780
1E00
F800
C000
ENDCHAR
STARTCHAR 003F
ENCODING 63
SWIDTH 540 0
DWIDTH 12 0
BBX 9 16 3 0
BITMAP
3F00
7380
E180
C180
C180
0180
0300
0E00
1C00
1800
3000
3000
0000
0000
6000
6000
ENDCHAR
STARTCHAR 0040
ENCODING 64
SWIDTH 1035 0
DWIDTH 23 0
BBX 20 21 1 -5
BITMAP
01FE00
078F80
0C01C0
180060
306060
61FE30
630E30
460E10
C60610
C60430
CC0C30
CC0C30
CC0C60
C61CC0
67EF80
63CF00
300030
180070
0E01C0
07FF80
007C00
ENDCHAR
STARTCHAR 0041
ENCODING 65
SWIDTH 675 0
DWIDTH 15 0
BBX 14 16 0 0
BITMAP
00E0
00E0
01A0
01B0
0330
0330
0630
0E30
0C30
1C18
1FF8
3018
3018
6018
E018
C00C
ENDCHAR
STARTCHAR 0042
ENCODING 66
SWIDTH 675 0
DWIDTH 15 0
BBX 14 16 1 0
BITMAP
1FE0
1FF8
1818
180C
300C
3018
3038
3FE0
3FF0
6018
6018
6018
6018
E030
FFF0
FFC0
ENDCHAR
STARTCHAR 0043
ENCODING 67
SWIDTH 720 0
DWIDTH 16 0
BBX 14 16 2 0
BITMAP
07E0
1FF8
3818
300C
600C
6000
E000
C000
C000
C000
C010
C018
E038
7070
3DE0
1FC0
ENDCHAR
STARTCHAR 0044
ENCODING 68
SWIDTH 720 0
DWIDTH 16 0
BBX 15 16 1 0
BITMAP
1FE0
1FF8
181C
180C
380E
3006
3006
3006
300E
600C
600C
601C
6038
6070
FFE0
FF80
ENDCHAR
STARTCHAR 0045
ENCODING 69
SWIDTH 675 0
DWIDTH 15 0
BBX 15 16 1 0
BITMAP
1FFE
1FFE
1800
1800
3800
3000
3000
3FF8
3FF8
6000
6000
6000
6000
6000
FFF0
FFF0
ENDCHAR
STARTCHAR 0046
ENCODING 70
SWIDTH 630 0
DWIDTH 14 0
BBX 14 16 1 0
BITMAP
1FFC
1FF8
1800
1800
3800
3000
3000
3FF0
3FF0
6000
6000
6000
6000
6000
C000
C000
ENDCHAR
STARTCHAR 0047
ENCODING 71
SWIDTH 765 0
DWIDTH 17 0
BBX 15 16 2 0
BITMAP
03F0
0FF8
1C0C
300E
7006
6000
6000
E000
C1FC
C1FC
C00C
E00C
6018
7018
3DF8
1FE0
ENDCHAR
STARTCHAR 0048
ENCODING 72
SWIDTH 720 0
DWIDTH 16 0
BBX 16 16 1 0
BITMAP
1803
1806
1806
1806
3006
300E
300C
3FFC
7FFC
600C
601C
6018
6018
E018
C018
C038
ENDCHAR
STARTCHAR 0049
ENCODING 73
SWIDTH 270 0
DWIDTH 6 0
BBX 6 16 1 0
BITMAP
0C
18
18
18
18
38
30
30
30
30
70
60
60
60
60
C0
ENDCHAR
STARTCHAR 004A
ENCODING 74
SWIDTH 495 0
DWIDTH 11 0
BBX 11 16 1 0
BITMAP
0060
00E0
00C0
00C0
00C0
00C0
01C0
0180
0180
0180
0180
C380
C300
C300
FE00
7C00
ENDCHAR
STARTCHAR 004B
ENCODING 75
SWIDTH 675 0
DWIDTH 15 0
BBX 15 16 1 0
BITMAP
180E
181C
1838
1870
38C0
3380
3700
3F80
3D80
79C0
70C0
6060
6060
6030
C038
C018
ENDCHAR
STARTCHAR 004C
ENCODING 76
SWIDTH 540 0
DWIDTH 12 0
BBX 11 16 1 0
BITMAP
1800
1800
1800
3800
3000
3000
3000
3000
7000
6000
6000
6000
6000
E000
FFE0
FFC0
ENDCHAR
STARTCHAR 004D
ENCODING 77
SWIDTH 855 0
DWIDTH 19 0
BBX 18 16 1 0
BITMAP
1C01C0
1C01C0
1C03C0
1C03C0
360680
360780
360D80
360980
361980
623300
633300
636300
636300
E3C700
C38600
C18600
ENDCHAR
STARTCHAR 004E
ENCODING 78
SWIDTH 720 0
DWIDTH 16 0
BBX 16 16 1 0
BITMAP
1C03
1C07
1E06
1E06
3E06
3306
330C
318C
318C
70CC
60CC
60D8
6078
6078
C038
C038
ENDCHAR
STARTCHAR 004F
ENCODING 79
SWIDTH 765 0
DWIDTH 17 0
BBX 15 16 2 0
BITMAP
07F0
0FF8
381C
300C
6006
6006
E006
C006
C006
C006
C00E
C00C
601C
7038
3FF0
1FC0
ENDCHAR
STARTCHAR 0050
ENCODING 80
SWIDTH 675 0
DWIDTH 15 0
BBX 14 16 1 0
BITMAP
1FF8
1FFC
180C
180C
300C
300C
301C
3038
3FF0
7F80
6000
6000
6000
E000
C000
C000
ENDCHAR
STARTCHAR 0051
ENCODING 81
SWIDTH 765 0
DWIDTH 17 0
BBX 15 18 2 -2
BITMAP
07F0
0FF8
381C
300C
6006
6006
E006
C006
C006
C006
C00E
E10C
619C
70F8
3DF0
1FF0
0018
0008
ENDCHAR
STARTCHAR 0052
ENCODING 82
SWIDTH 720 0
DWIDTH 16 0
BBX 15 16 1 0
BITMAP
1FF8
1FFE
1806
1806
3806
3006
300E
3FFC
3FF0
70E0
6060
6030
6038
6018
C018
C01C
ENDCHAR
STARTCHAR 0053
ENCODING 83
SWIDTH 675 0
DWIDTH 15 0
BBX 13 16 2 0
BITMAP
0FC0
3FF0
3030
3018
3018
3000
3C00
0F00
03C0
00E0
0070
C030
C030
E060
7BE0
3F80
ENDCHAR
STARTCHAR 0054
ENCODING 84
SWIDTH 630 0
DWIDTH 14 0
BBX 13 16 3 0
BITMAP
FFF8
FFF0
0600
0600
0E00
0C00
0C00
0C00
0C00
1C00
1800
1800
1800
1800
3000
3000
ENDCHAR
STARTCHAR 0055
ENCODING 85
SWIDTH 720 0
DWIDTH 16 0
BBX 15 16 2 0
BITMAP
3006
300C
300C
300C
700C
601C
6018
6018
6018
E018
C038
C030
C030
6060
7FC0
3F80
ENDCHAR
STARTCHAR 0056
ENCODING 86
SWIDTH 675 0
DWIDTH 15 0
BBX 14 16 3 0
BITMAP
C01C
C018
C030
C030
6060
6060
60C0
60C0
6180
3380
3300
3700
3600
3C00
1C00
1800
ENDCHAR
STARTCHAR 0057
ENCODING 87
SWIDTH 945 0
DWIDTH 21 0
BBX 20 16 3 0
BITMAP
C06030
C0E030
C0E060
C1B060
C1B0C0
C3B0C0
C33180
C63180
C63300
CC3300
CC3600
D83600
583C00
703C00
703800
603800
ENDCHAR
STARTCHAR 0058
ENCODING 88
SWIDTH 675 0
DWIDTH 15 0
BBX 17 16 0 0
BITMAP
180380
1C0700
0C0E00
0E1C00
063800
077000
03E000
01C000
038000
07C000
0EE000
0C6000
187000
303000
701800
E01800
ENDCHAR
STARTCHAR 0059
ENCODING 89
SWIDTH 675 0
DWIDTH 15 0
BBX 14 16 3 0
BITMAP
C01C
E018
6030
7070
30E0
39C0
1980
1B80
0F00
0E00
0C00
0C00
0C00
0C00
0C00
1800
ENDCHAR
STARTCHAR 005A
ENCODING 90
SWIDTH 630 0
DWIDTH 14 0
BBX 13 16 1 0
BITMAP
3FF8
3FF8
0030
0060
00E0
01C0
0380
0300
0600
0C00
1C00
3800
7000
E000
FFF0
FFE0
ENDCHAR
STARTCHAR 005B
ENCODING 91
SWIDTH 270 0
DWIDTH 6 0
BBX 9 20 0 -4
BITMAP
0F80
0F00
0C00
0C00
1800
1800
1800
1800
1800
3000
3000
3000
3000
3000
6000
6000
6000
6000
4000
F800
ENDCHAR
STARTCHAR 005C
ENCODING 92
SWIDTH 270 0
DWIDTH 6 0
BBX 4 16 2 0
BITMAP
C0
C0
C0
C0
40
40
40
60
60
60
20
20
20
30
30
30
ENDCHAR
STARTCHAR 005D
ENCODING 93
SWIDTH 270 0
DWIDTH 6 0
BBX 8 20 -1 -4
BITMAP
0F
0F
03
03
06
06
06
06
06
0C
0C
0C
0C
08
18
18
18
18
30
F0
ENDCHAR
STARTCHAR 005E
ENCODING 94
SWIDTH 450 0
DWIDTH 10 0
BBX 9 9 2 7
BITMAP
1800
1C00
3C00
3600
6600
6200
C300
C300
C180
ENDCHAR
STARTCHAR 005F
ENCODING 95
SWIDTH 540 0
DWIDTH 12 0
BBX 13 1 -1 -4
BITMAP
FFF8
ENDCHAR
STARTCHAR 0060
ENCODING 96
SWIDTH 315 0
DWIDTH 7 0
BBX 4 3 3 13
BITMAP
E0
60
30
ENDCHAR
STARTCHAR 0061
ENCODING 97
SWIDTH 540 0
DWIDTH 12 0
BBX 11 12 1 0
BITMAP
0F00
1FC0
30E0
6060
0060
1FC0
7EC0
C0C0
C0C0
C1C0
E780
7CC0
ENDCHAR
STARTCHAR 0062
ENCODING 98
SWIDTH 540 0
DWIDTH 12 0
BBX 11 16 1 0
BITMAP
1800
1800
1800
3000
3380
3FC0
38C0
3060
6060
6060
6060
60E0
E0C0
E1C0
F380
DF00
ENDCHAR
STARTCHAR 0063
ENCODING 99
SWIDTH 495 0
DWIDTH 11 0
BBX 10 12 1 0
BITMAP
0700
1F80
30C0
60C0
6000
E000
C000
C000
C180
E180
6300
3E00
ENDCHAR
STARTCHAR 0064
ENCODING 100
SWIDTH 540 0
DWIDTH 12 0
BBX 12 16 1 0
BITMAP
0030
0030
0030
0030
0E60
1FE0
30E0
60E0
60E0
C0C0
C0C0
C0C0
C0C0
E180
7380
3D80
ENDCHAR
STARTCHAR 0065
ENCODING 101
SWIDTH 540 0
DWIDTH 12 0
BBX 11 12 1 0
BITMAP
0700
1FC0
30C0
6060
6060
FFE0
FFE0
C000
C0C0
61C0
7380
3F00
ENDCHAR
STARTCHAR 0066
ENCODING 102
SWIDTH 270 0
DWIDTH 6 0
BBX 8 16 1 0
BITMAP
0F
1F
18
18
7E
FC
30
30
30
60
60
60
60
40
C0
C0
ENDCHAR
STARTCHAR 0067
ENCODING 103
SWIDTH 540 0
DWIDTH 12 0
BBX 12 17 1 -5
BITMAP
0E30
1FA0
30E0
60E0
6060
C040
C0C0
C0C0
C0C0
E1C0
7F80
3D80
0180
C180
C300
FE00
3800
ENDCHAR
STARTCHAR 0068
ENCODING 104
SWIDTH 540 0
DWIDTH 12 0
BBX 11 16 1 0
BITMAP
1800
1800
1800
3000
3380
37C0
3860
3060
6060
60C0
60C0
60C0
C0C0
C080
C180
C180
ENDCHAR
STARTCHAR 0069
ENCODING 105
SWIDTH 225 0
DWIDTH 5 0
BBX 5 16 1 0
BITMAP
18
18
00
00
30
30
30
60
60
60
60
60
C0
C0
C0
C0
ENDCHAR
STARTCHAR 006A
ENCODING 106
SWIDTH 225 0
DWIDTH 5 0
BBX 9 21 -3 -5
BITMAP
0180
0180
0000
0000
0300
0300
0300
0600
0600
0600
0600
0600
0C00
0C00
0C00
0C00
0C00
1800
1800
F000
6000
ENDCHAR
STARTCHAR 006B
ENCODING 107
SWIDTH 495 0
DWIDTH 11 0
BBX 11 16 1 0
BITMAP
1800
1800
1800
3000
3060
30C0
3180
2300
6600
7E00
7600
6600
C300
C300
C180
C180
ENDCHAR
STARTCHAR 006C
ENCODING 108
SWIDTH 225 0
DWIDTH 5 0
BBX 5 16 1 0
BITMAP
18
18
30
30
30
30
30
60
60
60
60
40
C0
C0
C0
C0
ENDCHAR
STARTCHAR 006D
ENCODING 109
SWIDTH 855 0
DWIDTH 19 0
BBX 17 12 1 0
BITMAP
338700
37DF80
38F180
70E180
60C180
60C180
60C300
618300
C18300
C18300
C18300
C18600
ENDCHAR
STARTCHAR 006E
ENCODING 110
SWIDTH 540 0
DWIDTH 12 0
BBX 11 12 1 0
BITMAP
3380
37C0
3860
3060
6060
60C0
60C0
60C0
C0C0
C080
C180
C180
ENDCHAR
STARTCHAR 006F
ENCODING 111
SWIDTH 540 0
DWIDTH 12 0
BBX 11 12 1 0
BITMAP
0F00
1FC0
30C0
6060
6060
C060
C060
C060
C0C0
E1C0
7380
3F00
ENDCHAR
STARTCHAR 0070
ENCODING 112
SWIDTH 540 0
DWIDTH 12 0
BBX 12 16 0 -4
BITMAP
19C0
1FE0
1C60
3830
3030
3030
3030
3070
7060
70E0
79C0
6F80
6000
C000
C000
C000
ENDCHAR
STARTCHAR 0071
ENCODING 113
SWIDTH 540 0
DWIDTH 12 0
BBX 11 16 1 -4
BITMAP
0E20
1F60
30E0
60E0
60C0
C0C0
C0C0
C0C0
C1C0
E180
7780
3D80
0180
0180
0300
0300
ENDCHAR
STARTCHAR 0072
ENCODING 114
SWIDTH 315 0
DWIDTH 7 0
BBX 8 12 1 0
BITMAP
33
3F
28
30
60
60
60
60
C0
C0
C0
C0
ENDCHAR
STARTCHAR 0073
ENCODING 115
SWIDTH 495 0
DWIDTH 11 0
BBX 10 12 1 0
BITMAP
0F00
3F80
30C0
20C0
3000
3E00
0F00
0380
C180
C180
E380
3F00
ENDCHAR
STARTCHAR 0074
ENCODING 116
SWIDTH 270 0
DWIDTH 6 0
BBX 6 15 1 1
BITMAP
18
18
30
7C
FC
30
30
60
60
60
60
60
C0
E0
70
ENDCHAR
STARTCHAR 0075
ENCODING 117
SWIDTH 540 0
DWIDTH 12 0
BBX 11 12 1 0
BITMAP
3060
3060
3060
2060
6060
60C0
60C0
60C0
C1C0
C180
6780
7D80
ENDCHAR
STARTCHAR 0076
ENCODING 118
SWIDTH 495 0
DWIDTH 11 0
BBX 10 12 2 0
BITMAP
C0C0
C0C0
C180
C180
C300
4300
6600
6C00
6C00
7800
7800
3000
ENDCHAR
STARTCHAR 0077
ENCODING 119
SWIDTH 720 0
DWIDTH 16 0
BBX 15 12 2 0
BITMAP
C386
C386
C38C
C78C
C598
CD98
C9B0
D9B0
59A0
51E0
71C0
60C0
ENDCHAR
STARTCHAR 0078
ENCODING 120
SWIDTH 495 0
DWIDTH 11 0
BBX 12 12 0 0
BITMAP
3030
1860
18C0
0D80
0F80
0700
0600
0F00
1B00
3180
7180
E0C0
ENDCHAR
STARTCHAR 0079
ENCODING 121
SWIDTH 495 0
DWIDTH 11 0
BBX 12 17 0 -5
BITMAP
3030
3030
3060
1060
18C0
18C0
1980
1980
1B00
0E00
0E00
0C00
0C00
1800
3800
F000
C000
ENDCHAR
STARTCHAR 007A
ENCODING 122
SWIDTH 495 0
DWIDTH 11 0
BBX 10 12 1 0
BITMAP
7FC0
7FC0
0180
0380
0700
0E00
1C00
3800
3000
6000
FF80
FF80
ENDCHAR
STARTCHAR 007B
ENCODING 123
SWIDTH 315 0
DWIDTH 7 0
BBX 9 21 1 -5
BITMAP
0380
0780
0C00
0C00
0C00
0800
1800
1800
3000
6000
E000
6000
3000
3000
2000
6000
6000
6000
6000
7800
3000
ENDCHAR
STARTCHAR 007C
ENCODING 124
SWIDTH 270 0
DWIDTH 6 0
BBX 2 21 2 -5
BITMAP
C0
C0
C0
C0
C0
C0
C0
C0
C0
C0
C0
C0
C0
C0
C0
C0
C0
C0
C0
C0
C0
ENDCHAR
STARTCHAR 007D
ENCODING 125
SWIDTH 315 0
DWIDTH 7 0
BBX 9 21 -2 -5
BITMAP
0700
0F00
0300
0300
0300
0200
0600
0600
0600
0380
0380
0600
0C00
0C00
0C00
1800
1800
1800
3000
F000
C000
ENDCHAR
STARTCHAR 007E
ENCODING 126
SWIDTH 585 0
DWIDTH 13 0
BBX 11 4 2 6
BITMAP
3000
FC60
DFE0
03C0
ENDCHAR
STARTCHAR 00A0
ENCODING 160
SWIDTH 270 0
DWIDTH 6 0
BBX 0 0 0 0
BITMAP
ENDCHAR
STARTCHAR 00A1
ENCODING 161
SWIDTH 315 0
DWIDTH 7 0
BBX 6 16 1 -4
BITMAP
0C
1C
18
00
18
10
10
30
30
30
30
70
60
60
60
E0
ENDCHAR
STARTCHAR 00A2
ENCODING 162
SWIDTH 540 0
DWIDTH 12 0
BBX 10 20 2 -4
BITMAP
0080
0080
0100
0100
0F00
3F80
77C0
64C0
C400
CC00
C800
D800
D180
D300
F700
7E00
6000
4000
C000
8000
ENDCHAR
STARTCHAR 00A3
ENCODING 163
SWIDTH 540 0
DWIDTH 12 0
BBX 12 16 1 0
BITMAP
07C0
0E70
1C30
1810
1800
1800
1800
7F00
7F00
1800
1800
1000
3000
6000
FFC0
87E0
ENDCHAR
STARTCHAR 00A4
ENCODING 164
SWIDTH 540 0
DWIDTH 12 0
BBX 10 10 2 3
BITMAP
C0C0
FFC0
7380
6180
40C0
40C0
6080
7180
FFC0
CEC0
ENDCHAR
STARTCHAR 00A5
ENCODING 165
SWIDTH 540 0
DWIDTH 12 0
BBX 14 16 1 0
BITMAP
301C
3038
3030
1860
18C0
09C0
0D80
0F00
7FE0
0600
0600
FFE0
0C00
0C00
0C00
0C00
ENDCHAR
STARTCHAR 00A6
ENCODING 166
SWIDTH 270 0
DWIDTH 6 0
BBX 2 21 2 -5
BITMAP
C0
C0
C0
C0
C0
C0
C0
C0
00
00
00
00
C0
C0
C0
C0
C0
C0
C0
C0
C0
ENDCHAR
STARTCHAR 00A7
ENCODING 167
SWIDTH 540 0
DWIDTH 12 0
BBX 11 21 1 -5
BITMAP
0FC0
1CE0
1860
1860
1800
0C00
3E00
6300
6180
40C0
6060
7060
38C0
0FC0
0700
0300
0180
C180
E300
7F00
1C00
ENDCHAR
STARTCHAR 00A8
ENCODING 168
SWIDTH 315 0
DWIDTH 7 0
BBX 6 3 3 13
BITMAP
CC
CC
CC
ENDCHAR
STARTCHAR 00A9
ENCODING 169
SWIDTH 720 0
DWIDTH 16 0
BBX 16 16 1 0
BITMAP
07E0
1C38
300C
6186
47E2
CC33
8C01
8801
8801
8801
CC33
47E2
6186
300C
1C38
07E0
ENDCHAR
STARTCHAR 00AA
ENCODING 170
SWIDTH 360 0
DWIDTH 8 0
BBX 7 8 2 8
BITMAP
3C
66
02
3E
E6
84
CC
74
ENDCHAR
STARTCHAR 00AB
ENCODING 171
SWIDTH 540 0
DWIDTH 12 0
BBX 10 10 2 1
BITMAP
0CC0
1980
3300
6600
C600
CC00
C400
6600
6600
2300
ENDCHAR
STARTCHAR 00AC
ENCODING 172
SWIDTH 585 0
DWIDTH 13 0
BBX 10 6 2 5
BITMAP
FFC0
FFC0
0040
0040
0040
0040
ENDCHAR
STARTCHAR 00AD
ENCODING 173
SWIDTH 315 0
DWIDTH 7 0
BBX 6 2 1 5
BITMAP
FC
FC
ENDCHAR
STARTCHAR 00AE
ENCODING 174
SWIDTH 720 0
DWIDTH 16 0
BBX 16 16 1 0
BITMAP
07E0
1C38
300C
6006
4FE2
CC23
8C21
8C61
8F81
8CC1
CC63
4C22
6C36
300C
1C38
07E0
ENDCHAR
STARTCHAR 00AF
ENCODING 175
SWIDTH 540 0
DWIDTH 12 0
BBX 13 1 2 17
BITMAP
FFF8
ENDCHAR
STARTCHAR 00B0
ENCODING 176
SWIDTH 405 0
DWIDTH 9 0
BBX 6 6 3 10
BITMAP
78
CC
84
84
C8
30
ENDCHAR
STARTCHAR 00B1
ENCODING 177
SWIDTH 540 0
DWIDTH 12 0
BBX 11 13 1 0
BITMAP
0600
0600
0600
0600
FFE0
FFE0
0600
0600
0600
0600
0000
FFE0
FFE0
ENDCHAR
STARTCHAR 00B2
ENCODING 178
SWIDTH 315 0
DWIDTH 7 0
BBX 7 8 2 8
BITMAP
3C
66
06
0C
18
70
C0
FC
ENDCHAR
STARTCHAR 00B3
ENCODING 179
SWIDTH 315 0
DWIDTH 7 0
BBX 7 8 2 8
BITMAP
3C
66
06
1C
0C
04
CC
7C
ENDCHAR
STARTCHAR 00B4
ENCODING 180
SWIDTH 315 0
DWIDTH 7 0
BBX 4 3 4 13
BITMAP
30
60
C0
ENDCHAR
STARTCHAR 00B5
ENCODING 181
SWIDTH 585 0
DWIDTH 13 0
BBX 13 16 0 -4
BITMAP
1818
1810
1830
1830
1830
3030
3060
3060
3060
30E0
79E0
6F40
6000
6000
4000
C000
ENDCHAR
STARTCHAR 00B6
ENCODING 182
SWIDTH 540 0
DWIDTH 12 0
BBX 12 20 2 -4
BITMAP
3FF0
7FF0
FCC0
FCC0
FCC0
FCC0
FCC0
FCC0
3CC0
0CC0
0CC0
0CC0
0CC0
0CC0
0CC0
0CC0
0CC0
0CC0
0CC0
0CC0
ENDCHAR
STARTCHAR 00B7
ENCODING 183
SWIDTH 270 0
DWIDTH 6 0
BBX 2 2 2 7
BITMAP
C0
C0
ENDCHAR
STARTCHAR 00B8
ENCODING 184
SWIDTH 315 0
DWIDTH 7 0
BBX 5 5 1 -5
BITMAP
30
38
18
F8
E0
ENDCHAR
STARTCHAR 00B9
ENCODING 185
SWIDTH 315 0
DWIDTH 7 0
BBX 5 8 3 8
BITMAP
18
38
D0
30
30
30
20
20
ENDCHAR
STARTCHAR 00BA
ENCODING 186
SWIDTH 360 0
DWIDTH 8 0
BBX 7 8 2 8
BITMAP
3C
66
C6
82
86
86
DC
78
ENDCHAR
STARTCHAR 00BB
ENCODING 187
SWIDTH 540 0
DWIDTH 12 0
BBX 10 10 1 1
BITMAP
3100
1100
1980
1980
08C0
0CC0
1980
3300
6200
C600
ENDCHAR
STARTCHAR 00BC
ENCODING 188
SWIDTH 855 0
DWIDTH 19 0
BBX 16 17 2 -1
BITMAP
0C03
1C06
6804
180C
1818
1830
1060
10C0
0183
0307
060F
0C1A
0832
107F
307F
6004
C000
ENDCHAR
STARTCHAR 00BD
ENCODING 189
SWIDTH 855 0
DWIDTH 19 0
BBX 17 17 1 -1
BITMAP
060180
0E0300
340600
0C0C00
0C1800
0C3000
086000
084000
008700
019F80
031880
060180
0C0300
180E00
301800
603F80
C00000
ENDCHAR
STARTCHAR 00BE
ENCODING 190
SWIDTH 855 0
DWIDTH 19 0
BBX 17 17 2 -1
BITMAP
3C0180
660300
060600
1C0C00
0C1800
043000
CC6000
7CC000
008300
010700
030F00
061A00
0C3200
187F00
307F00
600400
C00000
ENDCHAR
STARTCHAR 00BF
ENCODING 191
SWIDTH 630 0
DWIDTH 14 0
BBX 9 17 2 -5
BITMAP
0380
0300
0300
0000
0300
0200
0600
0C00
1800
3000
6000
C000
C180
C180
E380
7F00
1C00
ENDCHAR
STARTCHAR 00C0
ENCODING 192
SWIDTH 675 0
DWIDTH 15 0
BBX 14 20 0 0
BITMAP
0060
0030
0030
0000
00E0
00E0
01A0
01B0
0330
0330
0630
0E30
0C30
1C18
1FF8
3018
3018
6018
E018
C00C
ENDCHAR
STARTCHAR 00C1
ENCODING 193
SWIDTH 675 0
DWIDTH 15 0
BBX 14 20 0 0
BITMAP
0038
0030
0060
0000
00E0
00E0
01A0
01B0
0330
0330
0630
0E30
0C30
1C18
1FF8
3018
3018
6018
E018
C00C
ENDCHAR
STARTCHAR 00C2
ENCODING 194
SWIDTH 675 0
DWIDTH 15 0
BBX 14 20 0 0
BITMAP
0070
00F0
0198
0000
00E0
00E0
01A0
01B0
0330
0330
0630
0E30
0C30
1C18
1FF8
3018
3018
6018
E018
C00C
ENDCHAR
STARTCHAR 00C3
ENCODING 195
SWIDTH 675 0
DWIDTH 15 0
BBX 14 19 0 0
BITMAP
01E8
0378
0000
00E0
00E0
01A0
01B0
0330
0330
0630
0E30
0C30
1C18
1FF8
3018
3018
6018
E018
C00C
ENDCHAR
STARTCHAR 00C4
ENCODING 196
SWIDTH 675 0
DWIDTH 15 0
BBX 14 19 0 0
BITMAP
0198
0198
0000
00E0
00E0
01A0
01B0
0330
0330
0630
0E30
0C30
1C18
1FF8
3018
3018
6018
E018
C00C
ENDCHAR
STARTCHAR 00C5
ENCODING 197
SWIDTH 675 0
DWIDTH 15 0
BBX 14 19 0 0
BITMAP
0070
0090
0090
00E0
00E0
01A0
01B0
0330
0330
0630
0E30
0C30
1C18
1FF8
3018
3018
6018
E018
C00C
ENDCHAR
STARTCHAR 00C6
ENCODING 198
SWIDTH 990 0
DWIDTH 22 0
BBX 24 16 -1 0
BITMAP
003FFF
007FFF
00E600
00C600
018600
018600
030E00
070FFE
060FFE
0C0C00
1FFC00
181C00
381800
301800
601FFC
E01FFC
ENDCHAR
STARTCHAR 00C7
ENCODING 199
SWIDTH 720 0
DWIDTH 16 0
BBX 14 21 2 -5
BITMAP
07E0
1FF8
3818
300C
600C
6000
E000
C000
C000
C000
C010
C018
E038
7070
3DE0
1FC0
0C00
0E00
0300
3E00
3C00
ENDCHAR
STARTCHAR 00C8
ENCODING 200
SWIDTH 675 0
DWIDTH 15 0
BBX 15 20 1 0
BITMAP
00E0
0060
0020
0000
1FFE
1FFE
1800
1800
3800
3000
3000
3FF8
3FF8
6000
6000
6000
6000
6000
FFF0
FFF0
ENDCHAR
STARTCHAR 00C9
ENCODING 201
SWIDTH 675 0
DWIDTH 15 0
BBX 15 20 1 0
BITMAP
0060
00C0
0080
0000
1FFE
1FFE
1800
1800
3800
3000
3000
3FF8
3FF8
6000
6000
6000
6000
6000
FFF0
FFF0
ENDCHAR
STARTCHAR 00CA
ENCODING 202
SWIDTH 675 0
DWIDTH 15 0
BBX 15 20 1 0
BITMAP
00E0
01A0
0330
0000
1FFE
1FFE
1800
1800
3800
3000
3000
3FF8
3FF8
6000
6000
6000
6000
6000
FFF0
FFF0
ENDCHAR
STARTCHAR 00CB
ENCODING 203
SWIDTH 675 0
DWIDTH 15 0
BBX 15 19 1 0
BITMAP
03B8
0330
0000
1FFE
1FFE
1800
1800
3800
3000
3000
3FF8
3FF8
6000
6000
6000
6000
6000
FFF0
FFF0
ENDCHAR
STARTCHAR 00CC
ENCODING 204
SWIDTH 270 0
DWIDTH 6 0
BBX 6 20 1 0
BITMAP
18
0C
04
00
0C
18
18
18
18
38
30
30
30
30
70
60
60
60
60
C0
ENDCHAR
STARTCHAR 00CD
ENCODING 205
SWIDTH 270 0
DWIDTH 6 0
BBX 7 20 1 0
BITMAP
06
0C
08
00
0C
18
18
18
18
38
30
30
30
30
70
60
60
60
60
C0
ENDCHAR
STARTCHAR 00CE
ENCODING 206
SWIDTH 270 0
DWIDTH 6 0
BBX 8 20 1 0
BITMAP
0E
1A
33
00
0C
18
18
18
18
38
30
30
30
30
70
60
60
60
60
C0
ENDCHAR
STARTCHAR 00CF
ENCODING 207
SWIDTH 270 0
DWIDTH 6 0
BBX 8 19 1 0
BITMAP
33
33
00
0C
18
18
18
18
38
30
30
30
30
70
60
60
60
60
C0
ENDCHAR
STARTCHAR 00D0
ENCODING 208
SWIDTH 720 0
DWIDTH 16 0
BBX 15 16 1 0
BITMAP
1FE0
1FF8
181C
180C
1806
3806
3006
FF06
FF06
300E
600C
601C
6018
6070
FFE0
FF80
ENDCHAR
STARTCHAR 00D1
ENCODING 209
SWIDTH 720 0
DWIDTH 16 0
BBX 16 19 1 0
BITMAP
01E8
0378
0000
1C03
1C07
1E06
1E06
3E06
3306
330C
318C
318C
70CC
60CC
60D8
6078
6078
C038
C038
ENDCHAR
STARTCHAR 00D2
ENCODING 210
SWIDTH 765 0
DWIDTH 17 0
BBX 15 20 2 0
BITMAP
01C0
00C0
0060
0000
07F0
0FF8
381C
300C
6006
6006
E006
C006
C006
C006
C00E
C00C
601C
7038
3FF0
1FC0
ENDCHAR
STARTCHAR 00D3
ENCODING 211
SWIDTH 765 0
DWIDTH 17 0
BBX 15 20 2 0
BITMAP
0060
00C0
0180
0000
07F0
0FF8
381C
300C
6006
6006
E006
C006
C006
C006
C00E
C00C
601C
7038
3FF0
1FC0
ENDCHAR
STARTCHAR 00D4
ENCODING 212
SWIDTH 765 0
DWIDTH 17 0
BBX 15 20 2 0
BITMAP
00C0
01E0
0320
0000
07F0
0FF8
381C
300C
6006
6006
E006
C006
C006
C006
C00E
C00C
601C
7038
3FF0
1FC0
ENDCHAR
STARTCHAR 00D5
ENCODING 213
SWIDTH 765 0
DWIDTH 17 0
BBX 15 19 2 0
BITMAP
03D0
06F0
0000
07F0
0FF8
381C
300C
6006
6006
E006
C006
C006
C006
C00E
C00C
601C
7038
3FF0
1FC0
ENDCHAR
STARTCHAR 00D6
ENCODING 214
SWIDTH 765 0
DWIDTH 17 0
BBX 15 19 2 0
BITMAP
0330
0330
0000
07F0
0FF8
381C
300C
6006
6006
E006
C006
C006
C006
C00E
C00C
601C
7038
3FF0
1FC0
ENDCHAR
STARTCHAR 00D7
ENCODING 215
SWIDTH 585 0
DWIDTH 13 0
BBX 9 9 3 4
BITMAP
C180
6380
3700
1E00
1C00
3E00
7300
E180
4000
ENDCHAR
STARTCHAR 00D8
ENCODING 216
SWIDTH 765 0
DWIDTH 17 0
BBX 15 18 2 -1
BITMAP
0002
07F6
0FFC
381C
301C
6026
6066
E0C6
C186
C306
C206
C40E
CC0C
781C
7038
7FF0
5FC0
8000
ENDCHAR
STARTCHAR 00D9
ENCODING 217
SWIDTH 720 0
DWIDTH 16 0
BBX 15 20 2 0
BITMAP
0180
00C0
0040
0000
3006
300C
300C
300C
700C
601C
6018
6018
6018
E018
C038
C030
C030
6060
7FC0
3F80
ENDCHAR
STARTCHAR 00DA
ENCODING 218
SWIDTH 720 0
DWIDTH 16 0
BBX 15 20 2 0
BITMAP
00E0
00C0
0180
0000
3006
300C
300C
300C
700C
601C
6018
6018
6018
E018
C038
C030
C030
6060
7FC0
3F80
ENDCHAR
STARTCHAR 00DB
ENCODING 219
SWIDTH 720 0
DWIDTH 16 0
BBX 15 20 2 0
BITMAP
00E0
01E0
0320
0000
3006
300C
300C
300C
700C
601C
6018
6018
6018
E018
C038
C030
C030
6060
7FC0
3F80
ENDCHAR
STARTCHAR 00DC
ENCODING 220
SWIDTH 720 0
DWIDTH 16 0
BBX 15 19 2 0
BITMAP
0330
0330
0000
3006
300C
300C
300C
700C
601C
6018
6018
6018
E018
C038
C030
C030
6060
7FC0
3F80
ENDCHAR
STARTCHAR 00DD
ENCODING 221
SWIDTH 675 0
DWIDTH 15 0
BBX 14 20 3 0
BITMAP
0180
0300
0200
0000
C01C
E018
6030
7070
30E0
39C0
1980
1B80
0F00
0E00
0C00
0C00
0C00
0C00
0C00
1800
ENDCHAR
STARTCHAR 00DE
ENCODING 222
SWIDTH 675 0
DWIDTH 15 0
BBX 14 16 1 0
BITMAP
1800
1800
1800
1FE0
3FF8
3018
300C
300C
301C
6018
6038
7FF0
7F80
E000
C000
C000
ENDCHAR
STARTCHAR 00DF
ENCODING 223
SWIDTH 630 0
DWIDTH 14 0
BBX 12 16 1 0
BITMAP
07C0
0EE0
1860
3060
30C0
30C0
3180
3180
6180
61C0
60E0
6060
4030
C860
CEE0
C7C0
ENDCHAR
STARTCHAR 00E0
ENCODING 224
SWIDTH 540 0
DWIDTH 12 0
BBX 11 16 1 0
BITMAP
0700
0300
0180
0000
0F00
1FC0
30E0
6060
0060
1FC0
7EC0
C0C0
C0C0
C1C0
E780
7CC0
ENDCHAR
STARTCHAR 00E1
ENCODING 225
SWIDTH 540 0
DWIDTH 12 0
BBX 11 16 1 0
BITMAP
0180
0300
0600
0000
0F00
1FC0
30E0
6060
0060
1FC0
7EC0
C0C0
C0C0
C1C0
E780
7CC0
ENDCHAR
STARTCHAR 00E2
ENCODING 226
SWIDTH 540 0
DWIDTH 12 0
BBX 11 16 1 0
BITMAP
0380
0680
0CC0
0000
0F00
1FC0
30E0
6060
0060
1FC0
7EC0
C0C0
C0C0
C1C0
E780
7CC0
ENDCHAR
STARTCHAR 00E3
ENCODING 227
SWIDTH 540 0
DWIDTH 12 0
BBX 11 16 1 0
BITMAP
0620
0FE0
08C0
0000
0F00
1FC0
30E0
6060
0060
1FC0
7EC0
C0C0
C0C0
C1C0
E780
7CC0
ENDCHAR
STARTCHAR 00E4
ENCODING 228
SWIDTH 540 0
DWIDTH 12 0
BBX 11 16 1 0
BITMAP
0CC0
0CC0
0CC0
0000
0F00
1FC0
30E0
6060
0060
1FC0
7EC0
C0C0
C0C0
C1C0
E780
7CC0
ENDCHAR
STARTCHAR 00E5
ENCODING 229
SWIDTH 540 0
DWIDTH 12 0
BBX 11 16 1 0
BITMAP
0700
0480
0480
0300
0F00
1FC0
30E0
6060
0060
1FC0
7EC0
C0C0
C0C0
C1C0
E780
7CC0
ENDCHAR
STARTCHAR 00E6
ENCODING 230
SWIDTH 900 0
DWIDTH 20 0
BBX 18 12 1 0
BITMAP
0F0E00
1FFF80
30F0C0
60E0C0
00C0C0
1FFFC0
7EFFC0
C0C000
C1C180
C1C180
E6E700
7C3E00
ENDCHAR
STARTCHAR 00E7
ENCODING 231
SWIDTH 495 0
DWIDTH 11 0
BBX 10 16 1 -4
BITMAP
0700
1F80
30C0
60C0
6000
E000
C000
C000
C180
E180
6300
3E00
1800
0C00
0400
7C00
ENDCHAR
STARTCHAR 00E8
ENCODING 232
SWIDTH 540 0
DWIDTH 12 0
BBX 11 16 1 0
BITMAP
0700
0300
0180
0000
0700
1FC0
30C0
6060
6060
FFE0
FFE0
C000
C0C0
61C0
7380
3F00
ENDCHAR
STARTCHAR 00E9
ENCODING 233
SWIDTH 540 0
DWIDTH 12 0
BBX 11 16 1 0
BITMAP
0180
0300
0200
0000
0700
1FC0
30C0
6060
6060
FFE0
FFE0
C000
C0C0
61C0
7380
3F00
ENDCHAR
STARTCHAR 00EA
ENCODING 234
SWIDTH 540 0
DWIDTH 12 0
BBX 11 16 1 0
BITMAP
0380
0680
0CC0
0000
0700
1FC0
30C0
6060
6060
FFE0
FFE0
C000
C0C0
61C0
7380
3F00
ENDCHAR
STARTCHAR 00EB
ENCODING 235
SWIDTH 540 0
DWIDTH 12 0
BBX 11 16 1 0
BITMAP
0CC0
0CC0
0CC0
0000
0700
1FC0
30C0
6060
6060
FFE0
FFE0
C000
C0C0
61C0
7380
3F00
ENDCHAR
STARTCHAR 00EC
ENCODING 236
SWIDTH 270 0
DWIDTH 6 0
BBX 6 16 1 0
BITMAP
18
18
0C
00
18
18
30
30
30
30
60
60
60
60
60
C0
ENDCHAR
STARTCHAR 00ED
ENCODING 237
SWIDTH 270 0
DWIDTH 6 0
BBX 6 16 1 0
BITMAP
0C
18
10
00
18
18
30
30
30
30
60
60
60
60
60
C0
ENDCHAR
STARTCHAR 00EE
ENCODING 238
SWIDTH 270 0
DWIDTH 6 0
BBX 7 16 1 0
BITMAP
1C
34
66
00
18
18
30
30
30
30
60
60
60
60
60
C0
ENDCHAR
STARTCHAR 00EF
ENCODING 239
SWIDTH 270 0
DWIDTH 6 0
BBX 7 16 1 0
BITMAP
66
66
66
00
18
18
30
30
30
30
60
60
60
60
60
C0
ENDCHAR
STARTCHAR 00F0
ENCODING 240
SWIDTH 540 0
DWIDTH 12 0
BBX 11 16 1 0
BITMAP
0320
01C0
07C0
04C0
0060
1FE0
38E0
6060
6060
C060
C060
C060
C0C0
E1C0
7380
3F00
ENDCHAR
STARTCHAR 00F1
ENCODING 241
SWIDTH 540 0
DWIDTH 12 0
BBX 11 16 1 0
BITMAP
0660
0FE0
08C0
0000
3380
37C0
3860
3060
6060
60C0
60C0
60C0
C0C0
C080
C180
C180
ENDCHAR
STARTCHAR 00F2
ENCODING 242
SWIDTH 540 0
DWIDTH 12 0
BBX 11 16 1 0
BITMAP
0300
0300
0180
0000
0F00
1FC0
30C0
6060
6060
C060
C060
C060
C0C0
E1C0
7380
3F00
ENDCHAR
STARTCHAR 00F3
ENCODING 243
SWIDTH 540 0
DWIDTH 12 0
BBX 11 16 1 0
BITMAP
0180
0300
0600
0000
0F00
1FC0
30C0
6060
6060
C060
C060
C060
C0C0
E1C0
7380
3F00
ENDCHAR
STARTCHAR 00F4
ENCODING 244
SWIDTH 540 0
DWIDTH 12 0
BBX 11 16 1 0
BITMAP
0380
0780
0CC0
0000
0F00
1FC0
30C0
6060
6060
C060
C060
C060
C0C0
E1C0
7380
3F00
ENDCHAR
STARTCHAR 00F5
ENCODING 245
SWIDTH 540 0
DWIDTH 12 0
BBX 11 16 1 0
BITMAP
0460
0FC0
1980
0000
0F00
1FC0
30C0
6060
6060
C060
C060
C060
C0C0
E1C0
7380
3F00
ENDCHAR
STARTCHAR 00F6
ENCODING 246
SWIDTH 540 0
DWIDTH 12 0
BBX 11 16 1 0
BITMAP
0CC0
0CC0
0CC0
0000
0F00
1FC0
30C0
6060
6060
C060
C060
C060
C0C0
E1C0
7380
3F00
ENDCHAR
STARTCHAR 00F7
ENCODING 247
SWIDTH 540 0
DWIDTH 12 0
BBX 11 9 1 3
BITMAP
0600
0600
0000
FFE0
FFE0
0000
0600
0600
0600
ENDCHAR
STARTCHAR 00F8
ENCODING 248
SWIDTH 630 0
DWIDTH 14 0
BBX 11 13 2 0
BITMAP
0F60
3FC0
70C0
6160
C360
C660
CC60
C8C0
D0C0
F180
6380
FE00
8000
ENDCHAR
STARTCHAR 00F9
ENCODING 249
SWIDTH 540 0
DWIDTH 12 0
BBX 11 16 1 0
BITMAP
0300
0300
0180
0000
3060
3060
3060
2060
6060
60C0
60C0
60C0
C1C0
C180
6780
7D80
ENDCHAR
STARTCHAR 00FA
ENCODING 250
SWIDTH 540 0
DWIDTH 12 0
BBX 11 16 1 0
BITMAP
0180
0380
0300
0000
3060
3060
3060
2060
6060
60C0
60C0
60C0
C1C0
C180
6780
7D80
ENDCHAR
STARTCHAR 00FB
ENCODING 251
SWIDTH 540 0
DWIDTH 12 0
BBX 11 16 1 0
BITMAP
0380
0680
0CC0
0000
3060
3060
3060
2060
6060
60C0
60C0
60C0
C1C0
C180
6780
7D80
ENDCHAR
STARTCHAR 00FC
ENCODING 252
SWIDTH 540 0
DWIDTH 12 0
BBX 11 16 1 0
BITMAP
0CC0
0CC0
0CC0
0000
3060
3060
3060
2060
6060
60C0
60C0
60C0
C1C0
C180
6780
7D80
ENDCHAR
STARTCHAR 00FD
ENCODING 253
SWIDTH 495 0
DWIDTH 11 0
BBX 12 21 0 -5
BITMAP
01C0
0180
0300
0000
3030
3030
3060
1060
18C0
18C0
1980
1980
1B00
0E00
0E00
0C00
0C00
1800
3800
F000
C000
ENDCHAR
STARTCHAR 00FE
ENCODING 254
SWIDTH 540 0
DWIDTH 12 0
BBX 12 20 0 -4
BITMAP
0C00
0C00
0800
1800
19C0
1FE0
1C60
3830
3030
3030
3030
3070
7060
70E0
79C0
6F80
6000
C000
C000
C000
ENDCHAR
STARTCHAR 00FF
ENCODING 255
SWIDTH 495 0
DWIDTH 11 0
BBX 12 21 0 -5
BITMAP
0660
0660
0EE0
0000
3030
3030
3060
1060
18C0
18C0
1980
1980
1B00
0E00
0E00
0C00
0C00
1800
3800
F000
C000
ENDCHAR
STARTCHAR 0100
ENCODING 256
SWIDTH 675 0
DWIDTH 15 0
BBX 14 19 0 0
BITMAP
01FC
01F8
0000
00E0
00E0
01A0
01B0
0330
0330
0630
0E30
0C30
1C18
1FF8
3018
3018
6018
E018
C00C
ENDCHAR
STARTCHAR 0101
ENCODING 257
SWIDTH 540 0
DWIDTH 12 0
BBX 11 15 1 0
BITMAP
0FE0
0FC0
0000
0F00
1FC0
30E0
6060
0060
1FC0
7EC0
C0C0
C0C0
C1C0
E780
7CC0
ENDCHAR
STARTCHAR 0102
ENCODING 258
SWIDTH 675 0
DWIDTH 15 0
BBX 14 20 0 0
BITMAP
0108
0198
00F0
0000
00E0
00E0
01A0
01B0
0330
0330
0630
0E30
0C30
1C18
1FF8
3018
3018
6018
E018
C00C
ENDCHAR
STARTCHAR 0103
ENCODING 259
SWIDTH 540 0
DWIDTH 12 0
BBX 11 15 1 0
BITMAP
0C40
0780
0000
0F00
1FC0
30E0
6060
0060
1FC0
7EC0
C0C0
C0C0
C1C0
E780
7CC0
ENDCHAR
STARTCHAR 0104
ENCODING 260
SWIDTH 675 0
DWIDTH 15 0
BBX 15 21 0 -5
BITMAP
00E0
00E0
01A0
01B0
0330
0330
0630
0E30
0C30
1C18
1FF8
3018
3018
6018
E018
C00C
0018
0010
0010
001E
000C
ENDCHAR
STARTCHAR 0105
ENCODING 261
SWIDTH 540 0
DWIDTH 12 0
BBX 11 17 1 -5
BITMAP
0F00
1FC0
30E0
6060
0060
1FC0
7EC0
C0C0
C0C0
C1C0
E780
7CC0
0080
0180
0180
01E0
00C0
ENDCHAR
STARTCHAR 0106
ENCODING 262
SWIDTH 720 0
DWIDTH 16 0
BBX 14 20 2 0
BITMAP
0060
00C0
0180
0000
07E0
1FF8
3818
300C
600C
6000
E000
C000
C000
C000
C010
C018
E038
7070
3DE0
1FC0
ENDCHAR
STARTCHAR 0107
ENCODING 263
SWIDTH 495 0
DWIDTH 11 0
BBX 10 16 1 0
BITMAP
0180
0380
0300
0000
0700
1F80
30C0
60C0
6000
E000
C000
C000
C180
E180
6300
3E00
ENDCHAR
STARTCHAR 0108
ENCODING 264
SWIDTH 720 0
DWIDTH 16 0
BBX 14 20 2 0
BITMAP
00E0
01E0
0330
0000
07E0
1FF8
3818
300C
600C
6000
E000
C000
C000
C000
C010
C018
E038
7070
3DE0
1FC0
ENDCHAR
STARTCHAR 0109
ENCODING 265
SWIDTH 495 0
DWIDTH 11 0
BBX 10 16 1 0
BITMAP
0380
0780
0C80
0000
0700
1F80
30C0
60C0
6000
E000
C000
C000
C180
E180
6300
3E00
ENDCHAR
STARTCHAR 010A
ENCODING 266
SWIDTH 720 0
DWIDTH 16 0
BBX 14 19 2 0
BITMAP
00C0
00C0
0000
07E0
1FF8
3818
300C
600C
6000
E000
C000
C000
C000
C010
C018
E038
7070
3DE0
1FC0
ENDCHAR
STARTCHAR 010B
ENCODING 267
SWIDTH 495 0
DWIDTH 11 0
BBX 10 16 1 0
BITMAP
0300
0700
0700
0000
0700
1F80
30C0
60C0
6000
E000
C000
C000
C180
E180
6300
3E00
ENDCHAR
STARTCHAR 010C
ENCODING 268
SWIDTH 720 0
DWIDTH 16 0
BBX 14 20 2 0
BITMAP
0330
0160
01C0
0000
07E0
1FF8
3818
300C
600C
6000
E000
C000
C000
C000
C010
C018
E038
7070
3DE0
1FC0
ENDCHAR
STARTCHAR 010D
ENCODING 269
SWIDTH 495 0
DWIDTH 11 0
BBX 10 16 1 0
BITMAP
0CC0
0580
0700
0000
0700
1F80
30C0
60C0
6000
E000
C000
C000
C180
E180
6300
3E00
ENDCHAR
STARTCHAR 010E
ENCODING 270
SWIDTH 720 0
DWIDTH 16 0
BBX 15 20 1 0
BITMAP
0260
0360
03C0
0000
1FE0
1FF8
181C
180C
380E
3006
3006
3006
300E
600C
600C
601C
6038
6070
FFE0
FF80
ENDCHAR
STARTCHAR 010F
ENCODING 271
SWIDTH 630 0
DWIDTH 14 0
BBX 15 16 1 0
BITMAP
0036
0036
0032
0032
0E64
1FE0
30E0
60E0
60E0
C0C0
C0C0
C0C0
C0C0
E1C0
7280
3D80
ENDCHAR
STARTCHAR 0110
ENCODING 272
SWIDTH 720 0
DWIDTH 16 0
BBX 15 16 1 0
BITMAP
1FE0
1FF8
181C
180C
1806
3806
3006
FF06
FF06
300E
600C
601C
6018
6070
FFE0
FF80
ENDCHAR
STARTCHAR 0111
ENCODING 273
SWIDTH 540 0
DWIDTH 12 0
BBX 13 16 1 0
BITMAP
0030
01F8
03F8
0030
0E60
1FE0
30E0
60E0
60E0
C0C0
C0C0
C0C0
C0C0
E180
7380
3D80
ENDCHAR
STARTCHAR 0112
ENCODING 274
SWIDTH 675 0
DWIDTH 15 0
BBX 15 19 1 0
BITMAP
03F8
03F8
0000
1FFE
1FFE
1800
1800
3800
3000
3000
3FF8
3FF8
6000
6000
6000
6000
6000
FFF0
FFF0
ENDCHAR
STARTCHAR 0113
ENCODING 275
SWIDTH 540 0
DWIDTH 12 0
BBX 11 15 1 0
BITMAP
0FE0
0FC0
0000
0700
1FC0
30C0
6060
6060
FFE0
FFE0
C000
C0C0
61C0
7380
3F00
ENDCHAR
STARTCHAR 0114
ENCODING 276
SWIDTH 675 0
DWIDTH 15 0
BBX 15 20 1 0
BITMAP
0218
0330
01E0
0000
1FFE
1FFE
1800
1800
3800
3000
3000
3FF8
3FF8
6000
6000
6000
6000
6000
FFF0
FFF0
ENDCHAR
STARTCHAR 0115
ENCODING 277
SWIDTH 540 0
DWIDTH 12 0
BBX 11 15 1 0
BITMAP
08C0
0780
0000
0700
1FC0
30C0
6060
6060
FFE0
FFE0
C000
C0C0
61C0
7380
3F00
ENDCHAR
STARTCHAR 0116
ENCODING 278
SWIDTH 675 0
DWIDTH 15 0
BBX 15 19 1 0
BITMAP
00E0
00E0
0000
1FFE
1FFE
1800
1800
3800
3000
3000
3FF8
3FF8
6000
6000
6000
6000
6000
FFF0
FFF0
ENDCHAR
STARTCHAR 0117
ENCODING 279
SWIDTH 540 0
DWIDTH 12 0
BBX 11 16 1 0
BITMAP
0380
0300
0300
0000
0700
1FC0
30C0
6060
6060
FFE0
FFE0
C000
C0C0
61C0
7380
3F00
ENDCHAR
STARTCHAR 0118
ENCODING 280
SWIDTH 675 0
DWIDTH 15 0
BBX 15 21 1 -5
BITMAP
1FFE
1FFE
1800
1800
3800
3000
3000
3FF8
3FF8
6000
6000
6000
6000
6000
FFF0
FFF0
0080
0080
0180
00F0
0040
ENDCHAR
STARTCHAR 0119
ENCODING 281
SWIDTH 540 0
DWIDTH 12 0
BBX 11 17 1 -5
BITMAP
0700
1FC0
30C0
6060
6060
FFE0
FFE0
C000
C0C0
61C0
7380
3F00
0800
0800
1800
0F00
0400
ENDCHAR
STARTCHAR 011A
ENCODING 282
SWIDTH 675 0
DWIDTH 15 0
BBX 15 20 1 0
BITMAP
0330
01E0
01C0
0000
1FFE
1FFE
1800
1800
3800
3000
3000
3FF8
3FF8
6000
6000
6000
6000
6000
FFF0
FFF0
ENDCHAR
STARTCHAR 011B
ENCODING 283
SWIDTH 540 0
DWIDTH 12 0
BBX 11 16 1 0
BITMAP
0CC0
0580
0700
0000
0700
1FC0
30C0
6060
6060
FFE0
FFE0
C000
C0C0
61C0
7380
3F00
ENDCHAR
STARTCHAR 011C
ENCODING 284
SWIDTH 765 0
DWIDTH 17 0
BBX 15 20 2 0
BITMAP
0060
00F0
0190
0000
03F0
0FF8
1C0C
300E
7006
6000
6000
E000
C1FC
C1FC
C00C
E00C
6018
7018
3DF8
1FE0
ENDCHAR
STARTCHAR 011D
ENCODING 285
SWIDTH 540 0
DWIDTH 12 0
BBX 12 21 1 -5
BITMAP
0380
0680
0CC0
0000
0E30
1FA0
30E0
60E0
6060
C040
C0C0
C0C0
C0C0
E1C0
7F80
3D80
0180
C180
C300
FE00
3800
ENDCHAR
STARTCHAR 011E
ENCODING 286
SWIDTH 765 0
DWIDTH 17 0
BBX 15 20 2 0
BITMAP
0108
0118
00F0
0000
03F0
0FF8
1C0C
300E
7006
6000
6000
E000
C1FC
C1FC
C00C
E00C
6018
7018
3DF8
1FE0
ENDCHAR
STARTCHAR 011F
ENCODING 287
SWIDTH 540 0
DWIDTH 12 0
BBX 12 20 1 -5
BITMAP
0C40
07C0
0000
0E30
1FA0
30E0
60E0
6060
C040
C0C0
C0C0
C0C0
E1C0
7F80
3D80
0180
C180
C300
FE00
3800
ENDCHAR
STARTCHAR 0120
ENCODING 288
SWIDTH 765 0
DWIDTH 17 0
BBX 15 19 2 0
BITMAP
00E0
00E0
0000
03F0
0FF8
1C0C
300E
7006
6000
6000
E000
C1FC
C1FC
C00C
E00C
6018
7018
3DF8
1FE0
ENDCHAR
STARTCHAR 0121
ENCODING 289
SWIDTH 540 0
DWIDTH 12 0
BBX 12 21 1 -5
BITMAP
0380
0300
0300
0000
0E30
1FA0
30E0
60E0
6060
C040
C0C0
C0C0
C0C0
E1C0
7F80
3D80
0180
C180
C300
FE00
3800
ENDCHAR
STARTCHAR 0122
ENCODING 290
SWIDTH 765 0
DWIDTH 17 0
BBX 15 21 2 -5
BITMAP
03F0
0FF8
1C0C
300E
7006
6000
6000
E000
C1FC
C1FC
C00C
E00C
6018
7018
3DF8
1FE0
0400
0F00
0300
1F00
1C00
ENDCHAR
STARTCHAR 0123
ENCODING 291
SWIDTH 540 0
DWIDTH 12 0
BBX 12 22 1 -5
BITMAP
0100
0200
0300
0700
0000
0E30
1FA0
30E0
60E0
6060
C040
C0C0
C0C0
C0C0
61C0
7F80
3D80
0180
C180
C300
FE00
3800
ENDCHAR
STARTCHAR 0124
ENCODING 292
SWIDTH 720 0
DWIDTH 16 0
BBX 16 20 1 0
BITMAP
0070
00F0
0198
0000
1803
1806
1806
1806
3006
300E
300C
3FFC
7FFC
600C
601C
6018
6018
E018
C018
C038
ENDCHAR
STARTCHAR 0125
ENCODING 293
SWIDTH 540 0
DWIDTH 12 0
BBX 11 20 1 0
BITMAP
0180
03C0
0640
0000
1800
1800
1800
3000
3380
37C0
3860
3060
6060
60C0
60C0
60C0
C0C0
C080
C180
C180
ENDCHAR
STARTCHAR 0126
ENCODING 294
SWIDTH 720 0
DWIDTH 16 0
BBX 17 16 1 0
BITMAP
180300
180600
180600
7FFF80
300600
300E00
300C00
3FFC00
7FFC00
600C00
601C00
601800
601800
E01800
C01800
C03800
ENDCHAR
STARTCHAR 0127
ENCODING 295
SWIDTH 540 0
DWIDTH 12 0
BBX 11 16 1 0
BITMAP
1800
1800
7F00
3000
3380
37C0
3860
3060
6060
60C0
60C0
60C0
C0C0
C080
C180
C180
ENDCHAR
STARTCHAR 0128
ENCODING 296
SWIDTH 270 0
DWIDTH 6 0
BBX 9 19 1 0
BITMAP
3D80
2700
0000
0C00
1800
1800
1800
1800
3800
3000
3000
3000
3000
7000
6000
6000
6000
6000
C000
ENDCHAR
STARTCHAR 0129
ENCODING 297
SWIDTH 270 0
DWIDTH 6 0
BBX 7 16 1 0
BITMAP
62
FE
8C
00
30
30
30
60
60
60
60
60
C0
C0
C0
C0
ENDCHAR
STARTCHAR 012A
ENCODING 298
SWIDTH 270 0
DWIDTH 6 0
BBX 8 19 1 0
BITMAP
3F
3F
00
0C
18
18
18
18
38
30
30
30
30
70
60
60
60
60
C0
ENDCHAR
STARTCHAR 012B
ENCODING 299
SWIDTH 270 0
DWIDTH 6 0
BBX 7 15 1 0
BITMAP
FE
FE
00
30
30
30
60
60
60
60
60
C0
C0
C0
C0
ENDCHAR
STARTCHAR 012C
ENCODING 300
SWIDTH 270 0
DWIDTH 6 0
BBX 9 20 1 0
BITMAP
2180
3300
1E00
0000
0C00
1800
1800
1800
1800
3800
3000
3000
3000
3000
7000
6000
6000
6000
6000
C000
ENDCHAR
STARTCHAR 012D
ENCODING 301
SWIDTH 270 0
DWIDTH 6 0
BBX 7 15 1 0
BITMAP
46
7C
00
30
30
30
60
60
60
60
60
C0
C0
C0
C0
ENDCHAR
STARTCHAR 012E
ENCODING 302
SWIDTH 270 0
DWIDTH 6 0
BBX 6 21 1 -5
BITMAP
0C
18
18
18
18
38
30
30
30
30
70
60
60
60
60
C0
80
80
80
F0
60
ENDCHAR
STARTCHAR 012F
ENCODING 303
SWIDTH 225 0
DWIDTH 5 0
BBX 6 21 0 -5
BITMAP
0C
0C
00
00
18
18
18
30
30
30
30
30
60
60
60
60
C0
80
80
F0
60
ENDCHAR
STARTCHAR 0130
ENCODING 304
SWIDTH 270 0
DWIDTH 6 0
BBX 6 19 1 0
BITMAP
0C
0C
00
0C
18
18
18
18
38
30
30
30
30
70
60
60
60
60
C0
ENDCHAR
STARTCHAR 0131
ENCODING 305
SWIDTH 270 0
DWIDTH 6 0
BBX 5 12 1 0
BITMAP
18
18
30
30
30
30
60
60
60
60
60
C0
ENDCHAR
STARTCHAR 0132
ENCODING 306
SWIDTH 720 0
DWIDTH 16 0
BBX 16 16 1 0
BITMAP
0C03
1803
1807
1806
1806
3806
3006
300E
300C
300C
700C
660C
6618
6618
67F8
C3F0
ENDCHAR
STARTCHAR 0133
ENCODING 307
SWIDTH 450 0
DWIDTH 10 0
BBX 10 21 1 -5
BITMAP
18C0
18C0
0000
0000
3180
3180
3180
6300
6300
6300
6300
6300
C600
C600
C600
C600
0600
0C00
0C00
3800
3000
ENDCHAR
STARTCHAR 0134
ENCODING 308
SWIDTH 495 0
DWIDTH 11 0
BBX 13 20 1 0
BITMAP
0070
00F0
0198
0000
0060
00E0
00C0
00C0
00C0
00C0
01C0
0180
0180
0180
0180
C380
C300
C300
FE00
7C00
ENDCHAR
STARTCHAR 0135
ENCODING 309
SWIDTH 225 0
DWIDTH 5 0
BBX 10 21 -3 -5
BITMAP
0380
06C0
06C0
0800
0300
0300
0300
0600
0600
0600
0600
0600
0C00
0C00
0C00
0C00
0C00
1800
1800
F000
6000
ENDCHAR
STARTCHAR 0136
ENCODING 310
SWIDTH 675 0
DWIDTH 15 0
BBX 15 21 1 -5
BITMAP
180E
181C
1838
1870
38C0
3380
3700
3F80
3D80
79C0
70C0
6060
6060
6030
C038
C018
0000
0F00
0300
1F00
3C00
ENDCHAR
STARTCHAR 0137
ENCODING 311
SWIDTH 495 0
DWIDTH 11 0
BBX 11 21 1 -5
BITMAP
1800
1800
1800
3000
3060
30C0
3180
2300
6600
7E00
7600
6600
C300
C300
C180
C180
0000
3C00
0C00
7C00
7000
ENDCHAR
STARTCHAR 0138
ENCODING 312
SWIDTH 495 0
DWIDTH 11 0
BBX 11 12 1 0
BITMAP
3060
30C0
3180
2300
6600
7E00
7600
6600
C300
C300
C180
C180
ENDCHAR
STARTCHAR 0139
ENCODING 313
SWIDTH 540 0
DWIDTH 12 0
BBX 11 20 1 0
BITMAP
0380
0300
0600
0000
1800
1800
1800
3800
3000
3000
3000
3000
7000
6000
6000
6000
6000
E000
FFE0
FFC0
ENDCHAR
STARTCHAR 013A
ENCODING 314
SWIDTH 225 0
DWIDTH 5 0
BBX 7 20 1 0
BITMAP
0E
1C
18
00
18
18
30
30
30
30
30
60
60
60
60
40
C0
C0
C0
C0
ENDCHAR
STARTCHAR 013B
ENCODING 315
SWIDTH 540 0
DWIDTH 12 0
BBX 11 21 1 -5
BITMAP
1800
1800
1800
3800
3000
3000
3000
3000
7000
6000
6000
6000
6000
E000
FFE0
FFC0
0000
1C00
0600
7C00
7800
ENDCHAR
STARTCHAR 013C
ENCODING 316
SWIDTH 225 0
DWIDTH 5 0
BBX 7 21 -1 -5
BITMAP
06
06
0C
0C
0C
0C
0C
18
18
18
18
10
30
30
30
30
00
78
18
F8
E0
ENDCHAR
STARTCHAR 013D
ENCODING 317
SWIDTH 540 0
DWIDTH 12 0
BBX 11 16 1 0
BITMAP
1860
1860
1820
3820
3040
3000
3000
3000
7000
6000
6000
6000
6000
E000
FFE0
FFC0
ENDCHAR
STARTCHAR 013E
ENCODING 318
SWIDTH 270 0
DWIDTH 6 0
BBX 8 16 1 0
BITMAP
1B
1B
32
32
34
30
30
60
60
60
60
60
C0
C0
C0
C0
ENDCHAR
STARTCHAR 013F
ENCODING 319
SWIDTH 540 0
DWIDTH 12 0
BBX 11 16 1 0
BITMAP
1800
1800
1800
3800
3000
3000
3000
30C0
71C0
6000
6000
6000
6000
E000
FFE0
FFC0
ENDCHAR
STARTCHAR 0140
ENCODING 320
SWIDTH 405 0
DWIDTH 9 0
BBX 7 16 1 0
BITMAP
18
18
30
30
30
30
30
66
66
60
60
40
C0
C0
C0
C0
ENDCHAR
STARTCHAR 0141
ENCODING 321
SWIDTH 540 0
DWIDTH 12 0
BBX 12 16 0 0
BITMAP
0C00
0C00
0C00
0C00
1880
1980
1F00
1C00
7800
F000
3000
3000
3000
7000
7FF0
7FE0
ENDCHAR
STARTCHAR 0142
ENCODING 322
SWIDTH 225 0
DWIDTH 5 0
BBX 5 16 1 0
BITMAP
18
18
30
30
30
30
38
70
E0
E0
60
60
C0
C0
C0
C0
ENDCHAR
STARTCHAR 0143
ENCODING 323
SWIDTH 720 0
DWIDTH 16 0
BBX 16 20 1 0
BITMAP
0070
0060
00C0
0000
1C03
1C07
1E06
1E06
3E06
3306
330C
318C
318C
70CC
60CC
60D8
6078
6078
C038
C038
ENDCHAR
STARTCHAR 0144
ENCODING 324
SWIDTH 540 0
DWIDTH 12 0
BBX 11 16 1 0
BITMAP
0180
0300
0200
0000
3380
37C0
3860
3060
6060
60C0
60C0
60C0
C0C0
C080
C180
C180
ENDCHAR
STARTCHAR 0145
ENCODING 325
SWIDTH 720 0
DWIDTH 16 0
BBX 16 21 1 -5
BITMAP
1C03
1C07
1E06
1E06
3E06
3306
330C
318C
318C
70CC
60CC
60D8
6078
6078
C038
C038
0000
0700
0180
1F00
1C00
ENDCHAR
STARTCHAR 0146
ENCODING 326
SWIDTH 540 0
DWIDTH 12 0
BBX 11 17 1 -5
BITMAP
3380
37C0
3860
3060
6060
60C0
60C0
60C0
C0C0
C080
C180
C180
0000
1C00
0600
7C00
7800
ENDCHAR
STARTCHAR 0147
ENCODING 327
SWIDTH 720 0
DWIDTH 16 0
BBX 16 20 1 0
BITMAP
0198
01B0
00E0
0000
1C03
1C07
1E06
1E06
3E06
3306
330C
318C
318C
70CC
60CC
60D8
6078
6078
C038
C038
ENDCHAR
STARTCHAR 0148
ENCODING 328
SWIDTH 540 0
DWIDTH 12 0
BBX 11 16 1 0
BITMAP
04C0
0780
0700
0000
3380
37C0
3860
3060
6060
60C0
60C0
60C0
C0C0
C080
C180
C180
ENDCHAR
STARTCHAR 0149
ENCODING 329
SWIDTH 630 0
DWIDTH 14 0
BBX 12 16 1 0
BITMAP
6000
6000
2000
2000
48E0
9BF0
1C30
1830
1830
3030
3030
3060
3060
3060
6060
60C0
ENDCHAR
STARTCHAR 014A
ENCODING 330
SWIDTH 720 0
DWIDTH 16 0
BBX 15 16 1 0
BITMAP
19F0
1BFC
1E0C
1C0E
380E
3006
3006
3006
300E
700C
600C
600C
601C
6038
C3F0
C3E0
ENDCHAR
STARTCHAR 014B
ENCODING 331
SWIDTH 540 0
DWIDTH 12 0
BBX 11 17 1 -5
BITMAP
3380
37C0
3860
3060
7060
60C0
60C0
60C0
40C0
C0C0
C180
C180
0180
0180
0300
0F00
0600
ENDCHAR
STARTCHAR 014C
ENCODING 332
SWIDTH 765 0
DWIDTH 17 0
BBX 15 19 2 0
BITMAP
03F8
03F0
0000
07F0
0FF8
381C
300C
6006
6006
E006
C006
C006
C006
C00E
C00C
601C
7038
3FF0
1FC0
ENDCHAR
STARTCHAR 014D
ENCODING 333
SWIDTH 540 0
DWIDTH 12 0
BBX 11 15 1 0
BITMAP
0FE0
0FC0
0000
0F00
1FC0
30C0
6060
6060
C060
C060
C060
C0C0
E1C0
7380
3F00
ENDCHAR
STARTCHAR 014E
ENCODING 334
SWIDTH 765 0
DWIDTH 17 0
BBX 15 20 2 0
BITMAP
0218
0330
01E0
0000
07F0
0FF8
381C
300C
6006
6006
E006
C006
C006
C006
C00E
C00C
601C
7038
3FF0
1FC0
ENDCHAR
STARTCHAR 014F
ENCODING 335
SWIDTH 540 0
DWIDTH 12 0
BBX 11 15 1 0
BITMAP
0C40
0780
0000
0F00
1FC0
30C0
6060
6060
C060
C060
C060
C0C0
E1C0
7380
3F00
ENDCHAR
STARTCHAR 0150
ENCODING 336
SWIDTH 765 0
DWIDTH 17 0
BBX 15 20 2 0
BITMAP
00DC
01B8
0330
0000
07F0
0FF8
381C
300C
6006
6006
E006
C006
C006
C006
C00E
C00C
601C
7038
3FF0
1FC0
ENDCHAR
STARTCHAR 0151
ENCODING 337
SWIDTH 540 0
DWIDTH 12 0
BBX 12 16 1 0
BITMAP
0370
06E0
0CC0
0000
0F00
1FC0
30C0
6060
6060
C060
C060
C060
C0C0
E1C0
7380
3F00
ENDCHAR
STARTCHAR 0152
ENCODING 338
SWIDTH 990 0
DWIDTH 22 0
BBX 21 16 2 0
BITMAP
07CFF8
1FEFF8
383C00
701C00
601800
E01800
C01800
C01FF0
C03FF0
C03000
C03000
C03000
C07000
60E000
7BFFE0
3F7FE0
ENDCHAR
STARTCHAR 0153
ENCODING 339
SWIDTH 945 0
DWIDTH 21 0
BBX 19 12 1 0
BITMAP
070780
1FDFC0
30F860
607060
606020
607FE0
C07FE0
C06000
C0E060
60E0C0
73B380
3F1F00
ENDCHAR
STARTCHAR 0154
ENCODING 340
SWIDTH 720 0
DWIDTH 16 0
BBX 15 20 1 0
BITMAP
00E0
00C0
0180
0000
1FF8
1FFE
1806
1806
3806
3006
300E
3FFC
3FF0
70E0
6060
6030
6038
6018
C018
C01C
ENDCHAR
STARTCHAR 0155
ENCODING 341
SWIDTH 315 0
DWIDTH 7 0
BBX 8 16 1 0
BITMAP
07
06
0C
00
33
3F
28
30
60
60
60
60
C0
C0
C0
C0
ENDCHAR
STARTCHAR 0156
ENCODING 342
SWIDTH 720 0
DWIDTH 16 0
BBX 15 21 1 -5
BITMAP
1FF8
1FFE
1806
1806
3806
3006
300E
3FFC
3FF0
70E0
6060
6030
6038
6018
C018
C01C
0000
0700
0180
1F00
1C00
ENDCHAR
STARTCHAR 0157
ENCODING 343
SWIDTH 315 0
DWIDTH 7 0
BBX 10 17 -1 -5
BITMAP
0CC0
0FC0
0A00
0C00
1800
1800
1800
1800
3000
3000
3000
3000
0000
3C00
0C00
7C00
F000
ENDCHAR
STARTCHAR 0158
ENCODING 344
SWIDTH 720 0
DWIDTH 16 0
BBX 15 20 1 0
BITMAP
0330
0160
01C0
0000
1FF8
1FFE
1806
1806
3806
3006
300E
3FFC
3FF0
70E0
6060
6030
6038
6018
C018
C01C
ENDCHAR
STARTCHAR 0159
ENCODING 345
SWIDTH 315 0
DWIDTH 7 0
BBX 9 16 1 0
BITMAP
1980
1B00
0E00
0000
3300
3F00
2800
3000
6000
6000
6000
6000
C000
C000
C000
C000
ENDCHAR
STARTCHAR 015A
ENCODING 346
SWIDTH 675 0
DWIDTH 15 0
BBX 13 20 2 0
BITMAP
00C0
0180
0300
0000
0FC0
3FF0
3030
3018
3018
3000
3C00
0F00
03C0
00E0
0070
C030
C030
E060
7BE0
3F80
ENDCHAR
STARTCHAR 015B
ENCODING 347
SWIDTH 495 0
DWIDTH 11 0
BBX 10 16 1 0
BITMAP
0380
0300
0600
0000
0F00
3F80
30C0
20C0
3000
3E00
0F00
0380
C180
C180
E380
3F00
ENDCHAR
STARTCHAR 015C
ENCODING 348
SWIDTH 675 0
DWIDTH 15 0
BBX 13 20 2 0
BITMAP
01C0
0340
0660
0000
0FC0
3FF0
3030
3018
3018
3000
3C00
0F00
03C0
00E0
0070
C030
C030
E060
7BE0
3F80
ENDCHAR
STARTCHAR 015D
ENCODING 349
SWIDTH 495 0
DWIDTH 11 0
BBX 10 16 1 0
BITMAP
0380
0780
0C80
0000
0F00
3F80
30C0
20C0
3000
3E00
0F00
0380
C180
C180
E380
3F00
ENDCHAR
STARTCHAR 015E
ENCODING 350
SWIDTH 675 0
DWIDTH 15 0
BBX 13 21 2 -5
BITMAP
0FC0
3FF0
3030
3018
3018
3000
3C00
0F00
03C0
00E0
0070
C030
C030
E060
7BE0
3F80
0800
1C00
0600
3E00
3800
ENDCHAR
STARTCHAR 015F
ENCODING 351
SWIDTH 495 0
DWIDTH 11 0
BBX 10 16 1 -4
BITMAP
0F00
3F80
30C0
20C0
3000
3E00
0F00
0380
C180
C180
E380
3F00
1800
0C00
0600
7C00
ENDCHAR
STARTCHAR 0160
ENCODING 352
SWIDTH 675 0
DWIDTH 15 0
BBX 13 20 2 0
BITMAP
0660
02C0
0380
0000
0FC0
3FF0
3030
3018
3018
3000
3C00
0F00
03C0
00E0
0070
C030
C030
E060
7BE0
3F80
ENDCHAR
STARTCHAR 0161
ENCODING 353
SWIDTH 495 0
DWIDTH 11 0
BBX 10 16 1 0
BITMAP
0CC0
0D80
0700
0000
0F00
3F80
30C0
20C0
3000
3E00
0F00
0380
C180
C180
E380
3F00
ENDCHAR
STARTCHAR 0162
ENCODING 354
SWIDTH 630 0
DWIDTH 14 0
BBX 13 22 3 -6
BITMAP
FFF8
FFF0
0600
0600
0E00
0C00
0C00
0C00
0C00
1C00
1800
1800
1800
1800
3000
3000
0000
3000
3000
7000
2000
4000
ENDCHAR
STARTCHAR 0163
ENCODING 355
SWIDTH 270 0
DWIDTH 6 0
BBX 6 21 1 -5
BITMAP
18
18
30
7C
FC
30
30
60
60
60
60
60
C0
E0
70
00
60
60
40
40
80
ENDCHAR
STARTCHAR 0164
ENCODING 356
SWIDTH 630 0
DWIDTH 14 0
BBX 13 20 3 0
BITMAP
0CC0
0D80
0700
0000
FFF8
FFF0
0600
0600
0E00
0C00
0C00
0C00
0C00
1C00
1800
1800
1800
1800
3000
3000
ENDCHAR
STARTCHAR 0165
ENCODING 357
SWIDTH 360 0
DWIDTH 8 0
BBX 9 16 1 0
BITMAP
0180
1980
1880
3080
7D00
FC00
3000
3000
6000
6000
6000
6000
C000
C000
E000
7000
ENDCHAR
STARTCHAR 0166
ENCODING 358
SWIDTH 630 0
DWIDTH 14 0
BBX 13 16 3 0
BITMAP
FFF8
FFF0
0600
0600
0E00
0C00
0C00
0C00
FFC0
1C00
1800
1800
1800
1800
3000
3000
ENDCHAR
STARTCHAR 0167
ENCODING 359
SWIDTH 270 0
DWIDTH 6 0
BBX 7 15 0 1
BITMAP
0C
0C
18
3E
7E
18
18
30
7C
FC
30
30
60
70
38
ENDCHAR
STARTCHAR 0168
ENCODING 360
SWIDTH 720 0
DWIDTH 16 0
BBX 15 19 2 0
BITMAP
03D8
0270
0000
3006
300C
300C
300C
700C
601C
6018
6018
6018
E018
C038
C030
C030
6060
7FC0
3F80
ENDCHAR
STARTCHAR 0169
ENCODING 361
SWIDTH 540 0
DWIDTH 12 0
BBX 11 16 1 0
BITMAP
0620
0FE0
08C0
0000
3060
3060
3060
2060
6060
60C0
60C0
60C0
C1C0
C180
6780
7D80
ENDCHAR
STARTCHAR 016A
ENCODING 362
SWIDTH 720 0
DWIDTH 16 0
BBX 15 19 2 0
BITMAP
03F0
07F0
0000
3006
300C
300C
300C
700C
601C
6018
6018
6018
E018
C038
C030
C030
6060
7FC0
3F80
ENDCHAR
STARTCHAR 016B
ENCODING 363
SWIDTH 540 0
DWIDTH 12 0
BBX 11 15 1 0
BITMAP
0FE0
0FC0
0000
3060
3060
3060
2060
6060
60C0
60C0
60C0
C1C0
C180
6780
7D80
ENDCHAR
STARTCHAR 016C
ENCODING 364
SWIDTH 720 0
DWIDTH 16 0
BBX 15 20 2 0
BITMAP
0210
0330
01E0
0000
3006
300C
300C
300C
700C
601C
6018
6018
6018
E018
C038
C030
C030
6060
7FC0
3F80
ENDCHAR
STARTCHAR 016D
ENCODING 365
SWIDTH 540 0
DWIDTH 12 0
BBX 11 15 1 0
BITMAP
0C40
0780
0000
3060
3060
3060
2060
6060
60C0
60C0
60C0
C1C0
C180
6780
7D80
ENDCHAR
STARTCHAR 016E
ENCODING 366
SWIDTH 720 0
DWIDTH 16 0
BBX 15 20 2 0
BITMAP
01C0
0140
0220
01C0
3006
300C
300C
300C
700C
601C
6018
6018
6018
E018
C038
C030
C030
6060
7FC0
3F80
ENDCHAR
STARTCHAR 016F
ENCODING 367
SWIDTH 540 0
DWIDTH 12 0
BBX 11 16 1 0
BITMAP
0700
0480
0480
0300
3060
3060
3060
2060
6060
60C0
60C0
60C0
C1C0
C180
6780
7D80
ENDCHAR
STARTCHAR 0170
ENCODING 368
SWIDTH 720 0
DWIDTH 16 0
BBX 15 20 2 0
BITMAP
01D8
01B0
0320
0000
3006
300C
300C
300C
700C
601C
6018
6018
6018
E018
C038
C030
C030
6060
7FC0
3F80
ENDCHAR
STARTCHAR 0171
ENCODING 369
SWIDTH 540 0
DWIDTH 12 0
BBX 11 16 1 0
BITMAP
0760
06C0
0D80
0000
3060
3060
3060
2060
6060
60C0
60C0
60C0
C1C0
C180
6780
7D80
ENDCHAR
STARTCHAR 0172
ENCODING 370
SWIDTH 720 0
DWIDTH 16 0
BBX 15 21 2 -5
BITMAP
3006
300C
300C
300C
700C
601C
6018
6018
6018
E018
C038
C030
C030
6060
7FC0
3F80
0400
0C00
0C00
0F80
0600
ENDCHAR
STARTCHAR 0173
ENCODING 371
SWIDTH 540 0
DWIDTH 12 0
BBX 11 17 1 -5
BITMAP
3060
3060
3060
2060
6060
60C0
60C0
60C0
C1C0
C180
6780
7D80
0100
0100
0100
01E0
0080
ENDCHAR
STARTCHAR 0174
ENCODING 372
SWIDTH 945 0
DWIDTH 21 0
BBX 20 20 3 0
BITMAP
003000
007800
00D800
000000
C06030
C0E030
C0E060
C1B060
C1B0C0
C3B0C0
C33180
C63180
C63300
CC3300
CC3600
D83600
583C00
703C00
703800
603800
ENDCHAR
STARTCHAR 0175
ENCODING 373
SWIDTH 720 0
DWIDTH 16 0
BBX 15 16 2 0
BITMAP
01C0
03C0
0660
0000
C386
C386
C38C
C78C
C598
CD98
C9B0
D9B0
59A0
51E0
71C0
60C0
ENDCHAR
STARTCHAR 0176
ENCODING 374
SWIDTH 675 0
DWIDTH 15 0
BBX 14 20 3 0
BITMAP
0380
0680
0CC0
0000
C01C
E018
6030
7070
30E0
39C0
1980
1B80
0F00
0E00
0C00
0C00
0C00
0C00
0C00
1800
ENDCHAR
STARTCHAR 0177
ENCODING 375
SWIDTH 495 0
DWIDTH 11 0
BBX 12 21 0 -5
BITMAP
0180
03C0
06C0
0000
3030
3030
3060
1060
18C0
18C0
1980
1980
1B00
0E00
0E00
0C00
0C00
1800
3800
F000
C000
ENDCHAR
STARTCHAR 0178
ENCODING 376
SWIDTH 675 0
DWIDTH 15 0
BBX 14 19 3 0
BITMAP
0CC0
0CC0
0000
C01C
E018
6030
7070
30E0
39C0
1980
1B80
0F00
0E00
0C00
0C00
0C00
0C00
0C00
1800
ENDCHAR
STARTCHAR 0179
ENCODING 377
SWIDTH 630 0
DWIDTH 14 0
BBX 13 20 1 0
BITMAP
00C0
0180
0300
0000
3FF8
3FF8
0030
0060
00E0
01C0
0380
0300
0600
0C00
1C00
3800
7000
E000
FFF0
FFE0
ENDCHAR
STARTCHAR 017A
ENCODING 378
SWIDTH 495 0
DWIDTH 11 0
BBX 10 16 1 0
BITMAP
0300
0600
0400
0000
7FC0
7FC0
0180
0380
0700
0E00
1C00
3800
3000
6000
FF80
FF80
ENDCHAR
STARTCHAR 017B
ENCODING 379
SWIDTH 630 0
DWIDTH 14 0
BBX 13 19 1 0
BITMAP
0180
0380
0000
3FF8
3FF8
0030
0060
00E0
01C0
0380
0300
0600
0C00
1C00
3800
7000
E000
FFF0
FFE0
ENDCHAR
STARTCHAR 017C
ENCODING 380
SWIDTH 495 0
DWIDTH 11 0
BBX 10 16 1 0
BITMAP
0700
0600
0600
0000
7FC0
7FC0
0180
0380
0700
0E00
1C00
3800
3000
6000
FF80
FF80
ENDCHAR
STARTCHAR 017D
ENCODING 381
SWIDTH 630 0
DWIDTH 14 0
BBX 13 20 1 0
BITMAP
0660
06C0
0380
0000
3FF8
3FF8
0030
0060
00E0
01C0
0380
0300
0600
0C00
1C00
3800
7000
E000
FFF0
FFE0
ENDCHAR
STARTCHAR 017E
ENCODING 382
SWIDTH 495 0
DWIDTH 11 0
BBX 10 16 1 0
BITMAP
0980
0F00
0E00
0000
7FC0
7FC0
0180
0380
0700
0E00
1C00
3800
3000
6000
FF80
FF80
ENDCHAR
STARTCHAR 017F
ENCODING 383
SWIDTH 225 0
DWIDTH 5 0
BBX 8 16 1 0
BITMAP
1F
1E
30
30
30
30
30
60
60
60
60
40
C0
C0
C0
C0
ENDCHAR
STARTCHAR 018F
ENCODING 399
SWIDTH 765 0
DWIDTH 17 0
BBX 15 16 2 0
BITMAP
07E0
0FF8
1818
300C
300C
000C
000E
FFFC
FFFC
C00C
C00C
C018
6038
6070
39E0
1FC0
ENDCHAR
STARTCHAR 0192
ENCODING 402
SWIDTH 540 0
DWIDTH 12 0
BBX 11 21 1 -5
BITMAP
03E0
03C0
0600
0600
1F80
1F80
0600
0600
0C00
0C00
0C00
0C00
0C00
0800
1800
1800
1800
1800
1800
F000
E000
ENDCHAR
STARTCHAR 01A0
ENCODING 416
SWIDTH 810 0
DWIDTH 18 0
BBX 18 16 2 0
BITMAP
07F0C0
1FF9C0
381C80
300C80
600700
600600
E00600
C00600
C00600
C00600
C00E00
C00C00
601C00
703800
3FF000
1FC000
ENDCHAR
STARTCHAR 01A1
ENCODING 417
SWIDTH 585 0
DWIDTH 13 0
BBX 14 12 1 0
BITMAP
0F0C
1FCC
30DC
6068
6068
C070
C060
C060
C0C0
E1C0
7380
3F00
ENDCHAR
STARTCHAR 01AF
ENCODING 431
SWIDTH 810 0
DWIDTH 18 0
BBX 18 16 2 0
BITMAP
3006C0
300CC0
300C40
300C40
700C80
601F00
601800
601800
601800
E01800
C03800
C03000
C03000
606000
7FE000
3F8000
ENDCHAR
STARTCHAR 01B0
ENCODING 432
SWIDTH 630 0
DWIDTH 14 0
BBX 15 12 1 0
BITMAP
3066
3066
306E
2064
6064
60F8
60C0
60C0
C1C0
C180
6780
7D80
ENDCHAR
STARTCHAR 01CD
ENCODING 461
SWIDTH 675 0
DWIDTH 15 0
BBX 14 20 0 0
BITMAP
008C
00D8
0070
0000
00E0
00E0
01A0
01B0
0330
0330
0630
0E30
0C30
1C18
1FF8
3018
3018
6018
E018
C00C
ENDCHAR
STARTCHAR 01CE
ENCODING 462
SWIDTH 540 0
DWIDTH 12 0
BBX 11 16 1 0
BITMAP
04C0
0780
0700
0000
0F00
1FC0
30E0
6060
0060
1FC0
7EC0
C0C0
C0C0
C1C0
E780
7CC0
ENDCHAR
STARTCHAR 01CF
ENCODING 463
SWIDTH 270 0
DWIDTH 6 0
BBX 9 20 1 0
BITMAP
1380
1B00
1E00
0000
0C00
1800
1800
1800
1800
3800
3000
3000
3000
3000
7000
6000
6000
6000
6000
C000
ENDCHAR
STARTCHAR 01D0
ENCODING 464
SWIDTH 225 0
DWIDTH 5 0
BBX 7 16 1 0
BITMAP
66
2C
38
00
30
30
30
60
60
60
60
60
C0
C0
C0
C0
ENDCHAR
STARTCHAR 01D1
ENCODING 465
SWIDTH 765 0
DWIDTH 17 0
BBX 15 20 2 0
BITMAP
0330
01E0
01C0
0000
07F0
0FF8
381C
300C
6006
6006
E006
C006
C006
C006
C00E
C00C
601C
7038
3FF0
1FC0
ENDCHAR
STARTCHAR 01D2
ENCODING 466
SWIDTH 540 0
DWIDTH 12 0
BBX 11 16 1 0
BITMAP
04C0
0780
0700
0000
0F00
1FC0
30C0
6060
6060
C060
C060
C060
C0C0
E1C0
7380
3F00
ENDCHAR
STARTCHAR 01D3
ENCODING 467
SWIDTH 720 0
DWIDTH 16 0
BBX 15 20 2 0
BITMAP
0330
0160
01C0
0000
3006
300C
300C
300C
700C
601C
6018
6018
6018
E018
C038
C030
C030
6060
7FC0
3F80
ENDCHAR
STARTCHAR 01D4
ENCODING 468
SWIDTH 540 0
DWIDTH 12 0
BBX 11 16 1 0
BITMAP
0660
06C0
0380
0000
3060
3060
3060
2060
6060
60C0
60C0
60C0
C1C0
C180
6780
7D80
ENDCHAR
STARTCHAR 01D5
ENCODING 469
SWIDTH 720 0
DWIDTH 16 0
BBX 15 20 2 0
BITMAP
01F0
0000
0330
0230
3006
300C
300C
300C
700C
601C
6018
6018
6018
E018
C038
C030
C030
6060
7FC0
3F80
ENDCHAR
STARTCHAR 01D6
ENCODING 470
SWIDTH 540 0
DWIDTH 12 0
BBX 11 19 1 0
BITMAP
07E0
0FE0
0000
0CC0
0CC0
0CC0
0000
3060
3060
3060
2060
6060
60C0
60C0
60C0
C1C0
C180
6780
7D80
ENDCHAR
STARTCHAR 01D7
ENCODING 471
SWIDTH 720 0
DWIDTH 16 0
BBX 15 20 2 0
BITMAP
0060
00C0
0330
0230
3006
300C
300C
300C
700C
601C
6018
6018
6018
E018
C038
C030
C030
6060
7FC0
3F80
ENDCHAR
STARTCHAR 01D8
ENCODING 472
SWIDTH 540 0
DWIDTH 12 0
BBX 11 20 1 0
BITMAP
00E0
00C0
0180
0000
0CC0
0CC0
0CC0
0000
3060
3060
3060
2060
6060
60C0
60C0
60C0
C1C0
C180
6780
7D80
ENDCHAR
STARTCHAR 01D9
ENCODING 473
SWIDTH 720 0
DWIDTH 16 0
BBX 15 20 2 0
BITMAP
01A0
00C0
0330
0230
3006
300C
300C
300C
700C
601C
6018
6018
6018
E018
C038
C030
C030
6060
7FC0
3F80
ENDCHAR
STARTCHAR 01DA
ENCODING 474
SWIDTH 540 0
DWIDTH 12 0
BBX 11 20 1 0
BITMAP
0260
03C0
0380
0000
0CC0
0CC0
0CC0
0000
3060
3060
3060
2060
6060
60C0
60C0
60C0
C1C0
C180
6780
7D80
ENDCHAR
STARTCHAR 01DB
ENCODING 475
SWIDTH 720 0
DWIDTH 16 0
BBX 15 20 2 0
BITMAP
0180
00C0
0330
0230
3006
300C
300C
300C
700C
601C
6018
6018
6018
E018
C038
C030
C030
6060
7FC0
3F80
ENDCHAR
STARTCHAR 01DC
ENCODING 476
SWIDTH 540 0
DWIDTH 12 0
BBX 11 20 1 0
BITMAP
0300
0300
0180
0000
0CC0
0CC0
0CC0
0000
3060
3060
3060
2060
6060
60C0
60C0
60C0
C1C0
C180
6780
7D80
ENDCHAR
STARTCHAR 01FA
ENCODING 506
SWIDTH 675 0
DWIDTH 15 0
BBX 14 22 0 0
BITMAP
0018
0030
0020
0070
0090
0090
00E0
00E0
01A0
01B0
0330
0330
0630
0E30
0C30
1C18
1FF8
3018
3018
6018
E018
C00C
ENDCHAR
STARTCHAR 01FB
ENCODING 507
SWIDTH 540 0
DWIDTH 12 0
BBX 11 20 1 0
BITMAP
00C0
0180
0300
0000
0700
0480
0480
0300
0F00
1FC0
30E0
6060
0060
1FC0
7EC0
C0C0
C0C0
C1C0
E780
7CC0
ENDCHAR
STARTCHAR 01FC
ENCODING 508
SWIDTH 990 0
DWIDTH 22 0
BBX 24 20 -1 0
BITMAP
000180
000300
000200
000000
003FFF
007FFF
00E600
00C600
018600
018600
030E00
070FFE
060FFE
0C0C00
1FFC00
181C00
381800
301800
601FFC
E01FFC
ENDCHAR
STARTCHAR 01FD
ENCODING 509
SWIDTH 900 0
DWIDTH 20 0
BBX 18 16 1 0
BITMAP
001800
003000
006000
000000
0F0E00
1FFF80
30F0C0
60E0C0
00C0C0
1FFFC0
7EFFC0
C0C000
C1C180
C1C180
E6E700
7C3E00
ENDCHAR
STARTCHAR 01FE
ENCODING 510
SWIDTH 765 0
DWIDTH 17 0
BBX 15 21 2 -1
BITMAP
0070
0060
00C0
0002
07F6
0FFC
381C
301C
6026
6066
E0C6
C186
C306
C206
C40E
CC0C
781C
7038
7FF0
5FC0
8000
ENDCHAR
STARTCHAR 01FF
ENCODING 511
SWIDTH 630 0
DWIDTH 14 0
BBX 11 17 2 -1
BITMAP
0180
0300
0200
0000
0F60
3FC0
70C0
6160
C360
C660
CC60
C8C0
D0C0
F180
6380
FE00
8000
ENDCHAR
STARTCHAR 0218
ENCODING 536
SWIDTH 675 0
DWIDTH 15 0
BBX 13 22 2 -6
BITMAP
0FC0
3FF0
3030
3018
3018
3000
3C00
0F00
03C0
00E0
0070
C030
C030
E060
7BE0
3F80
0000
0C00
0C00
0400
0800
1000
ENDCHAR
STARTCHAR 0219
ENCODING 537
SWIDTH 495 0
DWIDTH 11 0
BBX 10 18 1 -6
BITMAP
0F00
3F80
30C0
20C0
3000
3E00
0F00
0380
C180
C180
E380
3F00
0000
1800
1800
0800
1000
2000
ENDCHAR
STARTCHAR 021A
ENCODING 538
SWIDTH 630 0
DWIDTH 14 0
BBX 13 22 3 -6
BITMAP
FFF8
FFF0
0600
0600
0E00
0C00
0C00
0C00
0C00
1C00
1800
1800
1800
1800
3000
3000
0000
3000
3000
7000
2000
4000
ENDCHAR
STARTCHAR 021B
ENCODING 539
SWIDTH 270 0
DWIDTH 6 0
BBX 6 21 1 -5
BITMAP
18
18
30
7C
FC
30
30
60
60
60
60
60
C0
E0
70
00
60
60
40
40
80
ENDCHAR
STARTCHAR 0259
ENCODING 601
SWIDTH 540 0
DWIDTH 12 0
BBX 11 12 1 0
BITMAP
0700
1FC0
30C0
6060
0060
0060
FFE0
C060
C0C0
61C0
7380
3F00
ENDCHAR
STARTCHAR 02C6
ENCODING 710
SWIDTH 315 0
DWIDTH 7 0
BBX 5 3 3 13
BITMAP
30
78
C8
ENDCHAR
STARTCHAR 02C7
ENCODING 711
SWIDTH 315 0
DWIDTH 7 0
BBX 6 3 3 13
BITMAP
CC
D8
70
ENDCHAR
STARTCHAR 02C9
ENCODING 713
SWIDTH 315 0
DWIDTH 7 0
BBX 7 2 2 13
BITMAP
FE
FE
ENDCHAR
STARTCHAR 02D8
ENCODING 728
SWIDTH 315 0
DWIDTH 7 0
BBX 5 2 3 13
BITMAP
88
F8
ENDCHAR
STARTCHAR 02D9
ENCODING 729
SWIDTH 315 0
DWIDTH 7 0
BBX 3 3 4 13
BITMAP
60
60
E0
ENDCHAR
STARTCHAR 02DA
ENCODING 730
SWIDTH 315 0
DWIDTH 7 0
BBX 3 4 4 12
BITMAP
E0
A0
A0
40
ENDCHAR
STARTCHAR 02DB
ENCODING 731
SWIDTH 315 0
DWIDTH 7 0
BBX 5 5 1 -5
BITMAP
40
C0
C0
F8
60
ENDCHAR
STARTCHAR 02DC
ENCODING 732
SWIDTH 315 0
DWIDTH 7 0
BBX 7 3 2 13
BITMAP
62
FE
CC
ENDCHAR
STARTCHAR 02DD
ENCODING 733
SWIDTH 315 0
DWIDTH 7 0
BBX 8 3 2 13
BITMAP
37
66
CC
ENDCHAR
STARTCHAR 0300
ENCODING 768
SWIDTH 0 0
DWIDTH 0 0
BBX 3 3 -3 17
BITMAP
E0
60
20
ENDCHAR
STARTCHAR 0301
ENCODING 769
SWIDTH 0 0
DWIDTH 0 0
BBX 3 3 -1 17
BITMAP
60
C0
80
ENDCHAR
STARTCHAR 0303
ENCODING 771
SWIDTH 0 0
DWIDTH 0 0
BBX 7 2 -7 17
BITMAP
F6
9C
ENDCHAR
STARTCHAR 0309
ENCODING 777
SWIDTH 0 0
DWIDTH 0 0
BBX 4 3 -2 17
BITMAP
E0
30
60
ENDCHAR
STARTCHAR 0323
ENCODING 803
SWIDTH 0 0
DWIDTH 0 0
BBX 3 3 -10 -4
BITMAP
E0
C0
C0
ENDCHAR
STARTCHAR 037E
ENCODING 894
SWIDTH 270 0
DWIDTH 6 0
BBX 5 15 1 -3
BITMAP
18
38
30
00
00
00
00
00
00
00
60
E0
40
40
80
ENDCHAR
STARTCHAR 0384
ENCODING 900
SWIDTH 315 0
DWIDTH 7 0
BBX 3 3 5 13
BITMAP
60
C0
80
ENDCHAR
STARTCHAR 0385
ENCODING 901
SWIDTH 315 0
DWIDTH 7 0
BBX 9 3 1 13
BITMAP
0C00
C980
D980
ENDCHAR
STARTCHAR 0386
ENCODING 902
SWIDTH 675 0
DWIDTH 15 0
BBX 14 16 0 0
BITMAP
0EE0
1CE0
01A0
01B0
0330
0730
0630
0E30
0C30
1818
1FF8
3018
3018
6018
E018
C00C
ENDCHAR
STARTCHAR 0387
ENCODING 903
SWIDTH 270 0
DWIDTH 6 0
BBX 3 3 3 9
BITMAP
60
E0
C0
ENDCHAR
STARTCHAR 0388
ENCODING 904
SWIDTH 810 0
DWIDTH 18 0
BBX 16 16 2 0
BITMAP
77FF
C7FF
0E00
0C00
0C00
0C00
0C00
1FFE
1FFC
1800
1800
1800
3800
3000
3FFC
3FFC
ENDCHAR
STARTCHAR 0389
ENCODING 905
SWIDTH 855 0
DWIDTH 19 0
BBX 17 16 2 0
BITMAP
760180
C60180
060180
0C0180
0C0380
0C0300
0C0300
1FFF00
1FFF00
180700
180600
180600
380600
300600
300E00
300C00
ENDCHAR
STARTCHAR 038A
ENCODING 906
SWIDTH 405 0
DWIDTH 9 0
BBX 7 16 2 0
BITMAP
76
C6
0E
0C
0C
0C
0C
1C
18
18
18
18
38
30
30
30
ENDCHAR
STARTCHAR 038C
ENCODING 908
SWIDTH 810 0
DWIDTH 18 0
BBX 16 16 1 0
BITMAP
33F8
67FC
8E0E
1807
3803
3003
3003
7003
6003
6003
6003
3006
300E
381C
1FF8
07E0
ENDCHAR
STARTCHAR 038E
ENCODING 910
SWIDTH 855 0
DWIDTH 19 0
BBX 19 16 2 0
BITMAP
760060
C300C0
0301C0
018380
018300
00C600
00CE00
007C00
007800
003000
003000
003000
006000
006000
006000
006000
ENDCHAR
STARTCHAR 038F
ENCODING 911
SWIDTH 765 0
DWIDTH 17 0
BBX 17 16 0 0
BITMAP
19FC00
33FE00
470700
0C0300
1C0180
180180
180180
380180
300180
300180
380300
180300
180600
0C0C00
7E3F80
FE3F00
ENDCHAR
STARTCHAR 0390
ENCODING 912
SWIDTH 225 0
DWIDTH 5 0
BBX 9 16 0 0
BITMAP
0C00
C980
D300
0000
1800
1800
1800
3000
3000
3000
3000
3000
6000
6000
6000
6000
ENDCHAR
STARTCHAR 0391
ENCODING 913
SWIDTH 675 0
DWIDTH 15 0
BBX 14 16 0 0
BITMAP
00E0
00E0
01A0
01B0
0330
0330
0630
0E30
0C30
1C18
1FF8
3018
3018
6018
E018
C00C
ENDCHAR
STARTCHAR 0392
ENCODING 914
SWIDTH 675 0
DWIDTH 15 0
BBX 14 16 1 0
BITMAP
1FE0
1FF8
1818
180C
300C
3018
3038
3FE0
3FF0
6018
6018
6018
6018
E030
FFF0
FFC0
ENDCHAR
STARTCHAR 0393
ENCODING 915
SWIDTH 585 0
DWIDTH 13 0
BBX 14 16 1 0
BITMAP
1FFC
1FF8
1800
1800
3000
3000
3000
3000
3000
6000
6000
6000
6000
E000
C000
C000
ENDCHAR
STARTCHAR 0394
ENCODING 916
SWIDTH 675 0
DWIDTH 15 0
BBX 14 16 0 0
BITMAP
0060
00F0
01B0
01B0
03B0
0330
0630
0638
0C18
1C18
1818
3818
3018
701C
7FFC
FFFC
ENDCHAR
STARTCHAR 0395
ENCODING 917
SWIDTH 675 0
DWIDTH 15 0
BBX 15 16 1 0
BITMAP
1FFE
1FFE
1800
1800
3800
3000
3000
3FF8
3FF8
6000
6000
6000
6000
6000
FFF0
FFF0
ENDCHAR
STARTCHAR 0396
ENCODING 918
SWIDTH 630 0
DWIDTH 14 0
BBX 13 16 1 0
BITMAP
3FF8
3FF8
0030
0060
00E0
01C0
0380
0300
0600
0C00
1C00
3800
7000
E000
FFF0
FFE0
ENDCHAR
STARTCHAR 0397
ENCODING 919
SWIDTH 720 0
DWIDTH 16 0
BBX 16 16 1 0
BITMAP
1803
1806
1806
1806
3006
300E
300C
3FFC
7FFC
600C
601C
6018
6018
E018
C018
C038
ENDCHAR
STARTCHAR 0398
ENCODING 920
SWIDTH 765 0
DWIDTH 17 0
BBX 15 16 2 0
BITMAP
07F0
1FF8
381C
300C
6006
6006
C006
C7E6
C7C6
C006
C00E
C00C
601C
7038
3FF0
1FC0
ENDCHAR
STARTCHAR 0399
ENCODING 921
SWIDTH 270 0
DWIDTH 6 0
BBX 6 16 1 0
BITMAP
0C
18
18
18
18
38
30
30
30
30
70
60
60
60
60
C0
ENDCHAR
STARTCHAR 039A
ENCODING 922
SWIDTH 675 0
DWIDTH 15 0
BBX 15 16 1 0
BITMAP
180E
181C
1838
1870
38C0
3380
3700
3F80
3D80
79C0
70C0
6060
6060
6030
C038
C018
ENDCHAR
STARTCHAR 039B
ENCODING 923
SWIDTH 675 0
DWIDTH 15 0
BBX 14 16 0 0
BITMAP
00E0
00E0
01E0
01E0
0330
0330
0630
0E30
0C30
1C18
1818
3018
3018
6018
601C
C00C
ENDCHAR
STARTCHAR 039C
ENCODING 924
SWIDTH 855 0
DWIDTH 19 0
BBX 18 16 1 0
BITMAP
1C01C0
1C01C0
1C03C0
1C03C0
360680
360780
360D80
360980
361980
623300
633300
636300
636300
E3C700
C38600
C18600
ENDCHAR
STARTCHAR 039D
ENCODING 925
SWIDTH 720 0
DWIDTH 16 0
BBX 16 16 1 0
BITMAP
1C03
1C07
1E06
1E06
3E06
3306
330C
318C
318C
70CC
60CC
60D8
6078
6078
C038
C038
ENDCHAR
STARTCHAR 039E
ENCODING 926
SWIDTH 630 0
DWIDTH 14 0
BBX 15 16 0 0
BITMAP
0FFE
0FFE
0000
0000
0000
0000
0000
1FFC
1FF8
0000
0000
0000
0000
0000
FFF8
FFF8
ENDCHAR
STARTCHAR 039F
ENCODING 927
SWIDTH 765 0
DWIDTH 17 0
BBX 15 16 2 0
BITMAP
07F0
0FF8
381C
300C
6006
6006
E006
C006
C006
C006
C00E
C00C
601C
7038
3FF0
1FC0
ENDCHAR
STARTCHAR 03A0
ENCODING 928
SWIDTH 720 0
DWIDTH 16 0
BBX 16 16 1 0
BITMAP
1FFF
1FFE
1806
1806
3806
3006
300C
300C
300C
600C
601C
6018
6018
E018
C018
C038
ENDCHAR
STARTCHAR 03A1
ENCODING 929
SWIDTH 675 0
DWIDTH 15 0
BBX 14 16 1 0
BITMAP
1FF8
1FFC
180C
180C
300C
300C
301C
3038
3FF0
7F80
6000
6000
6000
E000
C000
C000
ENDCHAR
STARTCHAR 03A3
ENCODING 931
SWIDTH 585 0
DWIDTH 13 0
BBX 14 16 1 0
BITMAP
1FFC
1FF8
1800
1C00
0E00
0700
0300
0180
0380
0700
0E00
1C00
3800
E000
FFE0
FFE0
ENDCHAR
STARTCHAR 03A4
ENCODING 932
SWIDTH 630 0
DWIDTH 14 0
BBX 13 16 3 0
BITMAP
FFF8
FFF0
0600
0600
0E00
0C00
0C00
0C00
0C00
1C00
1800
1800
1800
1800
3000
3000
ENDCHAR
STARTCHAR 03A5
ENCODING 933
SWIDTH 675 0
DWIDTH 15 0
BBX 14 16 3 0
BITMAP
C01C
E018
6030
7070
30E0
39C0
1980
1B80
0F00
0E00
0C00
0C00
0C00
0C00
0C00
1800
ENDCHAR
STARTCHAR 03A6
ENCODING 934
SWIDTH 855 0
DWIDTH 19 0
BBX 16 17 2 -1
BITMAP
0060
00E0
0FFC
3FFE
70C7
60C3
E1C3
C183
C183
C183
E186
731E
3FF8
0FE0
0300
0700
0600
ENDCHAR
STARTCHAR 03A7
ENCODING 935
SWIDTH 675 0
DWIDTH 15 0
BBX 17 16 0 0
BITMAP
180380
1C0700
0C0E00
0E1C00
063800
077000
03E000
01C000
038000
07C000
0EE000
0C6000
187000
303000
701800
E01800
ENDCHAR
STARTCHAR 03A8
ENCODING 936
SWIDTH 810 0
DWIDTH 18 0
BBX 17 16 3 0
BITMAP
60C380
61C300
C18300
C18300
C18300
C18600
C30600
C30E00
E31C00
7FF800
1FE000
060000
060000
060000
060000
0E0000
ENDCHAR
STARTCHAR 03A9
ENCODING 937
SWIDTH 765 0
DWIDTH 17 0
BBX 17 16 0 0
BITMAP
01F800
03FE00
060700
0C0300
180300
180180
380180
300180
300180
300300
300300
180700
180600
0C0C00
FE3F00
FE3F00
ENDCHAR
STARTCHAR 03AA
ENCODING 938
SWIDTH 270 0
DWIDTH 6 0
BBX 8 19 1 0
BITMAP
33
33
00
0C
18
18
18
18
38
30
30
30
30
70
60
60
60
60
C0
ENDCHAR
STARTCHAR 03AB
ENCODING 939
SWIDTH 675 0
DWIDTH 15 0
BBX 14 19 3 0
BITMAP
0CC0
0CC0
0000
C01C
E018
6030
7070
30E0
39C0
1980
1B80
0F00
0E00
0C00
0C00
0C00
0C00
0C00
1800
ENDCHAR
STARTCHAR 03AC
ENCODING 940
SWIDTH 585 0
DWIDTH 13 0
BBX 12 16 1 0
BITMAP
0180
0300
0600
0000
0E30
1FB0
30E0
60E0
60C0
C0C0
C0C0
C0C0
C1C0
C1C0
77C0
3CC0
ENDCHAR
STARTCHAR 03AD
ENCODING 941
SWIDTH 450 0
DWIDTH 10 0
BBX 9 16 1 0
BITMAP
0300
0600
0C00
0000
0E00
3F80
7100
6000
6000
3C00
7C00
E000
C000
C000
E700
7E00
ENDCHAR
STARTCHAR 03AE
ENCODING 942
SWIDTH 540 0
DWIDTH 12 0
BBX 11 20 1 -4
BITMAP
0180
0300
0200
0000
3380
37C0
3860
3060
6060
60C0
60C0
60C0
C0C0
C0C0
C180
C180
0180
0180
0180
0300
ENDCHAR
STARTCHAR 03AF
ENCODING 943
SWIDTH 225 0
DWIDTH 5 0
BBX 6 16 1 0
BITMAP
1C
18
30
00
30
30
30
60
60
60
60
60
C0
C0
C0
C0
ENDCHAR
STARTCHAR 03B0
ENCODING 944
SWIDTH 540 0
DWIDTH 12 0
BBX 10 16 2 0
BITMAP
0300
36C0
34C0
0000
60C0
60C0
60C0
C0C0
C080
C180
C180
C180
8180
C300
E700
7C00
ENDCHAR
STARTCHAR 03B1
ENCODING 945
SWIDTH 585 0
DWIDTH 13 0
BBX 12 12 1 0
BITMAP
0E30
1FB0
30E0
60E0
60C0
C0C0
C0C0
C0C0
C1C0
C1C0
77C0
3CC0
ENDCHAR
STARTCHAR 03B2
ENCODING 946
SWIDTH 585 0
DWIDTH 13 0
BBX 12 20 0 -4
BITMAP
03E0
0770
0C30
1C10
1830
1830
18E0
33C0
3060
3030
3030
3030
7030
7060
78E0
6FC0
6000
C000
C000
C000
ENDCHAR
STARTCHAR 03B3
ENCODING 947
SWIDTH 495 0
DWIDTH 11 0
BBX 10 16 2 -4
BITMAP
C0C0
C0C0
C180
C180
C300
4200
6600
6C00
6C00
7800
7800
3000
3000
6000
6000
6000
ENDCHAR
STARTCHAR 03B4
ENCODING 948
SWIDTH 540 0
DWIDTH 12 0
BBX 12 16 1 0
BITMAP
1FF0
1FF0
0C00
0600
0300
1F80
38C0
6060
6060
C060
C060
C060
C0C0
E1C0
7380
3F00
ENDCHAR
STARTCHAR 03B5
ENCODING 949
SWIDTH 450 0
DWIDTH 10 0
BBX 9 12 1 0
BITMAP
0E00
3F80
7100
6000
6000
3C00
7C00
E000
C000
C000
E700
7E00
ENDCHAR
STARTCHAR 03B6
ENCODING 950
SWIDTH 450 0
DWIDTH 10 0
BBX 11 21 1 -5
BITMAP
0FE0
0FE0
0180
0300
0E00
1C00
3800
3000
6000
6000
C000
C000
C000
C000
7C00
3E00
0300
0300
0600
1E00
1000
ENDCHAR
STARTCHAR 03B7
ENCODING 951
SWIDTH 540 0
DWIDTH 12 0
BBX 11 16 1 -4
BITMAP
3380
37C0
3860
3060
6060
60C0
60C0
60C0
C0C0
C0C0
C180
C180
0180
0180
0180
0300
ENDCHAR
STARTCHAR 03B8
ENCODING 952
SWIDTH 540 0
DWIDTH 12 0
BBX 11 16 1 0
BITMAP
07C0
0CC0
1860
3060
3020
6060
6060
7FE0
7FE0
C060
C060
C0C0
40C0
6180
7300
3E00
ENDCHAR
STARTCHAR 03B9
ENCODING 953
SWIDTH 225 0
DWIDTH 5 0
BBX 4 12 1 0
BITMAP
30
30
30
60
60
60
60
60
C0
C0
C0
C0
ENDCHAR
STARTCHAR 03BA
ENCODING 954
SWIDTH 495 0
DWIDTH 11 0
BBX 11 12 1 0
BITMAP
3060
31C0
3380
6700
6C00
7C00
7C00
6600
C600
C300
C380
C180
ENDCHAR
STARTCHAR 03BB
ENCODING 955
SWIDTH 495 0
DWIDTH 11 0
BBX 10 16 0 0
BITMAP
0300
0300
0300
0300
0300
0300
0700
0D80
0D80
1980
1980
3180
6180
60C0
C0C0
C0C0
ENDCHAR
STARTCHAR 03BC
ENCODING 956
SWIDTH 540 0
DWIDTH 12 0
BBX 12 16 0 -4
BITMAP
1830
1830
1830
3030
3020
3060
3060
3060
6060
70C0
7BC0
7FC0
4000
C000
C000
C000
ENDCHAR
STARTCHAR 03BD
ENCODING 957
SWIDTH 495 0
DWIDTH 11 0
BBX 10 12 2 0
BITMAP
C0C0
C0C0
C180
C180
C300
4300
6600
6C00
6C00
7800
7800
3000
ENDCHAR
STARTCHAR 03BE
ENCODING 958
SWIDTH 450 0
DWIDTH 10 0
BBX 10 21 1 -5
BITMAP
07C0
1F00
1800
1800
1800
1F80
0F80
1C00
3000
6000
E000
C000
C000
E000
7C00
3E00
0300
0300
0600
1E00
1000
ENDCHAR
STARTCHAR 03BF
ENCODING 959
SWIDTH 540 0
DWIDTH 12 0
BBX 11 12 1 0
BITMAP
0F00
1FC0
30C0
6060
6060
C060
C060
C060
C0C0
E1C0
7380
3F00
ENDCHAR
STARTCHAR 03C0
ENCODING 960
SWIDTH 675 0
DWIDTH 15 0
BBX 14 12 2 0
BITMAP
FFFC
FFFC
3060
3060
3040
30C0
60C0
60C0
60C0
6180
6180
C180
ENDCHAR
STARTCHAR 03C1
ENCODING 961
SWIDTH 585 0
DWIDTH 13 0
BBX 12 16 0 -4
BITMAP
03C0
0FE0
1C30
1830
3030
3030
3030
3030
7070
7060
79C0
6F80
6000
C000
C000
C000
ENDCHAR
STARTCHAR 03C2
ENCODING 962
SWIDTH 495 0
DWIDTH 11 0
BBX 11 17 1 -5
BITMAP
03C0
1FE0
3800
7000
6000
C000
C000
C000
E000
6000
3800
1C00
0600
0300
0600
3E00
7800
ENDCHAR
STARTCHAR 03C3
ENCODING 963
SWIDTH 585 0
DWIDTH 13 0
BBX 13 12 1 0
BITMAP
0FF8
1FF8
30C0
6060
6060
C060
C060
C060
C0C0
E1C0
7380
3F00
ENDCHAR
STARTCHAR 03C4
ENCODING 964
SWIDTH 360 0
DWIDTH 8 0
BBX 7 12 2 0
BITMAP
FE
FE
30
30
30
30
60
60
60
60
60
C0
ENDCHAR
STARTCHAR 03C5
ENCODING 965
SWIDTH 540 0
DWIDTH 12 0
BBX 10 12 2 0
BITMAP
60C0
60C0
60C0
C0C0
C080
C180
C180
C180
8180
C300
E700
7C00
ENDCHAR
STARTCHAR 03C6
ENCODING 966
SWIDTH 675 0
DWIDTH 15 0
BBX 13 16 1 -4
BITMAP
0460
1DF0
3198
6318
6318
C318
C318
C218
C630
6670
7FE0
3FC0
0C00
0C00
0C00
0C00
ENDCHAR
STARTCHAR 03C7
ENCODING 967
SWIDTH 540 0
DWIDTH 12 0
BBX 14 16 -1 -4
BITMAP
180C
0C18
0C38
0C30
0C60
06C0
07C0
0780
0700
0700
0D80
1980
3880
30C0
60C0
C0E0
ENDCHAR
STARTCHAR 03C8
ENCODING 968
SWIDTH 720 0
DWIDTH 16 0
BBX 14 16 2 -4
BITMAP
618C
630C
630C
C30C
C318
C318
C618
C618
C630
C630
E6E0
7FC0
0C00
0C00
0C00
0800
ENDCHAR
STARTCHAR 03C9
ENCODING 969
SWIDTH 765 0
DWIDTH 17 0
BBX 16 12 1 0
BITMAP
1806
3003
3003
60C3
6183
E183
C183
C183
C386
C386
66DC
7CF8
ENDCHAR
STARTCHAR 03CA
ENCODING 970
SWIDTH 225 0
DWIDTH 5 0
BBX 7 16 1 0
BITMAP
66
66
CC
00
30
30
30
60
60
60
60
60
C0
C0
C0
C0
ENDCHAR
STARTCHAR 03CB
ENCODING 971
SWIDTH 540 0
DWIDTH 12 0
BBX 10 16 2 0
BITMAP
1D80
1980
1980
0000
60C0
60C0
60C0
C0C0
C080
C180
C180
C180
8180
C300
E700
7C00
ENDCHAR
STARTCHAR 03CC
ENCODING 972
SWIDTH 540 0
DWIDTH 12 0
BBX 11 16 1 0
BITMAP
0180
0300
0200
0000
0F00
1FC0
30C0
6060
6060
C060
C060
C060
C0C0
E1C0
7380
3F00
ENDCHAR
STARTCHAR 03CD
ENCODING 973
SWIDTH 540 0
DWIDTH 12 0
BBX 10 16 2 0
BITMAP
0300
0600
0400
0000
60C0
60C0
60C0
C0C0
C080
C180
C180
C180
8180
C300
E700
7C00
ENDCHAR
STARTCHAR 03CE
ENCODING 974
SWIDTH 765 0
DWIDTH 17 0
BBX 16 16 1 0
BITMAP
0070
0060
00C0
0000
1806
3003
3003
60C3
6183
E183
C183
C183
C386
C386
66DC
7CF8
ENDCHAR
STARTCHAR 0401
ENCODING 1025
SWIDTH 675 0
DWIDTH 15 0
BBX 15 19 1 0
BITMAP
0330
0330
0000
1FFE
1FFE
1800
1800
3800
3000
3000
3FF8
3FF8
6000
6000
6000
6000
6000
FFF0
FFF0
ENDCHAR
STARTCHAR 0402
ENCODING 1026
SWIDTH 855 0
DWIDTH 19 0
BBX 15 16 3 0
BITMAP
FFF0
FFF0
0600
0C00
0C00
0C00
0DF8
1FBC
1C06
1806
1806
1806
3806
300C
31BC
31F0
ENDCHAR
STARTCHAR 0403
ENCODING 1027
SWIDTH 540 0
DWIDTH 12 0
BBX 13 20 1 0
BITMAP
00C0
0180
0100
0000
1FF8
1FF8
1800
1800
3000
3000
3000
3000
3000
6000
6000
6000
6000
E000
C000
C000
ENDCHAR
STARTCHAR 0404
ENCODING 1028
SWIDTH 720 0
DWIDTH 16 0
BBX 14 16 2 0
BITMAP
07E0
0FF8
3818
300C
700C
6000
E000
FF00
FF00
C000
C000
C018
E038
7030
3DE0
1FC0
ENDCHAR
STARTCHAR 0405
ENCODING 1029
SWIDTH 675 0
DWIDTH 15 0
BBX 13 16 2 0
BITMAP
0FC0
3FF0
3030
3018
3018
3000
3C00
0F00
03C0
00E0
0070
C030
C030
E060
7BE0
3F80
ENDCHAR
STARTCHAR 0406
ENCODING 1030
SWIDTH 270 0
DWIDTH 6 0
BBX 6 16 1 0
BITMAP
0C
18
18
18
18
38
30
30
30
30
70
60
60
60
60
C0
ENDCHAR
STARTCHAR 0407
ENCODING 1031
SWIDTH 270 0
DWIDTH 6 0
BBX 8 19 1 0
BITMAP
33
33
00
0C
18
18
18
18
38
30
30
30
30
70
60
60
60
60
C0
ENDCHAR
STARTCHAR 0408
ENCODING 1032
SWIDTH 495 0
DWIDTH 11 0
BBX 11 16 1 0
BITMAP
0060
00E0
00C0
00C0
00C0
00C0
01C0
0180
0180
0180
0180
C380
C300
C300
FE00
7C00
ENDCHAR
STARTCHAR 0409
ENCODING 1033
SWIDTH 1080 0
DWIDTH 24 0
BBX 23 16 0 0
BITMAP
03FF00
07FE00
060600
060600
060600
0E0E00
0C0C00
0C0FF8
0C0FFC
0C0C06
181806
181806
181806
18181C
F03FF8
F03FF0
ENDCHAR
STARTCHAR 040A
ENCODING 1034
SWIDTH 990 0
DWIDTH 22 0
BBX 20 16 1 0
BITMAP
181800
183000
183000
183000
303000
303000
306000
3FFFE0
3FFFF0
606030
60E030
60C030
60C030
E0C060
C0FFE0
C1FF80
ENDCHAR
STARTCHAR 040B
ENCODING 1035
SWIDTH 855 0
DWIDTH 19 0
BBX 15 16 3 0
BITMAP
FFF0
FFF0
0600
0C00
0C00
0C00
0FF8
1FBC
1806
1806
1806
1806
300E
300C
300C
300C
ENDCHAR
STARTCHAR 040C
ENCODING 1036
SWIDTH 585 0
DWIDTH 13 0
BBX 14 20 1 0
BITMAP
00C0
0180
0100
0000
181C
183C
1860
18E0
38C0
3180
3380
3E00
3E00
6300
6380
6180
61C0
E0C0
C0E0
C060
ENDCHAR
STARTCHAR 040D
ENCODING 1037
SWIDTH 720 0
DWIDTH 16 0
BBX 16 20 1 0
BITMAP
0180
00C0
00C0
0000
1807
180E
180E
181E
3036
3066
30EC
31CC
338C
670C
6E18
6C18
7818
F018
E018
C030
ENDCHAR
STARTCHAR 040E
ENCODING 1038
SWIDTH 630 0
DWIDTH 14 0
BBX 13 20 3 0
BITMAP
1840
0880
0F00
0000
C018
C018
E030
6070
6060
70C0
30C0
3180
1B00
1B00
1E00
0E00
0C00
1800
F800
F000
ENDCHAR
STARTCHAR 040F
ENCODING 1039
SWIDTH 720 0
DWIDTH 16 0
BBX 16 20 1 -4
BITMAP
1803
1807
1806
1806
3806
3006
300E
300C
300C
600C
600C
6018
6018
E018
FFF8
FFF8
0600
0600
0600
0400
ENDCHAR
STARTCHAR 0410
ENCODING 1040
SWIDTH 675 0
DWIDTH 15 0
BBX 14 16 0 0
BITMAP
00E0
00E0
01A0
01B0
0330
0330
0630
0E30
0C30
1C18
1FF8
3018
3018
6018
E018
C00C
ENDCHAR
STARTCHAR 0411
ENCODING 1041
SWIDTH 630 0
DWIDTH 14 0
BBX 14 16 1 0
BITMAP
1FFC
1FF8
1800
1800
3000
3000
3000
3FE0
3FF0
6038
6018
6018
6038
E070
FFE0
FFC0
ENDCHAR
STARTCHAR 0412
ENCODING 1042
SWIDTH 675 0
DWIDTH 15 0
BBX 14 16 1 0
BITMAP
1FE0
1FF8
1818
180C
300C
3018
3038
3FE0
3FF0
6018
6018
6018
6018
E030
FFF0
FFC0
ENDCHAR
STARTCHAR 0413
ENCODING 1043
SWIDTH 540 0
DWIDTH 12 0
BBX 13 16 1 0
BITMAP
1FF8
1FF8
1800
1800
3000
3000
3000
3000
3000
6000
6000
6000
6000
E000
C000
C000
ENDCHAR
STARTCHAR 0414
ENCODING 1044
SWIDTH 720 0
DWIDTH 16 0
BBX 17 19 -1 -3
BITMAP
01FF80
01FF80
030180
030380
030300
030300
060300
060300
060600
0E0600
0C0600
0C0600
180600
180C00
7FFF00
FFFE00
C00600
C00600
C00600
ENDCHAR
STARTCHAR 0415
ENCODING 1045
SWIDTH 675 0
DWIDTH 15 0
BBX 15 16 1 0
BITMAP
1FFE
1FFE
1800
1800
3800
3000
3000
3FF8
3FF8
6000
6000
6000
6000
6000
FFF0
FFF0
ENDCHAR
STARTCHAR 0416
ENCODING 1046
SWIDTH 900 0
DWIDTH 20 0
BBX 22 16 0 0
BITMAP
1C0C1C
1E183C
061870
061860
0618C0
0319C0
033380
01FF00
03FF00
063380
0C7180
1861C0
3860C0
7060C0
E060E0
C0C060
ENDCHAR
STARTCHAR 0417
ENCODING 1047
SWIDTH 630 0
DWIDTH 14 0
BBX 13 16 1 0
BITMAP
07E0
0FF0
1830
3838
3038
0030
00F0
07C0
07E0
0060
0070
C030
C070
6060
7FC0
1F80
ENDCHAR
STARTCHAR 0418
ENCODING 1048
SWIDTH 720 0
DWIDTH 16 0
BBX 16 16 1 0
BITMAP
1807
180E
180E
181E
3036
3066
30EC
31CC
338C
670C
6E18
6C18
7818
F018
E018
C030
ENDCHAR
STARTCHAR 0419
ENCODING 1049
SWIDTH 720 0
DWIDTH 16 0
BBX 16 20 1 0
BITMAP
0108
0118
00F0
0000
1807
180E
180E
181E
3036
3066
30EC
31CC
338C
670C
6E18
6C18
7818
F018
E018
C030
ENDCHAR
STARTCHAR 041A
ENCODING 1050
SWIDTH 585 0
DWIDTH 13 0
BBX 14 16 1 0
BITMAP
181C
183C
1860
18E0
38C0
3180
3380
3E00
3E00
6300
6380
6180
61C0
E0C0
C0E0
C060
ENDCHAR
STARTCHAR 041B
ENCODING 1051
SWIDTH 675 0
DWIDTH 15 0
BBX 16 16 0 0
BITMAP
03FF
07FF
0607
0606
0606
0E06
0C06
0C0C
0C0C
0C0C
180C
181C
1818
3818
F018
E018
ENDCHAR
STARTCHAR 041C
ENCODING 1052
SWIDTH 855 0
DWIDTH 19 0
BBX 18 16 1 0
BITMAP
1C01C0
1C01C0
1C03C0
1C03C0
360680
360780
360D80
360980
361980
623300
633300
636300
636300
E3C700
C38600
C18600
ENDCHAR
STARTCHAR 041D
ENCODING 1053
SWIDTH 720 0
DWIDTH 16 0
BBX 16 16 1 0
BITMAP
1803
1806
1806
1806
3006
300E
300C
3FFC
7FFC
600C
601C
6018
6018
E018
C018
C038
ENDCHAR
STARTCHAR 041E
ENCODING 1054
SWIDTH 765 0
DWIDTH 17 0
BBX 15 16 2 0
BITMAP
07F0
0FF8
381C
300C
6006
6006
E006
C006
C006
C006
C00E
C00C
601C
7038
3FF0
1FC0
ENDCHAR
STARTCHAR 041F
ENCODING 1055
SWIDTH 720 0
DWIDTH 16 0
BBX 16 16 1 0
BITMAP
1FFF
1FFE
1806
1806
3806
3006
300C
300C
300C
600C
601C
6018
6018
E018
C018
C038
ENDCHAR
STARTCHAR 0420
ENCODING 1056
SWIDTH 675 0
DWIDTH 15 0
BBX 14 16 1 0
BITMAP
1FF8
1FFC
180C
180C
300C
300C
301C
3038
3FF0
7F80
6000
6000
6000
E000
C000
C000
ENDCHAR
STARTCHAR 0421
ENCODING 1057
SWIDTH 720 0
DWIDTH 16 0
BBX 14 16 2 0
BITMAP
07E0
1FF8
3818
300C
600C
6000
E000
C000
C000
C000
C010
C018
E038
7070
3DE0
1FC0
ENDCHAR
STARTCHAR 0422
ENCODING 1058
SWIDTH 630 0
DWIDTH 14 0
BBX 13 16 3 0
BITMAP
FFF8
FFF0
0600
0600
0E00
0C00
0C00
0C00
0C00
1C00
1800
1800
1800
1800
3000
3000
ENDCHAR
STARTCHAR 0423
ENCODING 1059
SWIDTH 630 0
DWIDTH 14 0
BBX 13 16 3 0
BITMAP
C018
C018
E030
6070
6060
70C0
30C0
3180
1B00
1B00
1E00
0E00
0C00
1800
F800
F000
ENDCHAR
STARTCHAR 0424
ENCODING 1060
SWIDTH 810 0
DWIDTH 18 0
BBX 16 16 2 0
BITMAP
00C0
01C0
0FF8
3CDE
7186
6187
E187
C187
C306
C306
C30E
E31C
7FF8
3FE0
0600
0600
ENDCHAR
STARTCHAR 0425
ENCODING 1061
SWIDTH 675 0
DWIDTH 15 0
BBX 17 16 0 0
BITMAP
180380
1C0700
0C0E00
0E1C00
063800
077000
03E000
01C000
038000
07C000
0EE000
0C6000
187000
303000
701800
E01800
ENDCHAR
STARTCHAR 0426
ENCODING 1062
SWIDTH 720 0
DWIDTH 16 0
BBX 16 19 1 -3
BITMAP
1803
1807
1806
1806
3806
3006
300E
300C
300C
600C
600C
6018
6018
E018
FFFC
FFFC
000C
000C
0008
ENDCHAR
STARTCHAR 0427
ENCODING 1063
SWIDTH 675 0
DWIDTH 15 0
BBX 14 16 2 0
BITMAP
300C
6018
6018
6018
6018
6038
C030
E030
60F0
7FF0
1E70
0060
0060
0060
0060
00C0
ENDCHAR
STARTCHAR 0428
ENCODING 1064
SWIDTH 900 0
DWIDTH 20 0
BBX 20 16 1 0
BITMAP
181830
183830
183030
183070
383060
303060
307060
306060
3060C0
6060C0
6060C0
60C0C0
60C1C0
E0C180
FFFF80
FFFF80
ENDCHAR
STARTCHAR 0429
ENCODING 1065
SWIDTH 945 0
DWIDTH 21 0
BBX 20 19 1 -3
BITMAP
181830
183830
183030
183070
383060
303060
307060
306060
3060C0
6060C0
6060C0
60C0C0
60C1C0
E0C180
FFFFE0
FFFFC0
0000C0
0000C0
0000C0
ENDCHAR
STARTCHAR 042A
ENCODING 1066
SWIDTH 810 0
DWIDTH 18 0
BBX 14 16 3 0
BITMAP
FE00
FE00
0C00
0C00
0C00
0C00
1C00
1FF8
1FFC
180C
180C
300C
300C
3018
3FF8
7FE0
ENDCHAR
STARTCHAR 042B
ENCODING 1067
SWIDTH 900 0
DWIDTH 20 0
BBX 19 16 1 0
BITMAP
180060
180060
180060
180060
3000E0
3000C0
3000C0
3FE0C0
3FF0C0
603980
601980
601980
603980
E07380
FFE300
FFC300
ENDCHAR
STARTCHAR 042C
ENCODING 1068
SWIDTH 630 0
DWIDTH 14 0
BBX 13 16 1 0
BITMAP
1800
1800
1800
1800
3000
3000
3000
3FE0
3FF0
6038
6018
6018
6038
E070
FFE0
FFC0
ENDCHAR
STARTCHAR 042D
ENCODING 1069
SWIDTH 675 0
DWIDTH 15 0
BBX 14 16 1 0
BITMAP
07E0
1FF0
3818
301C
600C
000C
000C
03FC
03FC
000C
001C
C018
C038
6070
79E0
1F80
ENDCHAR
STARTCHAR 042E
ENCODING 1070
SWIDTH 1035 0
DWIDTH 23 0
BBX 21 16 1 0
BITMAP
180FC0
183FF0
187030
186018
30C018
30C018
318018
3F8018
3F8018
618018
618018
618038
61C070
E0E0E0
C07BC0
C03F80
ENDCHAR
STARTCHAR 042F
ENCODING 1071
SWIDTH 675 0
DWIDTH 15 0
BBX 16 16 0 0
BITMAP
03FF
0FFF
1C06
1806
1806
1806
1806
0FFC
07FC
070C
0E0C
1C1C
3818
3018
7018
E018
ENDCHAR
STARTCHAR 0430
ENCODING 1072
SWIDTH 540 0
DWIDTH 12 0
BBX 11 12 1 0
BITMAP
0F00
1FC0
30E0
6060
0060
1FC0
7EC0
C0C0
C0C0
C1C0
E780
7CC0
ENDCHAR
STARTCHAR 0431
ENCODING 1073
SWIDTH 585 0
DWIDTH 13 0
BBX 12 16 1 0
BITMAP
03F0
0FF0
1800
3000
3000
6FC0
78C0
7060
6060
E060
C060
C060
C0C0
60C0
7380
3F00
ENDCHAR
STARTCHAR 0432
ENCODING 1074
SWIDTH 540 0
DWIDTH 12 0
BBX 10 12 1 0
BITMAP
0700
1FC0
30C0
60C0
60C0
FF80
FF00
C180
C0C0
E180
7380
3F00
ENDCHAR
STARTCHAR 0433
ENCODING 1075
SWIDTH 495 0
DWIDTH 11 0
BBX 10 12 1 0
BITMAP
0E00
3F80
61C0
00C0
0180
0F80
7C00
E000
C080
C180
E300
7E00
ENDCHAR
STARTCHAR 0434
ENCODING 1076
SWIDTH 540 0
DWIDTH 12 0
BBX 11 16 1 0
BITMAP
0F80
0FC0
0060
0060
0760
1FE0
30E0
6060
6060
C060
C060
C040
C0C0
E180
7380
3F00
ENDCHAR
STARTCHAR 0435
ENCODING 1077
SWIDTH 540 0
DWIDTH 12 0
BBX 11 12 1 0
BITMAP
0700
1FC0
30C0
6060
6060
FFE0
FFE0
C000
C0C0
61C0
7380
3F00
ENDCHAR
STARTCHAR 0436
ENCODING 1078
SWIDTH 675 0
DWIDTH 15 0
BBX 16 12 0 0
BITMAP
00C0
38C7
08CC
08CC
0D98
07F0
0FF0
19B0
3198
7318
630C
C30C
ENDCHAR
STARTCHAR 0437
ENCODING 1079
SWIDTH 450 0
DWIDTH 10 0
BBX 9 12 1 0
BITMAP
0E00
3F80
6180
0180
0180
0F00
1F00
0300
0300
8300
E700
7E00
ENDCHAR
STARTCHAR 0438
ENCODING 1080
SWIDTH 540 0
DWIDTH 12 0
BBX 11 12 1 0
BITMAP
3060
3060
3060
2060
6060
60C0
60C0
60C0
C1C0
C180
6780
7D80
ENDCHAR
STARTCHAR 0439
ENCODING 1081
SWIDTH 540 0
DWIDTH 12 0
BBX 11 16 1 0
BITMAP
0840
0FC0
0300
0000
3060
3060
3060
2060
6060
60C0
60C0
60C0
C1C0
C180
6780
7D80
ENDCHAR
STARTCHAR 043A
ENCODING 1082
SWIDTH 450 0
DWIDTH 10 0
BBX 11 12 1 0
BITMAP
3060
31C0
3300
2300
6600
7C00
7C00
6600
C600
C300
C300
C300
ENDCHAR
STARTCHAR 043B
ENCODING 1083
SWIDTH 585 0
DWIDTH 13 0
BBX 13 12 0 0
BITMAP
0FF8
0FF0
0830
1830
1830
1830
1860
3060
3060
3060
F060
E0C0
ENDCHAR
STARTCHAR 043C
ENCODING 1084
SWIDTH 675 0
DWIDTH 15 0
BBX 14 12 1 0
BITMAP
381C
381C
383C
283C
6C6C
6C58
6CD8
6D98
CD98
C730
C630
C630
ENDCHAR
STARTCHAR 043D
ENCODING 1085
SWIDTH 540 0
DWIDTH 12 0
BBX 11 12 1 0
BITMAP
3060
3060
3060
6060
6040
7FC0
7FC0
60C0
C0C0
C180
C180
C180
ENDCHAR
STARTCHAR 043E
ENCODING 1086
SWIDTH 540 0
DWIDTH 12 0
BBX 11 12 1 0
BITMAP
0F00
1FC0
30C0
6060
6060
C060
C060
C060
C0C0
E1C0
7380
3F00
ENDCHAR
STARTCHAR 043F
ENCODING 1087
SWIDTH 540 0
DWIDTH 12 0
BBX 11 12 1 0
BITMAP
3FE0
3FE0
3060
6060
6040
60C0
60C0
60C0
C0C0
C180
C180
C180
ENDCHAR
STARTCHAR 0440
ENCODING 1088
SWIDTH 540 0
DWIDTH 12 0
BBX 12 16 0 -4
BITMAP
19C0
1FE0
1C60
3830
3030
3030
3030
3070
7060
70E0
79C0
6F80
6000
C000
C000
C000
ENDCHAR
STARTCHAR 0441
ENCODING 1089
SWIDTH 495 0
DWIDTH 11 0
BBX 10 12 1 0
BITMAP
0700
1F80
30C0
60C0
6000
E000
C000
C000
C180
E180
6300
3E00
ENDCHAR
STARTCHAR 0442
ENCODING 1090
SWIDTH 855 0
DWIDTH 19 0
BBX 17 12 1 0
BITMAP
338700
37DF80
38F180
70E180
60C180
60C180
60C300
618300
C18300
C18300
C18300
C18600
ENDCHAR
STARTCHAR 0443
ENCODING 1091
SWIDTH 495 0
DWIDTH 11 0
BBX 12 17 0 -5
BITMAP
3030
3030
3060
1060
18C0
18C0
1980
1980
1B00
0E00
0E00
0C00
0C00
1800
3800
F000
C000
ENDCHAR
STARTCHAR 0444
ENCODING 1092
SWIDTH 855 0
DWIDTH 19 0
BBX 17 20 1 -4
BITMAP
003000
002000
006000
006000
0E6E00
1F7F00
31E180
60E180
60C180
C0C180
C0C180
C18180
C18380
C3C300
67E600
3DBC00
030000
030000
030000
030000
ENDCHAR
STARTCHAR 0445
ENCODING 1093
SWIDTH 495 0
DWIDTH 11 0
BBX 12 12 0 0
BITMAP
3030
1860
18C0
0D80
0F80
0700
0600
0F00
1B00
3180
7180
E0C0
ENDCHAR
STARTCHAR 0446
ENCODING 1094
SWIDTH 585 0
DWIDTH 13 0
BBX 11 15 1 -3
BITMAP
3060
3060
3060
6060
60C0
60C0
60C0
60C0
C1C0
C180
E780
7CE0
0060
0060
0040
ENDCHAR
STARTCHAR 0447
ENCODING 1095
SWIDTH 540 0
DWIDTH 12 0
BBX 10 12 2 0
BITMAP
C0C0
C180
C180
C180
C180
C180
FF00
7F00
0300
0300
0200
0600
ENDCHAR
STARTCHAR 0448
ENCODING 1096
SWIDTH 810 0
DWIDTH 18 0
BBX 18 12 1 0
BITMAP
3060C0
306180
30C180
20C180
60C180
60C100
60C300
618300
C18300
C38700
EFDE00
78F600
ENDCHAR
STARTCHAR 0449
ENCODING 1097
SWIDTH 855 0
DWIDTH 19 0
BBX 18 15 1 -3
BITMAP
3060C0
306180
30C180
20C180
60C180
60C100
60C300
618300
C18300
C38700
EFDB00
78F380
000080
000180
000180
ENDCHAR
STARTCHAR 044A
ENCODING 1098
SWIDTH 630 0
DWIDTH 14 0
BBX 12 12 1 0
BITMAP
7C00
FC00
0C00
0C00
1800
1FE0
1FF0
1830
1030
3030
3FE0
3FC0
ENDCHAR
STARTCHAR 044B
ENCODING 1099
SWIDTH 720 0
DWIDTH 16 0
BBX 15 12 1 0
BITMAP
3002
3006
3006
2006
6006
7F8C
7FCC
60CC
C0CC
C0CC
FF98
FF18
ENDCHAR
STARTCHAR 044C
ENCODING 1100
SWIDTH 540 0
DWIDTH 12 0
BBX 10 12 1 0
BITMAP
3000
3000
3000
2000
6000
7F80
7FC0
60C0
C0C0
C0C0
FF80
FF00
ENDCHAR
STARTCHAR 044D
ENCODING 1101
SWIDTH 495 0
DWIDTH 11 0
BBX 10 12 1 0
BITMAP
0E00
3F80
6180
60C0
00C0
0FC0
0F80
0180
0180
C300
E700
7E00
ENDCHAR
STARTCHAR 044E
ENCODING 1102
SWIDTH 765 0
DWIDTH 17 0
BBX 15 12 1 0
BITMAP
3078
30FC
3186
2306
6306
6606
7E06
6606
C60E
C60C
C318
C1F0
ENDCHAR
STARTCHAR 044F
ENCODING 1103
SWIDTH 540 0
DWIDTH 12 0
BBX 12 12 0 0
BITMAP
03F0
1FF0
3030
3060
3060
3860
1FE0
1C60
38C0
30C0
60C0
C0C0
ENDCHAR
STARTCHAR 0451
ENCODING 1105
SWIDTH 540 0
DWIDTH 12 0
BBX 11 16 1 0
BITMAP
0CC0
0CC0
0CC0
0000
0700
1FC0
30C0
6060
6060
FFE0
FFE0
C000
C0C0
61C0
7380
3F00
ENDCHAR
STARTCHAR 0452
ENCODING 1106
SWIDTH 540 0
DWIDTH 12 0
BBX 11 21 1 -5
BITMAP
1800
7F80
7F80
3000
3380
37C0
3860
3060
6060
60C0
60C0
60C0
C0C0
C0C0
C180
C180
0180
0180
0300
0F00
0C00
ENDCHAR
STARTCHAR 0453
ENCODING 1107
SWIDTH 360 0
DWIDTH 8 0
BBX 9 16 1 0
BITMAP
0700
0600
0C00
0000
3F80
3F80
3000
6000
6000
6000
6000
6000
C000
C000
C000
C000
ENDCHAR
STARTCHAR 0454
ENCODING 1108
SWIDTH 495 0
DWIDTH 11 0
BBX 10 12 1 0
BITMAP
0F00
3F80
30C0
60C0
6000
FC00
FC00
C000
C180
C180
6700
3E00
ENDCHAR
STARTCHAR 0455
ENCODING 1109
SWIDTH 495 0
DWIDTH 11 0
BBX 10 12 1 0
BITMAP
0F00
3F80
30C0
20C0
3000
3E00
0F00
0380
C180
C180
E380
3F00
ENDCHAR
STARTCHAR 0456
ENCODING 1110
SWIDTH 225 0
DWIDTH 5 0
BBX 5 16 1 0
BITMAP
18
18
00
00
30
30
30
60
60
60
60
60
C0
C0
C0
C0
ENDCHAR
STARTCHAR 0457
ENCODING 1111
SWIDTH 225 0
DWIDTH 5 0
BBX 7 16 1 0
BITMAP
66
CC
CC
00
30
30
30
60
60
60
60
60
C0
C0
C0
C0
ENDCHAR
STARTCHAR 0458
ENCODING 1112
SWIDTH 225 0
DWIDTH 5 0
BBX 9 21 -3 -5
BITMAP
0180
0180
0000
0000
0300
0300
0300
0600
0600
0600
0600
0600
0C00
0C00
0C00
0C00
0C00
1800
1800
F000
6000
ENDCHAR
STARTCHAR 0459
ENCODING 1113
SWIDTH 900 0
DWIDTH 20 0
BBX 19 12 0 0
BITMAP
0FFC00
0FF800
0C1800
0C1800
081800
181FC0
183FE0
183060
183060
303060
F03FE0
E07F80
ENDCHAR
STARTCHAR 045A
ENCODING 1114
SWIDTH 810 0
DWIDTH 18 0
BBX 17 12 1 0
BITMAP
306000
306000
30C000
60C000
60C000
7FFE00
7FFF00
618380
C18180
C18300
C1FF00
C1FE00
ENDCHAR
STARTCHAR 045B
ENCODING 1115
SWIDTH 540 0
DWIDTH 12 0
BBX 11 16 1 0
BITMAP
1800
7F80
7F80
3000
3380
37C0
3860
3060
6060
60C0
60C0
60C0
C0C0
C0C0
C180
C180
ENDCHAR
STARTCHAR 045C
ENCODING 1116
SWIDTH 450 0
DWIDTH 10 0
BBX 11 16 1 0
BITMAP
01C0
0180
0300
0000
3060
31C0
3300
2300
6600
7C00
7C00
6600
C600
C300
C300
C300
ENDCHAR
STARTCHAR 045D
ENCODING 1117
SWIDTH 540 0
DWIDTH 12 0
BBX 11 16 1 0
BITMAP
0600
0600
0300
0000
3060
3060
3060
2060
6060
60C0
60C0
60C0
C1C0
C180
6780
7D80
ENDCHAR
STARTCHAR 045E
ENCODING 1118
SWIDTH 495 0
DWIDTH 11 0
BBX 12 21 0 -5
BITMAP
0C60
06C0
0380
0000
3030
3030
3060
1060
18C0
18C0
1980
1980
1B00
0E00
0E00
0C00
0C00
1800
3800
F000
C000
ENDCHAR
STARTCHAR 045F
ENCODING 1119
SWIDTH 540 0
DWIDTH 12 0
BBX 11 16 1 -4
BITMAP
3060
3060
3060
6060
6060
60C0
60C0
60C0
C1C0
C180
E780
7D80
3000
3000
3000
2000
ENDCHAR
STARTCHAR 0490
ENCODING 1168
SWIDTH 495 0
DWIDTH 11 0
BBX 13 19 1 0
BITMAP
0018
0018
0018
1FF0
1FF0
1800
1800
3000
3000
3000
3000
3000
6000
6000
6000
6000
E000
C000
C000
ENDCHAR
STARTCHAR 0491
ENCODING 1169
SWIDTH 360 0
DWIDTH 8 0
BBX 9 14 1 0
BITMAP
0180
0100
3F00
3F00
3000
6000
6000
6000
6000
6000
C000
C000
C000
C000
ENDCHAR
STARTCHAR 0492
ENCODING 1170
SWIDTH 540 0
DWIDTH 12 0
BBX 13 16 1 0
BITMAP
1FF8
1FF8
1800
1800
3000
3000
3000
FF00
FF00
6000
6000
6000
6000
E000
C000
C000
ENDCHAR
STARTCHAR 0493
ENCODING 1171
SWIDTH 360 0
DWIDTH 8 0
BBX 9 12 1 0
BITMAP
3F80
3F80
3000
3000
6000
F800
6000
6000
6000
C000
C000
C000
ENDCHAR
STARTCHAR 0496
ENCODING 1174
SWIDTH 900 0
DWIDTH 20 0
BBX 22 20 0 -4
BITMAP
1C0C1C
1E183C
061870
061860
0618C0
0319C0
033380
01FF00
03FF00
063380
0C7180
1861C0
3860C0
7060C0
E060F0
C0C070
000060
000060
000060
000060
ENDCHAR
STARTCHAR 0497
ENCODING 1175
SWIDTH 675 0
DWIDTH 15 0
BBX 16 15 0 -3
BITMAP
00C0
38C7
08CC
08CC
0D98
07F0
0FF0
19B0
3198
7318
630E
C30C
0004
000C
000C
ENDCHAR
STARTCHAR 049A
ENCODING 1178
SWIDTH 585 0
DWIDTH 13 0
BBX 14 20 1 -4
BITMAP
181C
183C
1860
18E0
38C0
3180
3380
3E00
3E00
6300
6180
6180
61C0
E0C0
C0E0
C060
0060
0060
0060
0040
ENDCHAR
STARTCHAR 049B
ENCODING 1179
SWIDTH 450 0
DWIDTH 10 0
BBX 11 15 1 -3
BITMAP
3060
31C0
3100
2300
6600
7C00
7C00
6600
C600
C300
C380
C380
0100
0100
0300
ENDCHAR
STARTCHAR 049C
ENCODING 1180
SWIDTH 585 0
DWIDTH 13 0
BBX 14 16 1 0
BITMAP
181C
183C
1860
1AE0
3AC0
3380
3780
3E00
3E00
6700
6780
6D80
69C0
E0C0
C0E0
C060
ENDCHAR
STARTCHAR 049D
ENCODING 1181
SWIDTH 450 0
DWIDTH 10 0
BBX 11 12 1 0
BITMAP
3060
31C0
3700
2700
6E00
7C00
7C00
6E00
CE00
D300
C300
C300
ENDCHAR
STARTCHAR 04A2
ENCODING 1186
SWIDTH 720 0
DWIDTH 16 0
BBX 16 20 1 -4
BITMAP
1803
1806
1806
1806
3006
3006
300C
3FFC
3FFC
600C
601C
6018
6018
E018
C01C
C03C
000C
000C
0018
0018
ENDCHAR
STARTCHAR 04A3
ENCODING 1187
SWIDTH 540 0
DWIDTH 12 0
BBX 11 15 1 -3
BITMAP
3060
3060
3060
6060
6060
7FC0
7FC0
60C0
C0C0
C0C0
C1E0
C1C0
0040
00C0
00C0
ENDCHAR
STARTCHAR 04AE
ENCODING 1198
SWIDTH 540 0
DWIDTH 12 0
BBX 12 16 3 0
BITMAP
C070
C0E0
C0C0
6180
6380
6700
3600
3C00
1C00
1800
1800
3000
3000
3000
3000
3000
ENDCHAR
STARTCHAR 04AF
ENCODING 1199
SWIDTH 495 0
DWIDTH 11 0
BBX 10 16 2 -4
BITMAP
C0C0
C0C0
C180
C180
C300
6600
6600
6C00
6C00
7800
7800
3000
3000
6000
6000
6000
ENDCHAR
STARTCHAR 04B0
ENCODING 1200
SWIDTH 540 0
DWIDTH 12 0
BBX 13 16 2 0
BITMAP
6038
6070
6060
30C0
3180
1380
1B00
1E00
FFC0
0C00
0C00
1800
1800
1800
1800
1800
ENDCHAR
STARTCHAR 04B1
ENCODING 1201
SWIDTH 495 0
DWIDTH 11 0
BBX 12 16 0 -4
BITMAP
3030
3030
3060
3060
30C0
1980
1980
1B00
1B00
1E00
1E00
0C00
FF80
1800
1800
1800
ENDCHAR
STARTCHAR 04B2
ENCODING 1202
SWIDTH 675 0
DWIDTH 15 0
BBX 17 20 0 -4
BITMAP
180380
1C0700
0C0E00
0E1C00
063800
077000
03E000
01C000
038000
07C000
0EE000
0C6000
187000
303000
701C00
E01C00
000C00
000800
001800
001800
ENDCHAR
STARTCHAR 04B3
ENCODING 1203
SWIDTH 495 0
DWIDTH 11 0
BBX 12 15 0 -3
BITMAP
3030
1860
18C0
0D80
0F80
0700
0600
0F00
1B00
3180
71C0
E0C0
00C0
00C0
0080
ENDCHAR
STARTCHAR 04B8
ENCODING 1208
SWIDTH 675 0
DWIDTH 15 0
BBX 14 16 2 0
BITMAP
701C
6018
6018
6018
6218
E238
C230
E630
F6F0
7FF0
1C60
0460
0C60
0860
00E0
00C0
ENDCHAR
STARTCHAR 04B9
ENCODING 1209
SWIDTH 540 0
DWIDTH 12 0
BBX 11 12 1 0
BITMAP
6060
60C0
60C0
64C0
CCC0
68C0
7F80
3F80
0980
1180
0180
0300
ENDCHAR
STARTCHAR 04BA
ENCODING 1210
SWIDTH 675 0
DWIDTH 15 0
BBX 14 16 1 0
BITMAP
0C00
1800
1800
1800
1800
3840
3FF8
3E38
301C
301C
701C
6018
6018
6018
6018
C030
ENDCHAR
STARTCHAR 04BB
ENCODING 1211
SWIDTH 540 0
DWIDTH 12 0
BBX 11 16 1 0
BITMAP
1800
1800
1800
3000
3380
37C0
3860
3060
6060
60C0
60C0
60C0
C0C0
C080
C180
C180
ENDCHAR
STARTCHAR 04D8
ENCODING 1240
SWIDTH 765 0
DWIDTH 17 0
BBX 15 16 2 0
BITMAP
07E0
0FF8
1818
300C
300C
000C
000E
FFFC
FFFC
C00C
C00C
C018
6038
6070
39E0
1FC0
ENDCHAR
STARTCHAR 04D9
ENCODING 1241
SWIDTH 540 0
DWIDTH 12 0
BBX 11 12 1 0
BITMAP
0700
1FC0
30C0
6060
0060
0060
FFE0
C060
C0C0
61C0
7380
3F00
ENDCHAR
STARTCHAR 04E8
ENCODING 1256
SWIDTH 765 0
DWIDTH 17 0
BBX 15 16 2 0
BITMAP
07F0
1FF8
381C
300C
6006
6006
E006
FFFE
FFFE
C006
C00E
C00C
601C
7038
3FF0
1FC0
ENDCHAR
STARTCHAR 04E9
ENCODING 1257
SWIDTH 540 0
DWIDTH 12 0
BBX 11 12 1 0
BITMAP
0F00
1FC0
30C0
6060
6060
FFE0
FFE0
C060
C0C0
E1C0
7380
3F00
ENDCHAR
STARTCHAR 05B0
ENCODING 1456
SWIDTH 315 0
DWIDTH 7 0
BBX 2 5 2 -7
BITMAP
C0
C0
00
80
80
ENDCHAR
STARTCHAR 05B1
ENCODING 1457
SWIDTH 315 0
DWIDTH 7 0
BBX 6 5 0 -7
BITMAP
B4
B4
00
CC
C8
ENDCHAR
STARTCHAR 05B2
ENCODING 1458
SWIDTH 315 0
DWIDTH 7 0
BBX 6 5 0 -7
BITMAP
F4
0C
00
0C
08
ENDCHAR
STARTCHAR 05B3
ENCODING 1459
SWIDTH 315 0
DWIDTH 7 0
BBX 6 5 0 -7
BITMAP
F4
4C
40
0C
08
ENDCHAR
STARTCHAR 05B4
ENCODING 1460
SWIDTH 315 0
DWIDTH 7 0
BBX 2 2 2 -4
BITMAP
C0
C0
ENDCHAR
STARTCHAR 05B5
ENCODING 1461
SWIDTH 315 0
DWIDTH 7 0
BBX 4 2 1 -4
BITMAP
90
90
ENDCHAR
STARTCHAR 05B6
ENCODING 1462
SWIDTH 315 0
DWIDTH 7 0
BBX 4 5 1 -7
BITMAP
90
90
00
40
40
ENDCHAR
STARTCHAR 05B7
ENCODING 1463
SWIDTH 315 0
DWIDTH 7 0
BBX 4 1 1 -3
BITMAP
F0
ENDCHAR
STARTCHAR 05B8
ENCODING 1464
SWIDTH 315 0
DWIDTH 7 0
BBX 4 3 1 -5
BITMAP
F0
60
40
ENDCHAR
STARTCHAR 05B9
ENCODING 1465
SWIDTH 315 0
DWIDTH 7 0
BBX 1 2 6 13
BITMAP
80
80
ENDCHAR
STARTCHAR 05BA
ENCODING 1466
SWIDTH 315 0
DWIDTH 7 0
BBX 1 2 6 13
BITMAP
80
80
ENDCHAR
STARTCHAR 05BB
ENCODING 1467
SWIDTH 315 0
DWIDTH 7 0
BBX 6 5 0 -7
BITMAP
80
80
30
0C
0C
ENDCHAR
STARTCHAR 05BC
ENCODING 1468
SWIDTH 315 0
DWIDTH 7 0
BBX 2 2 4 5
BITMAP
C0
80
ENDCHAR
STARTCHAR 05BD
ENCODING 1469
SWIDTH 315 0
DWIDTH 7 0
BBX 2 5 2 -7
BITMAP
40
C0
80
80
80
ENDCHAR
STARTCHAR 05BE
ENCODING 1470
SWIDTH 405 0
DWIDTH 9 0
BBX 6 2 4 10
BITMAP
FC
F8
ENDCHAR
STARTCHAR 05BF
ENCODING 1471
SWIDTH 315 0
DWIDTH 7 0
BBX 4 1 5 14
BITMAP
F0
ENDCHAR
STARTCHAR 05C0
ENCODING 1472
SWIDTH 270 0
DWIDTH 6 0
BBX 5 14 2 0
BITMAP
18
10
10
10
30
30
20
20
60
60
60
40
40
C0
ENDCHAR
STARTCHAR 05C1
ENCODING 1473
SWIDTH 315 0
DWIDTH 7 0
BBX 2 2 11 13
BITMAP
40
C0
ENDCHAR
STARTCHAR 05C2
ENCODING 1474
SWIDTH 315 0
DWIDTH 7 0
BBX 2 2 0 13
BITMAP
40
C0
ENDCHAR
STARTCHAR 05C3
ENCODING 1475
SWIDTH 270 0
DWIDTH 6 0
BBX 5 12 2 0
BITMAP
38
30
30
00
00
00
00
00
00
00
E0
C0
ENDCHAR
STARTCHAR 05D0
ENCODING 1488
SWIDTH 585 0
DWIDTH 13 0
BBX 13 12 1 0
BITMAP
1838
1C30
0C30
0E70
0E60
1FE0
33C0
3380
6180
61C0
60C0
C0E0
ENDCHAR
STARTCHAR 05D1
ENCODING 1489
SWIDTH 540 0
DWIDTH 12 0
BBX 11 12 1 0
BITMAP
1E00
3F80
01C0
00C0
00C0
00C0
00C0
00C0
0180
0180
FFE0
FFE0
ENDCHAR
STARTCHAR 05D2
ENCODING 1490
SWIDTH 405 0
DWIDTH 9 0
BBX 8 12 1 0
BITMAP
1C
1F
07
03
03
06
06
06
3E
76
E6
C6
ENDCHAR
STARTCHAR 05D3
ENCODING 1491
SWIDTH 495 0
DWIDTH 11 0
BBX 10 12 3 0
BITMAP
FFC0
FFC0
0300
0300
0600
0600
0600
0600
0600
0C00
0C00
0C00
ENDCHAR
STARTCHAR 05D4
ENCODING 1492
SWIDTH 585 0
DWIDTH 13 0
BBX 11 12 2 0
BITMAP
0F00
3FC0
00E0
0060
0060
0060
6060
6060
E0E0
C0C0
C0C0
C0C0
ENDCHAR
STARTCHAR 05D5
ENCODING 1493
SWIDTH 225 0
DWIDTH 5 0
BBX 4 12 2 0
BITMAP
30
30
30
70
60
60
60
60
E0
C0
C0
C0
ENDCHAR
STARTCHAR 05D6
ENCODING 1494
SWIDTH 405 0
DWIDTH 9 0
BBX 7 12 3 0
BITMAP
FE
FE
18
30
60
60
60
60
C0
C0
C0
C0
ENDCHAR
STARTCHAR 05D7
ENCODING 1495
SWIDTH 585 0
DWIDTH 13 0
BBX 11 12 2 0
BITMAP
0F00
3FC0
30E0
7060
6060
6060
6060
6060
C0C0
C0C0
C0C0
C0C0
ENDCHAR
STARTCHAR 05D8
ENCODING 1496
SWIDTH 585 0
DWIDTH 13 0
BBX 12 12 2 0
BITMAP
30C0
33E0
3270
6070
6060
6060
6060
6060
E0C0
60C0
7380
3F00
ENDCHAR
STARTCHAR 05D9
ENCODING 1497
SWIDTH 225 0
DWIDTH 5 0
BBX 3 6 3 6
BITMAP
60
60
60
E0
C0
C0
ENDCHAR
STARTCHAR 05DA
ENCODING 1498
SWIDTH 495 0
DWIDTH 11 0
BBX 8 16 3 -4
BITMAP
78
FE
07
03
03
03
03
03
06
06
06
06
06
0C
0C
0C
ENDCHAR
STARTCHAR 05DB
ENCODING 1499
SWIDTH 450 0
DWIDTH 10 0
BBX 10 12 1 0
BITMAP
1C00
3F00
0380
0180
01C0
01C0
0180
0180
0380
0700
FE00
F800
ENDCHAR
STARTCHAR 05DC
ENCODING 1500
SWIDTH 450 0
DWIDTH 10 0
BBX 9 16 3 0
BITMAP
6000
6000
6000
C000
C080
FF00
0300
0300
0300
0600
0C00
1C00
1800
3000
3000
3000
ENDCHAR
STARTCHAR 05DD
ENCODING 1501
SWIDTH 585 0
DWIDTH 13 0
BBX 11 12 2 0
BITMAP
0F00
3FC0
30E0
7060
6060
6060
6060
6060
C0C0
C0C0
FFC0
FFC0
ENDCHAR
STARTCHAR 05DE
ENCODING 1502
SWIDTH 585 0
DWIDTH 13 0
BBX 12 12 1 0
BITMAP
30C0
33F0
1E30
1C30
1C30
1830
1830
3030
3070
6060
67E0
C7E0
ENDCHAR
STARTCHAR 05DF
ENCODING 1503
SWIDTH 225 0
DWIDTH 5 0
BBX 5 16 1 -4
BITMAP
18
18
18
38
30
30
30
30
70
60
60
60
60
C0
C0
C0
ENDCHAR
STARTCHAR 05E0
ENCODING 1504
SWIDTH 360 0
DWIDTH 8 0
BBX 7 12 1 0
BITMAP
18
3E
06
06
06
06
0C
0C
0C
0C
FC
F8
ENDCHAR
STARTCHAR 05E1
ENCODING 1505
SWIDTH 585 0
DWIDTH 13 0
BBX 11 12 2 0
BITMAP
0780
1FC0
38E0
7060
6060
E060
C060
C0E0
C0C0
E1C0
7380
7E00
ENDCHAR
STARTCHAR 05E2
ENCODING 1506
SWIDTH 540 0
DWIDTH 12 0
BBX 13 13 0 -1
BITMAP
0C18
0C30
0C30
0C30
0C30
0C60
0C60
0C60
0CC0
0D80
0F00
FC00
E000
ENDCHAR
STARTCHAR 05E3
ENCODING 1507
SWIDTH 585 0
DWIDTH 13 0
BBX 10 16 3 -4
BITMAP
1C00
FF80
C380
C1C0
C1C0
C180
C180
F180
0180
0380
0300
0300
0300
0300
0600
0600
ENDCHAR
STARTCHAR 05E4
ENCODING 1508
SWIDTH 540 0
DWIDTH 12 0
BBX 11 12 2 0
BITMAP
1E00
3F80
61C0
60C0
60E0
60E0
78C0
00C0
01C0
0380
FF00
FC00
ENDCHAR
STARTCHAR 05E5
ENCODING 1509
SWIDTH 450 0
DWIDTH 10 0
BBX 9 16 3 -4
BITMAP
C180
C380
C300
6300
6600
6600
7C00
3800
7000
6000
6000
6000
6000
C000
C000
C000
ENDCHAR
STARTCHAR 05E6
ENCODING 1510
SWIDTH 495 0
DWIDTH 11 0
BBX 11 12 1 0
BITMAP
3060
30E0
38C0
18C0
1DC0
0F80
0E00
0600
0600
0700
FF00
FF00
ENDCHAR
STARTCHAR 05E7
ENCODING 1511
SWIDTH 540 0
DWIDTH 12 0
BBX 12 16 1 -4
BITMAP
1FF0
1FF0
0030
0030
0070
0060
30C0
3180
3380
6300
6300
6300
6000
C000
C000
C000
ENDCHAR
STARTCHAR 05E8
ENCODING 1512
SWIDTH 495 0
DWIDTH 11 0
BBX 8 12 3 0
BITMAP
78
FE
07
03
03
03
03
03
06
06
06
06
ENDCHAR
STARTCHAR 05E9
ENCODING 1513
SWIDTH 675 0
DWIDTH 15 0
BBX 14 12 3 0
BITMAP
630C
C318
C318
C618
C638
CE30
FC30
F060
C060
C0C0
F380
7F00
ENDCHAR
STARTCHAR 05EA
ENCODING 1514
SWIDTH 630 0
DWIDTH 14 0
BBX 13 12 1 0
BITMAP
0FC0
3FF0
0C38
0C18
0C18
0C18
1C18
1818
1830
1830
F830
F030
ENDCHAR
STARTCHAR 05F0
ENCODING 1520
SWIDTH 495 0
DWIDTH 11 0
BBX 10 12 2 0
BITMAP
30C0
31C0
3180
7180
6180
6180
6300
6300
E300
C300
C700
C600
ENDCHAR
STARTCHAR 05F1
ENCODING 1521
SWIDTH 495 0
DWIDTH 11 0
BBX 9 12 3 0
BITMAP
6180
6380
6300
E300
C300
C300
0600
0600
0600
0600
0E00
0C00
ENDCHAR
STARTCHAR 05F2
ENCODING 1522
SWIDTH 495 0
DWIDTH 11 0
BBX 9 6 3 6
BITMAP
6180
6380
6300
E300
C300
C300
ENDCHAR
STARTCHAR 05F3
ENCODING 1523
SWIDTH 225 0
DWIDTH 5 0
BBX 4 5 3 7
BITMAP
70
60
40
C0
80
ENDCHAR
STARTCHAR 05F4
ENCODING 1524
SWIDTH 405 0
DWIDTH 9 0
BBX 8 5 3 7
BITMAP
73
66
44
CC
88
ENDCHAR
STARTCHAR 1E80
ENCODING 7808
SWIDTH 945 0
DWIDTH 21 0
BBX 20 20 3 0
BITMAP
00E000
006000
002000
000000
C06030
C0E030
C0E060
C1B060
C1B0C0
C3B0C0
C33180
C63180
C63300
CC3300
CC3600
D83600
583C00
703C00
703800
603800
ENDCHAR
STARTCHAR 1E81
ENCODING 7809
SWIDTH 720 0
DWIDTH 16 0
BBX 15 16 2 0
BITMAP
0300
0180
0180
0000
C386
C386
C38C
C78C
C598
CD98
C9B0
D9B0
59A0
51E0
71C0
60C0
ENDCHAR
STARTCHAR 1E82
ENCODING 7810
SWIDTH 945 0
DWIDTH 21 0
BBX 20 20 3 0
BITMAP
003800
003000
006000
000000
C06030
C0E030
C0E060
C1B060
C1B0C0
C3B0C0
C33180
C63180
C63300
CC3300
CC3600
D83600
583C00
703C00
703800
603800
ENDCHAR
STARTCHAR 1E83
ENCODING 7811
SWIDTH 720 0
DWIDTH 16 0
BBX 15 16 2 0
BITMAP
00C0
0180
0300
0000
C386
C386
C38C
C78C
C598
CD98
C9B0
D9B0
59A0
51E0
71C0
60C0
ENDCHAR
STARTCHAR 1E84
ENCODING 7812
SWIDTH 945 0
DWIDTH 21 0
BBX 20 19 3 0
BITMAP
00CC00
01DC00
000000
C06030
C0E030
C0E060
C1B060
C1B0C0
C3B0C0
C33180
C63180
C63300
CC3300
CC3600
D83600
583C00
703C00
703800
603800
ENDCHAR
STARTCHAR 1E85
ENCODING 7813
SWIDTH 720 0
DWIDTH 16 0
BBX 15 16 2 0
BITMAP
0660
0660
0660
0000
C386
C386
C38C
C78C
C598
CD98
C9B0
D9B0
59A0
51E0
71C0
60C0
ENDCHAR
STARTCHAR 1EA0
ENCODING 7840
SWIDTH 675 0
DWIDTH 15 0
BBX 14 20 0 -4
BITMAP
00E0
00E0
01A0
01B0
0330
0330
0630
0E30
0C30
1C18
1FF8
3018
3018
6018
E018
C00C
0000
0700
0600
0600
ENDCHAR
STARTCHAR 1EA1
ENCODING 7841
SWIDTH 540 0
DWIDTH 12 0
BBX 11 16 1 -4
BITMAP
0F00
1FC0
30E0
6060
0060
1FC0
7EC0
C0C0
C0C0
C1C0
E780
7CC0
0000
1C00
1800
1800
ENDCHAR
STARTCHAR 1EA2
ENCODING 7842
SWIDTH 675 0
DWIDTH 15 0
BBX 14 20 0 0
BITMAP
0070
0018
0030
0000
00E0
00E0
01A0
01B0
0330
0330
0630
0E30
0C30
1C18
1FF8
3018
3018
6018
E018
C00C
ENDCHAR
STARTCHAR 1EA3
ENCODING 7843
SWIDTH 540 0
DWIDTH 12 0
BBX 11 17 1 0
BITMAP
0780
01C0
00C0
0300
0000
0F00
1FC0
30E0
6060
0060
1FC0
7EC0
C0C0
C0C0
C1C0
E780
7CC0
ENDCHAR
STARTCHAR 1EA4
ENCODING 7844
SWIDTH 675 0
DWIDTH 15 0
BBX 14 20 0 0
BITMAP
0030
0060
00F0
0398
00E0
00E0
01A0
01B0
0330
0330
0630
0E30
0C30
1C18
1FF8
3018
3018
6018
E018
C00C
ENDCHAR
STARTCHAR 1EA5
ENCODING 7845
SWIDTH 540 0
DWIDTH 12 0
BBX 11 20 1 0
BITMAP
00E0
01C0
0180
0000
0380
0680
0CC0
0000
0F00
1FC0
30E0
6060
0060
1FC0
7EC0
C0C0
C0C0
C1C0
E780
7CC0
ENDCHAR
STARTCHAR 1EA6
ENCODING 7846
SWIDTH 675 0
DWIDTH 15 0
BBX 14 20 0 0
BITMAP
00C0
0020
00F0
0398
00E0
00E0
01A0
01B0
0330
0330
0630
0E30
0C30
1C18
1FF8
3018
3018
6018
E018
C00C
ENDCHAR
STARTCHAR 1EA7
ENCODING 7847
SWIDTH 540 0
DWIDTH 12 0
BBX 11 20 1 0
BITMAP
0300
0180
0180
0000
0380
0680
0CC0
0000
0F00
1FC0
30E0
6060
0060
1FC0
7EC0
C0C0
C0C0
C1C0
E780
7CC0
ENDCHAR
STARTCHAR 1EA8
ENCODING 7848
SWIDTH 675 0
DWIDTH 15 0
BBX 14 20 0 0
BITMAP
00F0
0030
00F0
0398
00E0
00E0
01A0
01B0
0330
0330
0630
0E30
0C30
1C18
1FF8
3018
3018
6018
E018
C00C
ENDCHAR
STARTCHAR 1EA9
ENCODING 7849
SWIDTH 540 0
DWIDTH 12 0
BBX 11 20 1 0
BITMAP
03C0
0060
01C0
0000
0380
0680
0CC0
0000
0F00
1FC0
30E0
6060
0060
1FC0
7EC0
C0C0
C0C0
C1C0
E780
7CC0
ENDCHAR
STARTCHAR 1EAA
ENCODING 7850
SWIDTH 675 0
DWIDTH 15 0
BBX 14 20 0 0
BITMAP
01C8
0138
00F0
0398
00E0
00E0
01A0
01B0
0330
0330
0630
0E30
0C30
1C18
1FF8
3018
3018
6018
E018
C00C
ENDCHAR
STARTCHAR 1EAB
ENCODING 7851
SWIDTH 540 0
DWIDTH 12 0
BBX 11 19 1 0
BITMAP
07A0
0DE0
0000
0380
0680
0CC0
0000
0F00
1FC0
30E0
6060
0060
1FC0
7EC0
C0C0
C0C0
C1C0
E780
7CC0
ENDCHAR
STARTCHAR 1EAC
ENCODING 7852
SWIDTH 675 0
DWIDTH 15 0
BBX 14 22 0 -4
BITMAP
00F0
0198
00E0
00E0
01A0
01B0
0330
0330
0630
0E30
0C30
1C18
1FF8
3018
3018
6018
E018
C00C
0000
0700
0600
0600
ENDCHAR
STARTCHAR 1EAD
ENCODING 7853
SWIDTH 540 0
DWIDTH 12 0
BBX 11 20 1 -4
BITMAP
0380
0680
0CC0
0000
0F00
1FC0
30E0
6060
0060
1FC0
7EC0
C0C0
C0C0
C1C0
E780
7CC0
0000
1C00
1800
1800
ENDCHAR
STARTCHAR 1EAE
ENCODING 7854
SWIDTH 675 0
DWIDTH 15 0
BBX 14 20 0 0
BITMAP
0030
0060
0108
00F0
00E0
00E0
01A0
01B0
0330
0330
0630
0E30
0C30
1C18
1FF8
3018
3018
6018
E018
C00C
ENDCHAR
STARTCHAR 1EAF
ENCODING 7855
SWIDTH 540 0
DWIDTH 12 0
BBX 11 20 1 0
BITMAP
00E0
01C0
0180
0000
0000
0C40
0780
0000
0F00
1FC0
30E0
6060
0060
1FC0
7EC0
C0C0
C0C0
C1C0
E780
7CC0
ENDCHAR
STARTCHAR 1EB0
ENCODING 7856
SWIDTH 675 0
DWIDTH 15 0
BBX 14 20 0 0
BITMAP
00C0
0020
0108
00F0
00E0
00E0
01A0
01B0
0330
0330
0630
0E30
0C30
1C18
1FF8
3018
3018
6018
E018
C00C
ENDCHAR
STARTCHAR 1EB1
ENCODING 7857
SWIDTH 540 0
DWIDTH 12 0
BBX 11 20 1 0
BITMAP
0300
0300
0180
0000
0000
0C40
0780
0000
0F00
1FC0
30E0
6060
0060
1FC0
7EC0
C0C0
C0C0
C1C0
E780
7CC0
ENDCHAR
STARTCHAR 1EB2
ENCODING 7858
SWIDTH 675 0
DWIDTH 15 0
BBX 14 20 0 0
BITMAP
0078
0030
0108
00F0
00E0
00E0
01A0
01B0
0330
0330
0630
0E30
0C30
1C18
1FF8
3018
3018
6018
E018
C00C
ENDCHAR
STARTCHAR 1EB3
ENCODING 7859
SWIDTH 540 0
DWIDTH 12 0
BBX 11 20 1 0
BITMAP
03C0
0060
01C0
0000
0000
0C40
0780
0000
0F00
1FC0
30E0
6060
0060
1FC0
7EC0
C0C0
C0C0
C1C0
E780
7CC0
ENDCHAR
STARTCHAR 1EB4
ENCODING 7860
SWIDTH 675 0
DWIDTH 15 0
BBX 14 20 0 0
BITMAP
00E4
0118
0108
00F0
00E0
00E0
01A0
01B0
0330
0330
0630
0E30
0C30
1C18
1FF8
3018
3018
6018
E018
C00C
ENDCHAR
STARTCHAR 1EB5
ENCODING 7861
SWIDTH 540 0
DWIDTH 12 0
BBX 11 19 1 0
BITMAP
07A0
0DE0
0000
0000
0C40
0780
0000
0F00
1FC0
30E0
6060
0060
1FC0
7EC0
C0C0
C0C0
C1C0
E780
7CC0
ENDCHAR
STARTCHAR 1EB6
ENCODING 7862
SWIDTH 675 0
DWIDTH 15 0
BBX 14 21 0 -4
BITMAP
00F8
00E0
00E0
01A0
01B0
0330
0330
0630
0E30
0C30
1C18
1FF8
3018
3018
6018
E018
C00C
0000
0700
0600
0600
ENDCHAR
STARTCHAR 1EB7
ENCODING 7863
SWIDTH 540 0
DWIDTH 12 0
BBX 11 19 1 -4
BITMAP
0C40
0780
0000
0F00
1FC0
30E0
6060
0060
1FC0
7EC0
C0C0
C0C0
C1C0
E780
7CC0
0000
1C00
1800
1800
ENDCHAR
STARTCHAR 1EB8
ENCODING 7864
SWIDTH 675 0
DWIDTH 15 0
BBX 15 20 1 -4
BITMAP
1FFE
1FFE
1800
1800
3800
3000
3000
3FF8
3FF8
6000
6000
6000
6000
6000
FFF0
FFF0
0000
0600
0600
0600
ENDCHAR
STARTCHAR 1EB9
ENCODING 7865
SWIDTH 540 0
DWIDTH 12 0
BBX 11 16 1 -4
BITMAP
0700
1FC0
30C0
6060
6060
FFE0
FFE0
C000
C0C0
61C0
7380
3F00
0000
1C00
1800
1800
ENDCHAR
STARTCHAR 1EBA
ENCODING 7866
SWIDTH 675 0
DWIDTH 15 0
BBX 15 20 1 0
BITMAP
00E0
0030
0060
0000
1FFE
1FFE
1800
1800
3800
3000
3000
3FF8
3FF8
6000
6000
6000
6000
6000
FFF0
FFF0
ENDCHAR
STARTCHAR 1EBB
ENCODING 7867
SWIDTH 540 0
DWIDTH 12 0
BBX 11 17 1 0
BITMAP
0700
0180
0180
0200
0000
0700
1FC0
30C0
6060
6060
FFE0
FFE0
C000
C0C0
61C0
7380
3F00
ENDCHAR
STARTCHAR 1EBC
ENCODING 7868
SWIDTH 675 0
DWIDTH 15 0
BBX 15 19 1 0
BITMAP
03D8
0270
0000
1FFE
1FFE
1800
1800
3800
3000
3000
3FF8
3FF8
6000
6000
6000
6000
6000
FFF0
FFF0
ENDCHAR
STARTCHAR 1EBD
ENCODING 7869
SWIDTH 540 0
DWIDTH 12 0
BBX 11 16 1 0
BITMAP
0C40
1FC0
1180
0000
0700
1FC0
30C0
6060
6060
FFE0
FFE0
C000
C0C0
61C0
7380
3F00
ENDCHAR
STARTCHAR 1EBE
ENCODING 7870
SWIDTH 675 0
DWIDTH 15 0
BBX 15 20 1 0
BITMAP
0070
0040
00E0
0330
1FFE
1FFE
1800
1800
3800
3000
3000
3FF8
3FF8
6000
6000
6000
6000
6000
FFF0
FFF0
ENDCHAR
STARTCHAR 1EBF
ENCODING 7871
SWIDTH 540 0
DWIDTH 12 0
BBX 11 20 1 0
BITMAP
00E0
00C0
0180
0000
0380
0680
0CC0
0000
0700
1FC0
30C0
6060
6060
FFE0
FFE0
C000
C0C0
61C0
7380
3F00
ENDCHAR
STARTCHAR 1EC0
ENCODING 7872
SWIDTH 675 0
DWIDTH 15 0
BBX 15 20 1 0
BITMAP
00C0
0060
00E0
0330
1FFE
1FFE
1800
1800
3800
3000
3000
3FF8
3FF8
6000
6000
6000
6000
6000
FFF0
FFF0
ENDCHAR
STARTCHAR 1EC1
ENCODING 7873
SWIDTH 540 0
DWIDTH 12 0
BBX 11 20 1 0
BITMAP
0300
0180
0080
0000
0380
0680
0CC0
0000
0700
1FC0
30C0
6060
6060
FFE0
FFE0
C000
C0C0
61C0
7380
3F00
ENDCHAR
STARTCHAR 1EC2
ENCODING 7874
SWIDTH 675 0
DWIDTH 15 0
BBX 15 20 1 0
BITMAP
00F0
0060
00E0
0330
1FFE
1FFE
1800
1800
3800
3000
3000
3FF8
3FF8
6000
6000
6000
6000
6000
FFF0
FFF0
ENDCHAR
STARTCHAR 1EC3
ENCODING 7875
SWIDTH 540 0
DWIDTH 12 0
BBX 11 20 1 0
BITMAP
01C0
0060
00C0
0000
0380
0680
0CC0
0000
0700
1FC0
30C0
6060
6060
FFE0
FFE0
C000
C0C0
61C0
7380
3F00
ENDCHAR
STARTCHAR 1EC4
ENCODING 7876
SWIDTH 675 0
DWIDTH 15 0
BBX 15 20 1 0
BITMAP
01C8
0230
00E0
0330
1FFE
1FFE
1800
1800
3800
3000
3000
3FF8
3FF8
6000
6000
6000
6000
6000
FFF0
FFF0
ENDCHAR
STARTCHAR 1EC5
ENCODING 7877
SWIDTH 540 0
DWIDTH 12 0
BBX 11 19 1 0
BITMAP
07A0
0DE0
0000
0380
0680
0CC0
0000
0700
1FC0
30C0
6060
6060
FFE0
FFE0
C000
C0C0
61C0
7380
3F00
ENDCHAR
STARTCHAR 1EC6
ENCODING 7878
SWIDTH 675 0
DWIDTH 15 0
BBX 15 22 1 -4
BITMAP
00E0
0330
1FFE
1FFE
1800
1800
3800
3000
3000
3FF8
3FF8
6000
6000
6000
6000
6000
FFF0
FFF0
0000
0600
0600
0600
ENDCHAR
STARTCHAR 1EC7
ENCODING 7879
SWIDTH 540 0
DWIDTH 12 0
BBX 11 20 1 -4
BITMAP
0380
0680
0CC0
0000
0700
1FC0
30C0
6060
6060
FFE0
FFE0
C000
C0C0
61C0
7380
3F00
0000
1C00
1800
1800
ENDCHAR
STARTCHAR 1EC8
ENCODING 7880
SWIDTH 270 0
DWIDTH 6 0
BBX 8 20 1 0
BITMAP
1E
03
0E
00
0C
18
18
18
18
38
30
30
30
30
70
60
60
60
60
C0
ENDCHAR
STARTCHAR 1EC9
ENCODING 7881
SWIDTH 225 0
DWIDTH 5 0
BBX 6 17 1 0
BITMAP
38
0C
0C
10
00
30
30
30
60
60
60
60
60
C0
C0
C0
C0
ENDCHAR
STARTCHAR 1ECA
ENCODING 7882
SWIDTH 270 0
DWIDTH 6 0
BBX 6 20 1 -4
BITMAP
0C
18
18
18
18
38
30
30
30
30
70
60
60
60
60
C0
00
C0
C0
C0
ENDCHAR
STARTCHAR 1ECB
ENCODING 7883
SWIDTH 225 0
DWIDTH 5 0
BBX 6 20 0 -4
BITMAP
0C
0C
00
00
18
18
18
30
30
30
30
30
60
60
60
60
00
C0
C0
C0
ENDCHAR
STARTCHAR 1ECC
ENCODING 7884
SWIDTH 765 0
DWIDTH 17 0
BBX 15 20 2 -4
BITMAP
07F0
0FF8
381C
300C
6006
6006
E006
C006
C006
C006
C00E
C00C
601C
7038
3FF0
1FC0
0000
0700
0600
0600
ENDCHAR
STARTCHAR 1ECD
ENCODING 7885
SWIDTH 540 0
DWIDTH 12 0
BBX 11 16 1 -4
BITMAP
0F00
1FC0
30C0
6060
6060
C060
C060
C060
C0C0
E1C0
7380
3F00
0000
1C00
1800
1800
ENDCHAR
STARTCHAR 1ECE
ENCODING 7886
SWIDTH 765 0
DWIDTH 17 0
BBX 15 20 2 0
BITMAP
01E0
0020
00E0
0000
07F0
0FF8
381C
300C
6006
6006
E006
C006
C006
C006
C00E
C00C
601C
7038
3FF0
1FC0
ENDCHAR
STARTCHAR 1ECF
ENCODING 7887
SWIDTH 540 0
DWIDTH 12 0
BBX 11 17 1 0
BITMAP
0780
01C0
00C0
0300
0000
0F00
1FC0
30C0
6060
6060
C060
C060
C060
C0C0
E1C0
7380
3F00
ENDCHAR
STARTCHAR 1ED0
ENCODING 7888
SWIDTH 765 0
DWIDTH 17 0
BBX 15 20 2 0
BITMAP
0060
00C0
01E0
0730
07F0
0FF8
381C
300C
6006
6006
E006
C006
C006
C006
C00E
C00C
601C
7038
3FF0
1FC0
ENDCHAR
STARTCHAR 1ED1
ENCODING 7889
SWIDTH 540 0
DWIDTH 12 0
BBX 11 20 1 0
BITMAP
00C0
0180
0100
0000
0380
0780
0CC0
0000
0F00
1FC0
30C0
6060
6060
C060
C060
C060
C0C0
E1C0
7380
3F00
ENDCHAR
STARTCHAR 1ED2
ENCODING 7890
SWIDTH 765 0
DWIDTH 17 0
BBX 15 20 2 0
BITMAP
0180
0040
01E0
0730
07F0
0FF8
381C
300C
6006
6006
E006
C006
C006
C006
C00E
C00C
601C
7038
3FF0
1FC0
ENDCHAR
STARTCHAR 1ED3
ENCODING 7891
SWIDTH 540 0
DWIDTH 12 0
BBX 11 20 1 0
BITMAP
0300
0180
0180
0000
0380
0780
0CC0
0000
0F00
1FC0
30C0
6060
6060
C060
C060
C060
C0C0
E1C0
7380
3F00
ENDCHAR
STARTCHAR 1ED4
ENCODING 7892
SWIDTH 765 0
DWIDTH 17 0
BBX 15 20 2 0
BITMAP
01E0
0060
01E0
0730
07F0
0FF8
381C
300C
6006
6006
E006
C006
C006
C006
C00E
C00C
601C
7038
3FF0
1FC0
ENDCHAR
STARTCHAR 1ED5
ENCODING 7893
SWIDTH 540 0
DWIDTH 12 0
BBX 11 20 1 0
BITMAP
03C0
0060
01C0
0000
0380
0780
0CC0
0000
0F00
1FC0
30C0
6060
6060
C060
C060
C060
C0C0
E1C0
7380
3F00
ENDCHAR
STARTCHAR 1ED6
ENCODING 7894
SWIDTH 765 0
DWIDTH 17 0
BBX 15 20 2 0
BITMAP
0198
0270
01E0
0730
07F0
0FF8
381C
300C
6006
6006
E006
C006
C006
C006
C00E
C00C
601C
7038
3FF0
1FC0
ENDCHAR
STARTCHAR 1ED7
ENCODING 7895
SWIDTH 540 0
DWIDTH 12 0
BBX 11 19 1 0
BITMAP
07A0
0DE0
0000
0380
0780
0CC0
0000
0F00
1FC0
30C0
6060
6060
C060
C060
C060
C0C0
E1C0
7380
3F00
ENDCHAR
STARTCHAR 1ED8
ENCODING 7896
SWIDTH 765 0
DWIDTH 17 0
BBX 15 22 2 -4
BITMAP
03E0
0000
07F0
0FF8
381C
300C
6006
6006
E006
C006
C006
C006
C00E
C00C
601C
7038
3FF0
1FC0
0000
0700
0600
0600
ENDCHAR
STARTCHAR 1ED9
ENCODING 7897
SWIDTH 540 0
DWIDTH 12 0
BBX 11 20 1 -4
BITMAP
0380
0780
0CC0
0000
0F00
1FC0
30C0
6060
6060
C060
C060
C060
C0C0
E1C0
7380
3F00
0000
1C00
1800
1800
ENDCHAR
STARTCHAR 1EDA
ENCODING 7898
SWIDTH 810 0
DWIDTH 18 0
BBX 18 20 2 0
BITMAP
006000
00C000
018000
000000
07F0C0
1FF9C0
381C80
300C80
600700
600600
E00600
C00600
C00600
C00600
C00E00
C00C00
601C00
703800
3FF000
1FC000
ENDCHAR
STARTCHAR 1EDB
ENCODING 7899
SWIDTH 585 0
DWIDTH 13 0
BBX 14 16 1 0
BITMAP
0180
0300
0200
0000
0F0C
1FCC
30DC
6068
6068
C070
C060
C060
C0C0
E1C0
7380
3F00
ENDCHAR
STARTCHAR 1EDC
ENCODING 7900
SWIDTH 810 0
DWIDTH 18 0
BBX 18 20 2 0
BITMAP
01C000
00C000
006000
000000
07F0C0
1FF9C0
381C80
300C80
600700
600600
E00600
C00600
C00600
C00600
C00E00
C00C00
601C00
703800
3FF000
1FC000
ENDCHAR
STARTCHAR 1EDD
ENCODING 7901
SWIDTH 585 0
DWIDTH 13 0
BBX 14 16 1 0
BITMAP
0300
0300
0180
0000
0F0C
1FCC
30DC
6068
6068
C070
C060
C060
C0C0
E1C0
7380
3F00
ENDCHAR
STARTCHAR 1EDE
ENCODING 7902
SWIDTH 810 0
DWIDTH 18 0
BBX 18 20 2 0
BITMAP
01E000
002000
00C000
000000
07F0C0
1FF9C0
381C80
300C80
600700
600600
E00600
C00600
C00600
C00600
C00E00
C00C00
601C00
703800
3FF000
1FC000
ENDCHAR
STARTCHAR 1EDF
ENCODING 7903
SWIDTH 585 0
DWIDTH 13 0
BBX 14 17 1 0
BITMAP
0780
01C0
00C0
0300
0000
0F0C
1FCC
30DC
6068
6068
C070
C060
C060
C0C0
E1C0
7380
3F00
ENDCHAR
STARTCHAR 1EE0
ENCODING 7904
SWIDTH 810 0
DWIDTH 18 0
BBX 18 19 2 0
BITMAP
03D000
06F000
000000
07F0C0
1FF9C0
381C80
300C80
600700
600600
E00600
C00600
C00600
C00600
C00E00
C00C00
601C00
703800
3FF000
1FC000
ENDCHAR
STARTCHAR 1EE1
ENCODING 7905
SWIDTH 585 0
DWIDTH 13 0
BBX 14 16 1 0
BITMAP
0C40
1FC0
1180
0000
0F0C
1FCC
30DC
6068
6068
C070
C060
C060
C0C0
E1C0
7380
3F00
ENDCHAR
STARTCHAR 1EE2
ENCODING 7906
SWIDTH 810 0
DWIDTH 18 0
BBX 18 20 2 -4
BITMAP
07F0C0
1FF9C0
381C80
300C80
600700
600600
E00600
C00600
C00600
C00600
C00E00
C00C00
601C00
703800
3FF000
1FC000
000000
070000
060000
060000
ENDCHAR
STARTCHAR 1EE3
ENCODING 7907
SWIDTH 585 0
DWIDTH 13 0
BBX 14 16 1 -4
BITMAP
0F0C
1FCC
30DC
6068
6068
C070
C060
C060
C0C0
E1C0
7380
3F00
0000
1C00
1800
1800
ENDCHAR
STARTCHAR 1EE4
ENCODING 7908
SWIDTH 720 0
DWIDTH 16 0
BBX 15 20 2 -4
BITMAP
3006
300C
300C
300C
700C
601C
6018
6018
6018
E018
C038
C030
C030
6060
7FC0
3F80
0000
0C00
0C00
0C00
ENDCHAR
STARTCHAR 1EE5
ENCODING 7909
SWIDTH 540 0
DWIDTH 12 0
BBX 11 16 1 -4
BITMAP
3060
3060
3060
2060
6060
60C0
60C0
60C0
C1C0
C180
6780
7D80
0000
1800
3800
3000
ENDCHAR
STARTCHAR 1EE6
ENCODING 7910
SWIDTH 720 0
DWIDTH 16 0
BBX 15 20 2 0
BITMAP
01E0
0020
00E0
0000
3006
300C
300C
300C
700C
601C
6018
6018
6018
E018
C038
C030
C030
6060
7FC0
3F80
ENDCHAR
STARTCHAR 1EE7
ENCODING 7911
SWIDTH 540 0
DWIDTH 12 0
BBX 11 17 1 0
BITMAP
0780
01C0
00C0
0300
0000
3060
3060
3060
2060
6060
60C0
60C0
60C0
C1C0
C180
6780
7D80
ENDCHAR
STARTCHAR 1EE8
ENCODING 7912
SWIDTH 810 0
DWIDTH 18 0
BBX 18 20 2 0
BITMAP
006000
00C000
008000
000000
3006C0
300CC0
300C40
300C40
700C80
601F00
601800
601800
601800
E01800
C03800
C03000
C03000
606000
7FE000
3F8000
ENDCHAR
STARTCHAR 1EE9
ENCODING 7913
SWIDTH 630 0
DWIDTH 14 0
BBX 15 16 1 0
BITMAP
0180
0380
0300
0000
3066
3066
306E
2064
6064
60F8
60C0
60C0
C1C0
C180
6780
7D80
ENDCHAR
STARTCHAR 1EEA
ENCODING 7914
SWIDTH 810 0
DWIDTH 18 0
BBX 18 20 2 0
BITMAP
018000
00C000
00C000
000000
3006C0
300CC0
300C40
300C40
700C80
601F00
601800
601800
601800
E01800
C03800
C03000
C03000
606000
7FE000
3F8000
ENDCHAR
STARTCHAR 1EEB
ENCODING 7915
SWIDTH 630 0
DWIDTH 14 0
BBX 15 16 1 0
BITMAP
0600
0300
0300
0000
3066
3066
306E
2064
6064
60F8
60C0
60C0
C1C0
C180
6780
7D80
ENDCHAR
STARTCHAR 1EEC
ENCODING 7916
SWIDTH 810 0
DWIDTH 18 0
BBX 18 20 2 0
BITMAP
01E000
002000
00E000
000000
3006C0
300CC0
300C40
300C40
700C80
601F00
601800
601800
601800
E01800
C03800
C03000
C03000
606000
7FE000
3F8000
ENDCHAR
STARTCHAR 1EED
ENCODING 7917
SWIDTH 630 0
DWIDTH 14 0
BBX 15 17 1 0
BITMAP
0780
01C0
00C0
0300
0000
3066
3066
306E
2064
6064
60F8
60C0
60C0
C1C0
C180
6780
7D80
ENDCHAR
STARTCHAR 1EEE
ENCODING 7918
SWIDTH 810 0
DWIDTH 18 0
BBX 18 19 2 0
BITMAP
03D000
06F000
000000
3006C0
300CC0
300C40
300C40
700C80
601F00
601800
601800
601800
E01800
C03800
C03000
C03000
606000
7FE000
3F8000
ENDCHAR
STARTCHAR 1EEF
ENCODING 7919
SWIDTH 630 0
DWIDTH 14 0
BBX 15 16 1 0
BITMAP
0620
0FE0
08C0
0000
3066
3066
306E
2064
6064
60F8
60C0
60C0
C1C0
C180
6780
7D80
ENDCHAR
STARTCHAR 1EF0
ENCODING 7920
SWIDTH 810 0
DWIDTH 18 0
BBX 18 20 2 -4
BITMAP
3006C0
300CC0
300C40
300C40
700C80
601F00
601800
601800
601800
E01800
C03800
C03000
C03000
606000
7FE000
3F8000
000000
0C0000
0C0000
0C0000
ENDCHAR
STARTCHAR 1EF1
ENCODING 7921
SWIDTH 630 0
DWIDTH 14 0
BBX 15 16 1 -4
BITMAP
3066
3066
306E
2064
6064
60F8
60C0
60C0
C1C0
C180
6780
7D80
0000
1800
3800
3000
ENDCHAR
STARTCHAR 1EF2
ENCODING 7922
SWIDTH 675 0
DWIDTH 15 0
BBX 14 20 3 0
BITMAP
0600
0300
0100
0000
C01C
E018
6030
7070
30E0
39C0
1980
1B80
0F00
0E00
0C00
0C00
0C00
0C00
0C00
1800
ENDCHAR
STARTCHAR 1EF3
ENCODING 7923
SWIDTH 495 0
DWIDTH 11 0
BBX 12 21 0 -5
BITMAP
0700
0300
0100
0000
3030
3030
3060
1060
18C0
18C0
1980
1980
1B00
0E00
0E00
0C00
0C00
1800
3800
F000
C000
ENDCHAR
STARTCHAR 1EF4
ENCODING 7924
SWIDTH 675 0
DWIDTH 15 0
BBX 14 20 3 -4
BITMAP
C01C
E018
6030
7070
30E0
39C0
1980
1B80
0F00
0E00
0C00
0C00
0C00
0C00
0C00
1800
0000
1800
1800
3800
ENDCHAR
STARTCHAR 1EF5
ENCODING 7925
SWIDTH 495 0
DWIDTH 11 0
BBX 12 17 0 -5
BITMAP
3030
3030
3060
1060
18C0
18C0
1980
1980
1B00
0E00
0E00
0C00
0C00
1980
3980
F380
C000
ENDCHAR
STARTCHAR 1EF6
ENCODING 7926
SWIDTH 675 0
DWIDTH 15 0
BBX 14 20 3 0
BITMAP
0780
00C0
0380
0000
C01C
E018
6030
7070
30E0
39C0
1980
1B80
0F00
0E00
0C00
0C00
0C00
0C00
0C00
1800
ENDCHAR
STARTCHAR 1EF7
ENCODING 7927
SWIDTH 495 0
DWIDTH 11 0
BBX 12 22 0 -5
BITMAP
0380
00E0
00C0
0180
0000
3030
3030
3060
1060
18C0
18C0
1980
1980
1B00
0E00
0E00
0C00
0C00
1800
3800
F000
C000
ENDCHAR
STARTCHAR 1EF8
ENCODING 7928
SWIDTH 675 0
DWIDTH 15 0
BBX 14 19 3 0
BITMAP
0F60
09C0
0000
C01C
E018
6030
7070
30E0
39C0
1980
1B80
0F00
0E00
0C00
0C00
0C00
0C00
0C00
1800
ENDCHAR
STARTCHAR 1EF9
ENCODING 7929
SWIDTH 495 0
DWIDTH 11 0
BBX 12 21 0 -5
BITMAP
0620
0FE0
08C0
0000
3030
3030
3060
1060
18C0
18C0
1980
1980
1B00
0E00
0E00
0C00
0C00
1800
3800
F000
C000
ENDCHAR
STARTCHAR 200C
ENCODING 8204
SWIDTH 0 0
DWIDTH 0 0
BBX 1 15 -1 -2
BITMAP
80
80
80
80
80
80
80
80
80
80
80
80
80
80
80
ENDCHAR
STARTCHAR 200D
ENCODING 8205
SWIDTH 0 0
DWIDTH 0 0
BBX 4 17 -2 -3
BITMAP
90
60
60
D0
40
40
40
40
40
40
40
40
40
40
40
40
40
ENDCHAR
STARTCHAR 200E
ENCODING 8206
SWIDTH 0 0
DWIDTH 0 0
BBX 4 17 0 -3
BITMAP
20
10
F0
A0
80
80
80
80
80
80
80
80
80
80
80
80
80
ENDCHAR
STARTCHAR 200F
ENCODING 8207
SWIDTH 0 0
DWIDTH 0 0
BBX 4 17 -4 -3
BITMAP
40
80
F0
50
10
10
10
10
10
10
10
10
10
10
10
10
10
ENDCHAR
STARTCHAR 2013
ENCODING 8211
SWIDTH 540 0
DWIDTH 12 0
BBX 12 2 0 5
BITMAP
FFF0
FFF0
ENDCHAR
STARTCHAR 2014
ENCODING 8212
SWIDTH 990 0
DWIDTH 22 0
BBX 22 2 0 5
BITMAP
FFFFFC
FFFFFC
ENDCHAR
STARTCHAR 2015
ENCODING 8213
SWIDTH 990 0
DWIDTH 22 0
BBX 21 2 1 5
BITMAP
FFFFF8
FFFFF8
ENDCHAR
STARTCHAR 2017
ENCODING 8215
SWIDTH 540 0
DWIDTH 12 0
BBX 13 4 -1 -7
BITMAP
FFF8
0000
0000
FFF8
ENDCHAR
STARTCHAR 2018
ENCODING 8216
SWIDTH 225 0
DWIDTH 5 0
BBX 3 5 3 11
BITMAP
20
40
80
C0
C0
ENDCHAR
STARTCHAR 2019
ENCODING 8217
SWIDTH 225 0
DWIDTH 5 0
BBX 3 5 3 10
BITMAP
60
60
20
40
C0
ENDCHAR
STARTCHAR 201A
ENCODING 8218
SWIDTH 225 0
DWIDTH 5 0
BBX 3 5 0 -3
BITMAP
60
60
20
40
80
ENDCHAR
STARTCHAR 201B
ENCODING 8219
SWIDTH 225 0
DWIDTH 5 0
BBX 3 6 3 10
BITMAP
60
60
80
80
C0
40
ENDCHAR
STARTCHAR 201C
ENCODING 8220
SWIDTH 315 0
DWIDTH 7 0
BBX 7 5 2 11
BITMAP
32
44
48
6C
EC
ENDCHAR
STARTCHAR 201D
ENCODING 8221
SWIDTH 315 0
DWIDTH 7 0
BBX 7 6 2 10
BITMAP
76
66
22
24
44
88
ENDCHAR
STARTCHAR 201E
ENCODING 8222
SWIDTH 315 0
DWIDTH 7 0
BBX 6 5 0 -3
BITMAP
6C
EC
44
48
98
ENDCHAR
STARTCHAR 2020
ENCODING 8224
SWIDTH 540 0
DWIDTH 12 0
BBX 11 20 2 -4
BITMAP
0300
0600
0600
0600
0600
FFE0
FFE0
0C00
0C00
0C00
0800
1800
1800
1800
1800
3000
3000
3000
3000
3000
ENDCHAR
STARTCHAR 2021
ENCODING 8225
SWIDTH 540 0
DWIDTH 12 0
BBX 13 20 0 -4
BITMAP
00C0
0180
0180
0180
3FF8
3FF8
0300
0300
0300
0300
0300
0600
0600
0600
FFE0
FFE0
0C00
0C00
0C00
0C00
ENDCHAR
STARTCHAR 2022
ENCODING 8226
SWIDTH 360 0
DWIDTH 8 0
BBX 6 5 1 6
BITMAP
78
FC
FC
F8
70
ENDCHAR
STARTCHAR 2026
ENCODING 8230
SWIDTH 990 0
DWIDTH 22 0
BBX 18 2 3 0
BITMAP
E0C1C0
C0C180
ENDCHAR
STARTCHAR 202A
ENCODING 8234
SWIDTH 0 0
DWIDTH 0 0
BBX 4 15 0 -3
BITMAP
F0
80
80
80
80
80
80
80
80
80
80
80
80
80
80
ENDCHAR
STARTCHAR 202B
ENCODING 8235
SWIDTH 0 0
DWIDTH 0 0
BBX 4 15 -4 -3
BITMAP
F0
10
10
10
10
10
10
10
10
10
10
10
10
10
10
ENDCHAR
STARTCHAR 202C
ENCODING 8236
SWIDTH 0 0
DWIDTH 0 0
BBX 6 17 -3 -3
BITMAP
FC
FC
FC
FC
20
20
20
20
20
20
20
20
20
20
20
20
20
ENDCHAR
STARTCHAR 202D
ENCODING 8237
SWIDTH 0 0
DWIDTH 0 0
BBX 5 17 -3 -3
BITMAP
F8
80
80
80
78
20
20
20
20
20
20
20
20
20
20
20
20
ENDCHAR
STARTCHAR 202E
ENCODING 8238
SWIDTH 0 0
DWIDTH 0 0
BBX 5 17 -2 -3
BITMAP
F8
08
08
08
F0
40
40
40
40
40
40
40
40
40
40
40
40
ENDCHAR
STARTCHAR 2030
ENCODING 8240
SWIDTH 990 0
DWIDTH 22 0
BBX 21 17 1 -1
BITMAP
3C1800
663000
662000
466000
464000
C6C000
4D8000
790000
033070
02F8F8
06CD88
0C8D88
098D18
198918
319910
20F1F0
606040
ENDCHAR
STARTCHAR 2032
ENCODING 8242
SWIDTH 180 0
DWIDTH 4 0
BBX 3 6 3 10
BITMAP
E0
C0
C0
C0
C0
80
ENDCHAR
STARTCHAR 2033
ENCODING 8243
SWIDTH 360 0
DWIDTH 8 0
BBX 6 6 3 10
BITMAP
6C
EC
CC
CC
C8
88
ENDCHAR
STARTCHAR 2039
ENCODING 8249
SWIDTH 315 0
DWIDTH 7 0
BBX 6 10 1 1
BITMAP
0C
18
30
60
60
C0
40
60
20
30
ENDCHAR
STARTCHAR 203A
ENCODING 8250
SWIDTH 315 0
DWIDTH 7 0
BBX 5 10 1 1
BITMAP
20
30
30
18
18
18
38
30
60
C0
ENDCHAR
STARTCHAR 203C
ENCODING 8252
SWIDTH 495 0
DWIDTH 11 0
BBX 11 16 1 0
BITMAP
1CE0
18C0
18C0
18C0
19C0
3180
3180
3180
3180
2100
2100
2300
0000
0000
6700
E600
ENDCHAR
STARTCHAR 203E
ENCODING 8254
SWIDTH 315 0
DWIDTH 7 0
BBX 8 2 2 13
BITMAP
FF
FF
ENDCHAR
STARTCHAR 2044
ENCODING 8260
SWIDTH 180 0
DWIDTH 4 0
BBX 17 17 -6 -1
BITMAP
000180
000300
000600
000C00
001800
003000
006000
00C000
008000
010000
030000
060000
0C0000
180000
300000
600000
C00000
ENDCHAR
STARTCHAR 206A
ENCODING 8298
SWIDTH 0 0
DWIDTH 0 0
BBX 4 17 -2 -3
BITMAP
F0
40
40
40
F0
40
40
40
40
40
40
40
40
40
40
40
40
ENDCHAR
STARTCHAR 206B
ENCODING 8299
SWIDTH 0 0
DWIDTH 0 0
BBX 6 17 -3 -3
BITMAP
FC
84
84
84
78
20
20
20
20
20
20
20
20
20
20
20
20
ENDCHAR
STARTCHAR 206C
ENCODING 8300
SWIDTH 0 0
DWIDTH 0 0
BBX 4 17 -2 -3
BITMAP
F0
F0
60
40
40
40
40
40
40
40
40
40
40
40
40
40
40
ENDCHAR
STARTCHAR 206D
ENCODING 8301
SWIDTH 0 0
DWIDTH 0 0
BBX 4 17 -2 -3
BITMAP
40
60
F0
F0
40
40
40
40
40
40
40
40
40
40
40
40
40
ENDCHAR
STARTCHAR 206E
ENCODING 8302
SWIDTH 0 0
DWIDTH 0 0
BBX 4 17 -2 -3
BITMAP
60
90
90
60
40
40
40
40
40
40
40
40
40
40
40
40
40
ENDCHAR
STARTCHAR 206F
ENCODING 8303
SWIDTH 0 0
DWIDTH 0 0
BBX 4 17 -2 -3
BITMAP
C0
40
40
40
F0
40
40
40
40
40
40
40
40
40
40
40
40
ENDCHAR
STARTCHAR 207F
ENCODING 8319
SWIDTH 360 0
DWIDTH 8 0
BBX 8 7 1 6
BITMAP
2E
33
63
62
42
46
C6
ENDCHAR
STARTCHAR 20A3
ENCODING 8355
SWIDTH 540 0
DWIDTH 12 0
BBX 13 16 0 0
BITMAP
0FF8
0FF8
0C00
0C00
1C00
1800
1800
1FF0
1FF0
3000
3000
3000
FE00
3000
6000
6000
ENDCHAR
STARTCHAR 20A4
ENCODING 8356
SWIDTH 540 0
DWIDTH 12 0
BBX 12 16 1 0
BITMAP
07C0
0E70
1C30
1810
1800
1800
7F00
1800
1800
FF00
FE00
1000
3000
6000
FFC0
C7E0
ENDCHAR
STARTCHAR 20A7
ENCODING 8359
SWIDTH 1080 0
DWIDTH 24 0
BBX 24 16 0 0
BITMAP
0FC000
1FE300
187300
183600
183FFC
183FFE
3036C3
30E6C3
3FECE0
3F0C78
700C3C
600C0E
600F06
601986
601DCC
E00EFC
ENDCHAR
STARTCHAR 20AA
ENCODING 8362
SWIDTH 810 0
DWIDTH 18 0
BBX 17 12 2 0
BITMAP
3FC180
3FF180
303100
603300
623300
662300
666300
466200
C60600
C40600
CFFC00
CFF800
ENDCHAR
STARTCHAR 20AB
ENCODING 8363
SWIDTH 495 0
DWIDTH 11 0
BBX 11 14 1 2
BITMAP
0040
03E0
00C0
0E80
1980
3180
2180
2180
2100
2300
3D00
0000
0000
FF00
ENDCHAR
STARTCHAR 20AC
ENCODING 8364
SWIDTH 540 0
DWIDTH 12 0
BBX 13 16 1 0
BITMAP
03F0
0FF8
1C08
1800
3000
3000
FFC0
6000
6000
FFC0
6000
6000
7000
3800
1EC0
0FC0
ENDCHAR
STARTCHAR 2105
ENCODING 8453
SWIDTH 900 0
DWIDTH 20 0
BBX 17 17 2 -1
BITMAP
3C0600
660400
420C00
C01800
803000
842000
CC6000
78C000
018F00
031180
023080
062080
0C2080
182180
303100
201E00
600000
ENDCHAR
STARTCHAR 2113
ENCODING 8467
SWIDTH 315 0
DWIDTH 7 0
BBX 9 16 0 0
BITMAP
0780
0680
0C80
0D80
0F00
1E00
1C00
1800
3000
F000
3000
6000
6000
6000
6800
7800
ENDCHAR
STARTCHAR 2116
ENCODING 8470
SWIDTH 1080 0
DWIDTH 24 0
BBX 23 16 1 0
BITMAP
1C0600
1C0600
1C0600
1E0638
3E0C7C
330CC6
330D86
330D86
319986
61998C
60D8DC
60D878
60D800
6073F8
C073F8
C03000
ENDCHAR
STARTCHAR 2122
ENCODING 8482
SWIDTH 990 0
DWIDTH 22 0
BBX 17 9 3 7
BITMAP
FEE180
10E380
10E280
10E280
10D680
10D480
10D480
10CC80
10C880
ENDCHAR
STARTCHAR 2126
ENCODING 8486
SWIDTH 765 0
DWIDTH 17 0
BBX 15 16 2 0
BITMAP
0FE0
1EF0
3038
701C
600C
E00C
E00C
E00C
E00C
600C
600C
7018
3038
1870
FCFE
FCFE
ENDCHAR
STARTCHAR 212E
ENCODING 8494
SWIDTH 585 0
DWIDTH 13 0
BBX 11 12 1 0
BITMAP
0F00
3080
4040
C060
C060
FFE0
C000
C000
C000
4020
6040
1F80
ENDCHAR
STARTCHAR 2153
ENCODING 8531
SWIDTH 855 0
DWIDTH 19 0
BBX 17 17 1 -1
BITMAP
060180
0E0300
340600
0C0C00
0C1800
0C3000
086000
084000
008700
019D80
030080
060180
0C0700
180180
303180
601F00
C00600
ENDCHAR
STARTCHAR 2154
ENCODING 8532
SWIDTH 855 0
DWIDTH 19 0
BBX 17 17 1 -1
BITMAP
3E0180
330300
030600
060C00
1C1800
383000
606000
7E4000
008700
019D80
030080
060180
0C0700
180180
303180
601F00
C00600
ENDCHAR
STARTCHAR 215B
ENCODING 8539
SWIDTH 855 0
DWIDTH 19 0
BBX 17 17 1 -1
BITMAP
060180
0E0300
340600
0C0C00
0C1800
0C3000
086000
084000
008700
019D80
031880
060F80
0C1F00
183180
303180
601F00
C00C00
ENDCHAR
STARTCHAR 215C
ENCODING 8540
SWIDTH 855 0
DWIDTH 19 0
BBX 16 17 2 -1
BITMAP
3C03
6606
060C
1C18
1C10
0420
CC60
7CC0
018E
033B
0631
0C1F
183E
3063
2063
403E
C018
ENDCHAR
STARTCHAR 215D
ENCODING 8541
SWIDTH 855 0
DWIDTH 19 0
BBX 16 17 2 -1
BITMAP
7E03
6006
400C
7C18
0610
0620
CC60
78C0
018E
033B
0631
0C1F
183E
3063
2063
403E
8018
ENDCHAR
STARTCHAR 215E
ENCODING 8542
SWIDTH 855 0
DWIDTH 19 0
BBX 17 17 1 -1
BITMAP
3F0180
030300
060600
0C0C00
081800
183000
106000
30C000
018700
011D80
021880
060F80
0C1F00
183180
303180
601F00
C00C00
ENDCHAR
STARTCHAR 2190
ENCODING 8592
SWIDTH 990 0
DWIDTH 22 0
BBX 20 8 1 2
BITMAP
080000
180000
300000
600000
FFFFF0
700000
100000
080000
ENDCHAR
STARTCHAR 2191
ENCODING 8593
SWIDTH 495 0
DWIDTH 11 0
BBX 7 20 2 -5
BITMAP
10
10
38
7C
D6
10
10
10
10
10
10
10
10
10
10
10
10
10
10
10
ENDCHAR
STARTCHAR 2192
ENCODING 8594
SWIDTH 990 0
DWIDTH 22 0
BBX 20 8 1 2
BITMAP
000100
000080
0000C0
000060
FFFFF0
000060
0000C0
000180
ENDCHAR
STARTCHAR 2193
ENCODING 8595
SWIDTH 495 0
DWIDTH 11 0
BBX 7 20 2 -5
BITMAP
10
10
10
10
10
10
10
10
10
10
10
10
10
10
10
D6
7C
38
10
10
ENDCHAR
STARTCHAR 2194
ENCODING 8596
SWIDTH 990 0
DWIDTH 22 0
BBX 20 8 1 2
BITMAP
080100
180080
3000C0
600060
FFFFF0
700060
1000C0
080180
ENDCHAR
STARTCHAR 2195
ENCODING 8597
SWIDTH 495 0
DWIDTH 11 0
BBX 7 21 2 -5
BITMAP
10
18
38
7C
92
10
10
10
10
10
10
10
10
10
10
10
D6
7C
38
10
10
ENDCHAR
STARTCHAR 21A8
ENCODING 8616
SWIDTH 495 0
DWIDTH 11 0
BBX 7 23 2 -7
BITMAP
10
18
38
7C
92
10
10
10
10
10
10
10
10
10
10
10
D6
7C
38
10
10
00
FE
ENDCHAR
STARTCHAR 2202
ENCODING 8706
SWIDTH 495 0
DWIDTH 11 0
BBX 10 16 1 0
BITMAP
0F00
1980
3080
1080
0080
00C0
0FC0
3E80
7080
E080
C080
C180
C100
C300
C600
7C00
ENDCHAR
STARTCHAR 2206
ENCODING 8710
SWIDTH 630 0
DWIDTH 14 0
BBX 12 14 1 1
BITMAP
0600
0600
0F00
0B00
0B00
1180
1180
21C0
20C0
40C0
4060
8060
8070
FFF0
ENDCHAR
STARTCHAR 220F
ENCODING 8719
SWIDTH 810 0
DWIDTH 18 0
BBX 14 21 3 -5
BITMAP
FFFC
FFFC
C00C
C00C
C00C
C00C
C00C
C00C
C00C
C00C
C00C
C00C
C00C
C00C
C00C
C00C
C00C
C00C
C00C
C00C
C00C
ENDCHAR
STARTCHAR 2211
ENCODING 8721
SWIDTH 720 0
DWIDTH 16 0
BBX 14 21 1 -5
BITMAP
FFFC
FFFC
7000
3800
1800
1C00
0E00
0700
0380
0180
0180
0380
0700
0E00
0C00
1800
3800
7000
E000
FFFC
FFFC
ENDCHAR
STARTCHAR 2212
ENCODING 8722
SWIDTH 585 0
DWIDTH 13 0
BBX 10 2 2 7
BITMAP
FFC0
FFC0
ENDCHAR
STARTCHAR 2215
ENCODING 8725
SWIDTH 180 0
DWIDTH 4 0
BBX 17 17 -6 -1
BITMAP
000180
000300
000600
000C00
001800
003000
006000
00C000
008000
010000
030000
060000
0C0000
180000
300000
600000
C00000
ENDCHAR
STARTCHAR 2219
ENCODING 8729
SWIDTH 270 0
DWIDTH 6 0
BBX 2 2 2 7
BITMAP
C0
C0
ENDCHAR
STARTCHAR 221A
ENCODING 8730
SWIDTH 540 0
DWIDTH 12 0
BBX 11 20 1 -1
BITMAP
0020
0020
0020
0020
0040
0040
0040
0040
0040
7040
9080
1880
0880
0C80
0480
0680
0300
0300
0100
0100
ENDCHAR
STARTCHAR 221E
ENCODING 8734
SWIDTH 720 0
DWIDTH 16 0
BBX 12 7 2 4
BITMAP
61E0
FB30
8E10
8410
9A10
7130
00C0
ENDCHAR
STARTCHAR 221F
ENCODING 8735
SWIDTH 990 0
DWIDTH 22 0
BBX 14 14 4 0
BITMAP
8000
8000
8000
8000
8000
8000
8000
8000
8000
8000
8000
8000
8000
FFFC
ENDCHAR
STARTCHAR 2229
ENCODING 8745
SWIDTH 720 0
DWIDTH 16 0
BBX 12 16 3 0
BITMAP
1F80
31C0
6060
C030
8030
8010
8010
8010
8010
8010
8010
8010
8010
8010
8010
8010
ENDCHAR
STARTCHAR 222B
ENCODING 8747
SWIDTH 270 0
DWIDTH 6 0
BBX 6 22 0 -2
BITMAP
1C
1C
20
20
30
30
30
30
30
30
30
30
30
30
30
30
30
30
10
10
E0
E0
ENDCHAR
STARTCHAR 2248
ENCODING 8776
SWIDTH 540 0
DWIDTH 12 0
BBX 11 8 1 4
BITMAP
1000
7E20
FFE0
83C0
3000
7E20
EFE0
83C0
ENDCHAR
STARTCHAR 2260
ENCODING 8800
SWIDTH 540 0
DWIDTH 12 0
BBX 11 16 1 0
BITMAP
00C0
0080
0180
0100
0300
FFE0
FFE0
0600
0400
0C00
FFE0
1800
1000
1000
3000
2000
ENDCHAR
STARTCHAR 2261
ENCODING 8801
SWIDTH 585 0
DWIDTH 13 0
BBX 10 12 2 2
BITMAP
FFC0
FFC0
0000
0000
0000
FFC0
FFC0
0000
0000
0000
FFC0
FFC0
ENDCHAR
STARTCHAR 2264
ENCODING 8804
SWIDTH 540 0
DWIDTH 12 0
BBX 11 13 1 2
BITMAP
00E0
03E0
0F00
7C00
E000
F000
3E00
0F80
01E0
0060
0000
FFE0
FFE0
ENDCHAR
STARTCHAR 2265
ENCODING 8805
SWIDTH 540 0
DWIDTH 12 0
BBX 11 13 1 2
BITMAP
E000
7800
1F00
07C0
00E0
01E0
0780
3E00
F000
C000
0000
FFE0
FFE0
ENDCHAR
STARTCHAR 2302
ENCODING 8962
SWIDTH 585 0
DWIDTH 13 0
BBX 10 12 2 1
BITMAP
0C00
1400
2200
4100
8080
8040
8040
8040
8040
8040
8040
FFC0
ENDCHAR
STARTCHAR 2310
ENCODING 8976
SWIDTH 585 0
DWIDTH 13 0
BBX 11 6 1 5
BITMAP
FFE0
FFE0
C000
C000
C000
C000
ENDCHAR
STARTCHAR 2320
ENCODING 8992
SWIDTH 585 0
DWIDTH 13 0
BBX 5 25 6 -6
BITMAP
30
78
80
80
80
80
80
80
80
80
80
80
80
80
80
80
80
80
80
80
80
80
80
80
80
ENDCHAR
STARTCHAR 2321
ENCODING 8993
SWIDTH 585 0
DWIDTH 13 0
BBX 4 25 3 -6
BITMAP
10
10
10
10
10
10
10
10
10
10
10
10
10
10
10
10
10
10
10
10
10
10
90
E0
40
ENDCHAR
STARTCHAR 2500
ENCODING 9472
SWIDTH 720 0
DWIDTH 16 0
BBX 16 2 0 6
BITMAP
FFFF
FFFF
ENDCHAR
STARTCHAR 2502
ENCODING 9474
SWIDTH 630 0
DWIDTH 14 0
BBX 2 27 5 -7
BITMAP
C0
C0
C0
C0
C0
C0
C0
C0
C0
C0
C0
C0
C0
C0
C0
C0
C0
C0
C0
C0
C0
C0
C0
C0
C0
C0
C0
ENDCHAR
STARTCHAR 250C
ENCODING 9484
SWIDTH 720 0
DWIDTH 16 0
BBX 9 15 7 -7
BITMAP
FF80
FF80
C000
C000
C000
C000
C000
C000
C000
C000
C000
C000
C000
C000
C000
ENDCHAR
STARTCHAR 2510
ENCODING 9488
SWIDTH 720 0
DWIDTH 16 0
BBX 9 15 0 -7
BITMAP
FF80
FF80
0180
0180
0180
0180
0180
0180
0180
0180
0180
0180
0180
0180
0180
ENDCHAR
STARTCHAR 2514
ENCODING 9492
SWIDTH 720 0
DWIDTH 16 0
BBX 9 14 7 6
BITMAP
C000
C000
C000
C000
C000
C000
C000
C000
C000
C000
C000
C000
FF80
FF80
ENDCHAR
STARTCHAR 2518
ENCODING 9496
SWIDTH 720 0
DWIDTH 16 0
BBX 9 14 0 6
BITMAP
0180
0180
0180
0180
0180
0180
0180
0180
0180
0180
0180
0180
FF80
FF80
ENDCHAR
STARTCHAR 251C
ENCODING 9500
SWIDTH 720 0
DWIDTH 16 0
BBX 9 27 7 -7
BITMAP
C000
C000
C000
C000
C000
C000
C000
C000
C000
C000
C000
C000
FF80
FF80
C000
C000
C000
C000
C000
C000
C000
C000
C000
C000
C000
C000
C000
ENDCHAR
STARTCHAR 2524
ENCODING 9508
SWIDTH 720 0
DWIDTH 16 0
BBX 9 27 0 -7
BITMAP
0180
0180
0180
0180
0180
0180
0180
0180
0180
0180
0180
0180
FF80
FF80
0180
0180
0180
0180
0180
0180
0180
0180
0180
0180
0180
0180
0180
ENDCHAR
STARTCHAR 252C
ENCODING 9516
SWIDTH 720 0
DWIDTH 16 0
BBX 16 15 0 -7
BITMAP
FFFF
FFFF
0180
0180
0180
0180
0180
0180
0180
0180
0180
0180
0180
0180
0180
ENDCHAR
STARTCHAR 2534
ENCODING 9524
SWIDTH 720 0
DWIDTH 16 0
BBX 16 14 0 6
BITMAP
0180
0180
0180
0180
0180
0180
0180
0180
0180
0180
0180
0180
FFFF
FFFF
ENDCHAR
STARTCHAR 253C
ENCODING 9532
SWIDTH 720 0
DWIDTH 16 0
BBX 16 27 0 -7
BITMAP
0180
0180
0180
0180
0180
0180
0180
0180
0180
0180
0180
0180
FFFF
FFFF
0180
0180
0180
0180
0180
0180
0180
0180
0180
0180
0180
0180
0180
ENDCHAR
STARTCHAR 2550
ENCODING 9552
SWIDTH 720 0
DWIDTH 16 0
BBX 16 6 0 4
BITMAP
FFFF
FFFF
0000
0000
FFFF
FFFF
ENDCHAR
STARTCHAR 2551
ENCODING 9553
SWIDTH 720 0
DWIDTH 16 0
BBX 6 27 5 -7
BITMAP
CC
CC
CC
CC
CC
CC
CC
CC
CC
CC
CC
CC
CC
CC
CC
CC
CC
CC
CC
CC
CC
CC
CC
CC
CC
CC
CC
ENDCHAR
STARTCHAR 2552
ENCODING 9554
SWIDTH 720 0
DWIDTH 16 0
BBX 9 17 7 -7
BITMAP
FF80
FF80
C000
C000
FF80
FF80
C000
C000
C000
C000
C000
C000
C000
C000
C000
C000
C000
ENDCHAR
STARTCHAR 2553
ENCODING 9555
SWIDTH 720 0
DWIDTH 16 0
BBX 11 15 5 -7
BITMAP
FFE0
FFE0
CC00
CC00
CC00
CC00
CC00
CC00
CC00
CC00
CC00
CC00
CC00
CC00
CC00
ENDCHAR
STARTCHAR 2554
ENCODING 9556
SWIDTH 720 0
DWIDTH 16 0
BBX 11 17 5 -7
BITMAP
FFE0
FFE0
C000
C000
CFE0
CFE0
CC00
CC00
CC00
CC00
CC00
CC00
CC00
CC00
CC00
CC00
CC00
ENDCHAR
STARTCHAR 2555
ENCODING 9557
SWIDTH 720 0
DWIDTH 16 0
BBX 9 17 0 -7
BITMAP
FF80
FF80
0180
0180
FF80
FF80
0180
0180
0180
0180
0180
0180
0180
0180
0180
0180
0180
ENDCHAR
STARTCHAR 2556
ENCODING 9558
SWIDTH 720 0
DWIDTH 16 0
BBX 11 15 0 -7
BITMAP
FFE0
FFE0
0660
0660
0660
0660
0660
0660
0660
0660
0660
0660
0660
0660
0660
ENDCHAR
STARTCHAR 2557
ENCODING 9559
SWIDTH 720 0
DWIDTH 16 0
BBX 11 17 0 -7
BITMAP
FFE0
FFE0
0060
0060
FE60
FE60
0660
0660
0660
0660
0660
0660
0660
0660
0660
0660
0660
ENDCHAR
STARTCHAR 2558
ENCODING 9560
SWIDTH 720 0
DWIDTH 16 0
BBX 9 16 7 4
BITMAP
C000
C000
C000
C000
C000
C000
C000
C000
C000
C000
FF80
FF80
C000
C000
FF80
FF80
ENDCHAR
STARTCHAR 2559
ENCODING 9561
SWIDTH 720 0
DWIDTH 16 0
BBX 11 14 5 6
BITMAP
CC00
CC00
CC00
CC00
CC00
CC00
CC00
CC00
CC00
CC00
CC00
CC00
FFE0
FFE0
ENDCHAR
STARTCHAR 255A
ENCODING 9562
SWIDTH 720 0
DWIDTH 16 0
BBX 11 16 5 4
BITMAP
CC00
CC00
CC00
CC00
CC00
CC00
CC00
CC00
CC00
CC00
CFE0
CFE0
C000
C000
FFE0
FFE0
ENDCHAR
STARTCHAR 255B
ENCODING 9563
SWIDTH 720 0
DWIDTH 16 0
BBX 9 16 0 4
BITMAP
0180
0180
0180
0180
0180
0180
0180
0180
0180
0180
FF80
FF80
0180
0180
FF80
FF80
ENDCHAR
STARTCHAR 255C
ENCODING 9564
SWIDTH 720 0
DWIDTH 16 0
BBX 11 14 0 6
BITMAP
0660
0660
0660
0660
0660
0660
0660
0660
0660
0660
0660
0660
FFE0
FFE0
ENDCHAR
STARTCHAR 255D
ENCODING 9565
SWIDTH 720 0
DWIDTH 16 0
BBX 11 16 0 4
BITMAP
0660
0660
0660
0660
0660
0660
0660
0660
0660
0660
FE60
FE60
0060
0060
FFE0
FFE0
ENDCHAR
STARTCHAR 255E
ENCODING 9566
SWIDTH 720 0
DWIDTH 16 0
BBX 9 27 7 -7
BITMAP
C000
C000
C000
C000
C000
C000
C000
C000
C000
C000
FF80
FF80
C000
C000
FF80
FF80
C000
C000
C000
C000
C000
C000
C000
C000
C000
C000
C000
ENDCHAR
STARTCHAR 255F
ENCODING 9567
SWIDTH 720 0
DWIDTH 16 0
BBX 11 27 5 -7
BITMAP
CC00
CC00
CC00
CC00
CC00
CC00
CC00
CC00
CC00
CC00
CC00
CC00
CFE0
CFE0
CC00
CC00
CC00
CC00
CC00
CC00
CC00
CC00
CC00
CC00
CC00
CC00
CC00
ENDCHAR
STARTCHAR 2560
ENCODING 9568
SWIDTH 720 0
DWIDTH 16 0
BBX 11 27 5 -7
BITMAP
CC00
CC00
CC00
CC00
CC00
CC00
CC00
CC00
CC00
CC00
CFE0
CFE0
C000
C000
CFE0
CFE0
CC00
CC00
CC00
CC00
CC00
CC00
CC00
CC00
CC00
CC00
CC00
ENDCHAR
STARTCHAR 2561
ENCODING 9569
SWIDTH 720 0
DWIDTH 16 0
BBX 9 27 0 -7
BITMAP
0180
0180
0180
0180
0180
0180
0180
0180
0180
0180
FF80
FF80
0180
0180
FF80
FF80
0180
0180
0180
0180
0180
0180
0180
0180
0180
0180
0180
ENDCHAR
STARTCHAR 2562
ENCODING 9570
SWIDTH 720 0
DWIDTH 16 0
BBX 11 27 0 -7
BITMAP
0660
0660
0660
0660
0660
0660
0660
0660
0660
0660
0660
0660
FE60
FE60
0660
0660
0660
0660
0660
0660
0660
0660
0660
0660
0660
0660
0660
ENDCHAR
STARTCHAR 2563
ENCODING 9571
SWIDTH 720 0
DWIDTH 16 0
BBX 11 27 0 -7
BITMAP
0660
0660
0660
0660
0660
0660
0660
0660
0660
0660
FE60
FE60
0060
0060
FE60
FE60
0660
0660
0660
0660
0660
0660
0660
0660
0660
0660
0660
ENDCHAR
STARTCHAR 2564
ENCODING 9572
SWIDTH 720 0
DWIDTH 16 0
BBX 16 17 0 -7
BITMAP
FFFF
FFFF
0000
0000
FFFF
FFFF
0180
0180
0180
0180
0180
0180
0180
0180
0180
0180
0180
ENDCHAR
STARTCHAR 2565
ENCODING 9573
SWIDTH 720 0
DWIDTH 16 0
BBX 16 15 0 -7
BITMAP
FFFF
FFFF
0660
0660
0660
0660
0660
0660
0660
0660
0660
0660
0660
0660
0660
ENDCHAR
STARTCHAR 2566
ENCODING 9574
SWIDTH 720 0
DWIDTH 16 0
BBX 16 17 0 -7
BITMAP
FFFF
FFFF
0000
0000
FE7F
FE7F
0660
0660
0660
0660
0660
0660
0660
0660
0660
0660
0660
ENDCHAR
STARTCHAR 2567
ENCODING 9575
SWIDTH 720 0
DWIDTH 16 0
BBX 16 16 0 4
BITMAP
0180
0180
0180
0180
0180
0180
0180
0180
0180
0180
FFFF
FFFF
0000
0000
FFFF
FFFF
ENDCHAR
STARTCHAR 2568
ENCODING 9576
SWIDTH 720 0
DWIDTH 16 0
BBX 16 14 0 6
BITMAP
0660
0660
0660
0660
0660
0660
0660
0660
0660
0660
0660
0660
FFFF
FFFF
ENDCHAR
STARTCHAR 2569
ENCODING 9577
SWIDTH 720 0
DWIDTH 16 0
BBX 16 16 0 4
BITMAP
0660
0660
0660
0660
0660
0660
0660
0660
0660
0660
FE7F
FE7F
0000
0000
FFFF
FFFF
ENDCHAR
STARTCHAR 256A
ENCODING 9578
SWIDTH 720 0
DWIDTH 16 0
BBX 16 27 0 -7
BITMAP
0180
0180
0180
0180
0180
0180
0180
0180
0180
0180
FFFF
FFFF
0180
0180
FFFF
FFFF
0180
0180
0180
0180
0180
0180
0180
0180
0180
0180
0180
ENDCHAR
STARTCHAR 256B
ENCODING 9579
SWIDTH 720 0
DWIDTH 16 0
BBX 16 27 0 -7
BITMAP
0660
0660
0660
0660
0660
0660
0660
0660
0660
0660
0660
0660
FFFF
FFFF
0660
0660
0660
0660
0660
0660
0660
0660
0660
0660
0660
0660
0660
ENDCHAR
STARTCHAR 256C
ENCODING 9580
SWIDTH 720 0
DWIDTH 16 0
BBX 16 27 0 -7
BITMAP
0660
0660
0660
0660
0660
0660
0660
0660
0660
0660
FE7F
FE7F
0000
0000
FE7F
FE7F
0660
0660
0660
0660
0660
0660
0660
0660
0660
0660
0660
ENDCHAR
STARTCHAR 2580
ENCODING 9600
SWIDTH 720 0
DWIDTH 16 0
BBX 16 13 0 7
BITMAP
FFFF
FFFF
FFFF
FFFF
FFFF
FFFF
FFFF
FFFF
FFFF
FFFF
FFFF
FFFF
FFFF
ENDCHAR
STARTCHAR 2584
ENCODING 9604
SWIDTH 720 0
DWIDTH 16 0
BBX 16 14 0 -7
BITMAP
FFFF
FFFF
FFFF
FFFF
FFFF
FFFF
FFFF
FFFF
FFFF
FFFF
FFFF
FFFF
FFFF
FFFF
ENDCHAR
STARTCHAR 2588
ENCODING 9608
SWIDTH 720 0
DWIDTH 16 0
BBX 16 27 0 -7
BITMAP
FFFF
FFFF
FFFF
FFFF
FFFF
FFFF
FFFF
FFFF
FFFF
FFFF
FFFF
FFFF
FFFF
FFFF
FFFF
FFFF
FFFF
FFFF
FFFF
FFFF
FFFF
FFFF
FFFF
FFFF
FFFF
FFFF
FFFF
ENDCHAR
STARTCHAR 258C
ENCODING 9612
SWIDTH 720 0
DWIDTH 16 0
BBX 8 27 0 -7
BITMAP
FF
FF
FF
FF
FF
FF
FF
FF
FF
FF
FF
FF
FF
FF
FF
FF
FF
FF
FF
FF
FF
FF
FF
FF
FF
FF
FF
ENDCHAR
STARTCHAR 2590
ENCODING 9616
SWIDTH 720 0
DWIDTH 16 0
BBX 8 27 8 -7
BITMAP
FF
FF
FF
FF
FF
FF
FF
FF
FF
FF
FF
FF
FF
FF
FF
FF
FF
FF
FF
FF
FF
FF
FF
FF
FF
FF
FF
ENDCHAR
STARTCHAR 2591
ENCODING 9617
SWIDTH 720 0
DWIDTH 16 0
BBX 15 25 1 -5
BITMAP
8610
0000
10C2
10C2
0000
8610
8610
0000
10C2
0000
0000
8610
0000
10C2
10C2
0000
8610
0000
0000
10C2
0000
8610
8610
0000
10C2
ENDCHAR
STARTCHAR 2592
ENCODING 9618
SWIDTH 720 0
DWIDTH 16 0
BBX 16 25 0 -5
BITMAP
4969
0000
B696
B696
0000
4969
4969
0000
B696
0000
0000
4969
0000
B696
B696
0000
4969
0000
0000
B696
0000
4969
4969
0000
B696
ENDCHAR
STARTCHAR 2593
ENCODING 9619
SWIDTH 720 0
DWIDTH 16 0
BBX 16 27 0 -7
BITMAP
696D
FFFF
9696
9696
FFFF
696D
696D
FFFF
9696
FFFF
FFFF
696D
FFFF
9696
9696
FFFF
696D
FFFF
FFFF
9696
FFFF
696D
696D
FFFF
9696
FFFF
FFFF
ENDCHAR
STARTCHAR 25A0
ENCODING 9632
SWIDTH 585 0
DWIDTH 13 0
BBX 10 10 2 0
BITMAP
FFC0
FFC0
FFC0
FFC0
FFC0
FFC0
FFC0
FFC0
FFC0
FFC0
ENDCHAR
STARTCHAR 25A1
ENCODING 9633
SWIDTH 585 0
DWIDTH 13 0
BBX 10 10 2 0
BITMAP
FFC0
8040
8040
8040
8040
8040
8040
8040
8040
FFC0
ENDCHAR
STARTCHAR 25AA
ENCODING 9642
SWIDTH 360 0
DWIDTH 8 0
BBX 5 5 1 5
BITMAP
F8
F8
F8
F8
F8
ENDCHAR
STARTCHAR 25AB
ENCODING 9643
SWIDTH 360 0
DWIDTH 8 0
BBX 5 5 1 5
BITMAP
F8
88
88
88
F8
ENDCHAR
STARTCHAR 25AC
ENCODING 9644
SWIDTH 990 0
DWIDTH 22 0
BBX 22 5 0 3
BITMAP
FFFFFC
FFFFFC
FFFFFC
FFFFFC
FFFFFC
ENDCHAR
STARTCHAR 25B2
ENCODING 9650
SWIDTH 990 0
DWIDTH 22 0
BBX 14 15 4 0
BITMAP
0200
0300
0300
0780
0780
0FC0
0FC0
1FE0
1FE0
3FF0
3FF0
7FF8
7FF8
FFFC
FFFC
ENDCHAR
STARTCHAR 25BA
ENCODING 9658
SWIDTH 990 0
DWIDTH 22 0
BBX 16 15 3 0
BITMAP
C000
F000
FC00
FF00
FFC0
FFF0
FFFC
FFFF
FFFC
FFF0
FFC0
FF00
FC00
F000
C000
ENDCHAR
STARTCHAR 25BC
ENCODING 9660
SWIDTH 990 0
DWIDTH 22 0
BBX 14 15 4 0
BITMAP
FFFC
FFFC
7FF8
7FF8
3FF0
3FF0
1FE0
1FE0
0FC0
0FC0
0780
0780
0300
0300
0200
ENDCHAR
STARTCHAR 25C4
ENCODING 9668
SWIDTH 990 0
DWIDTH 22 0
BBX 16 15 3 0
BITMAP
0003
000F
003F
00FF
03FF
0FFF
3FFF
FFFF
3FFF
0FFF
03FF
00FF
003F
000F
0003
ENDCHAR
STARTCHAR 25CA
ENCODING 9674
SWIDTH 495 0
DWIDTH 11 0
BBX 10 15 1 0
BITMAP
0C00
1A00
1200
3100
2180
4080
4040
C040
40C0
2080
2100
1100
1200
0E00
0C00
ENDCHAR
STARTCHAR 25CB
ENCODING 9675
SWIDTH 585 0
DWIDTH 13 0
BBX 9 10 2 1
BITMAP
1E00
6100
8080
8080
8080
8080
8080
4080
2300
1C00
ENDCHAR
STARTCHAR 25CF
ENCODING 9679
SWIDTH 585 0
DWIDTH 13 0
BBX 9 10 2 1
BITMAP
1E00
7F00
FF80
FF80
FF80
FF80
FF80
7F80
3F00
0800
ENDCHAR
STARTCHAR 25D8
ENCODING 9688
SWIDTH 585 0
DWIDTH 13 0
BBX 11 11 1 0
BITMAP
FFE0
FFE0
FFE0
FFE0
F0E0
F0E0
F0E0
F1E0
FFE0
FFE0
FFE0
ENDCHAR
STARTCHAR 25D9
ENCODING 9689
SWIDTH 585 0
DWIDTH 13 0
BBX 13 13 0 0
BITMAP
FFF8
FFF8
F878
EFB8
DFD8
DFD8
DFF8
DFF8
DFD8
EFD8
F738
FDF8
FFF8
ENDCHAR
STARTCHAR 25E6
ENCODING 9702
SWIDTH 360 0
DWIDTH 8 0
BBX 6 5 1 5
BITMAP
78
88
84
84
78
ENDCHAR
STARTCHAR 263A
ENCODING 9786
SWIDTH 1035 0
DWIDTH 23 0
BBX 14 14 4 -1
BITMAP
0100
0EE0
3010
2008
4004
4864
8864
8004
4004
4804
444C
2388
1030
0FE0
ENDCHAR
STARTCHAR 263B
ENCODING 9787
SWIDTH 1035 0
DWIDTH 23 0
BBX 14 14 5 -1
BITMAP
0200
1FC0
3FF0
7FF0
FFF8
E7B8
E7BC
FFFC
FFFC
FFB8
F778
78F0
3FE0
1FC0
ENDCHAR
STARTCHAR 263C
ENCODING 9788
SWIDTH 900 0
DWIDTH 20 0
BBX 20 20 0 -2
BITMAP
002000
002000
002000
102040
08F880
070500
040200
080100
080100
080080
F800F0
080100
080100
040100
040200
070D00
08F080
102040
002000
002000
ENDCHAR
STARTCHAR 2640
ENCODING 9792
SWIDTH 765 0
DWIDTH 17 0
BBX 11 21 3 -5
BITMAP
3F00
40C0
8040
8020
8020
8020
8020
8020
8040
4080
3F00
0400
0400
0400
0400
FFE0
0400
0400
0400
0400
0400
ENDCHAR
STARTCHAR 2642
ENCODING 9794
SWIDTH 765 0
DWIDTH 17 0
BBX 14 20 1 -2
BITMAP
0038
00D8
0328
0024
0044
0044
0084
0080
0480
1B80
6040
4020
8020
8010
8010
8020
8020
4040
2040
1F80
ENDCHAR
STARTCHAR 2660
ENCODING 9824
SWIDTH 540 0
DWIDTH 12 0
BBX 10 12 1 1
BITMAP
0C00
0C00
1E00
7F00
FF80
FFC0
FFC0
FFC0
7B80
0800
0C00
3F00
ENDCHAR
STARTCHAR 2663
ENCODING 9827
SWIDTH 675 0
DWIDTH 15 0
BBX 13 13 1 0
BITMAP
0F00
1F80
1F80
1F80
7FF0
FFF8
FFF8
FFF8
FDF8
72F0
0600
0700
3FC0
ENDCHAR
STARTCHAR 2665
ENCODING 9829
SWIDTH 585 0
DWIDTH 13 0
BBX 11 13 1 0
BITMAP
F9E0
FBE0
FFE0
FFE0
FFE0
7FC0
3FC0
3F80
1F00
0E00
0E00
0400
0400
ENDCHAR
STARTCHAR 2666
ENCODING 9830
SWIDTH 495 0
DWIDTH 11 0
BBX 10 13 1 0
BITMAP
0800
1C00
1E00
3E00
7F00
FF80
FFC0
7F80
7F00
3E00
1C00
0C00
0800
ENDCHAR
STARTCHAR 266A
ENCODING 9834
SWIDTH 495 0
DWIDTH 11 0
BBX 11 15 0 0
BITMAP
0780
07C0
07C0
0460
0420
0420
0400
0400
0400
0400
3C00
7C00
FC00
FC00
7800
ENDCHAR
STARTCHAR 266B
ENCODING 9835
SWIDTH 765 0
DWIDTH 17 0
BBX 13 17 1 -1
BITMAP
0038
01F8
07F8
07C8
0408
0408
0408
0408
0408
0408
0478
04F8
35F8
FCF8
FCF0
FC00
F800
ENDCHAR
STARTCHAR E801
ENCODING 59393
SWIDTH 225 0
DWIDTH 5 0
BBX 4 15 2 0
BITMAP
40
C0
00
30
30
30
70
60
60
60
60
E0
C0
C0
C0
ENDCHAR
STARTCHAR E802
ENCODING 59394
SWIDTH 495 0
DWIDTH 11 0
BBX 8 16 3 -4
BITMAP
78
FE
07
03
03
03
03
03
06
C6
06
06
C6
0C
0C
0C
ENDCHAR
STARTCHAR E803
ENCODING 59395
SWIDTH 495 0
DWIDTH 11 0
BBX 9 16 2 -4
BITMAP
3C00
7F00
0380
0180
0180
0180
0180
0180
0300
F300
6300
6300
0300
0600
0600
0600
ENDCHAR
STARTCHAR E804
ENCODING 59396
SWIDTH 450 0
DWIDTH 10 0
BBX 11 16 1 0
BITMAP
1800
5800
D800
3000
3FE0
3FC0
00C0
00C0
00C0
0180
0300
0700
0600
0C00
0C00
0C00
ENDCHAR
STARTCHAR E805
ENCODING 59397
SWIDTH 450 0
DWIDTH 10 0
BBX 11 16 1 0
BITMAP
1800
5800
D800
3000
3FE0
3FC0
00C0
00C0
18C0
1980
0300
0700
0600
0C00
0C00
0C00
ENDCHAR
STARTCHAR F001
ENCODING 61441
SWIDTH 495 0
DWIDTH 11 0
BBX 11 16 1 0
BITMAP
0F60
1F60
1800
1800
7EC0
7EC0
30C0
30C0
3180
3180
6180
6180
6180
6300
4300
C300
ENDCHAR
STARTCHAR F002
ENCODING 61442
SWIDTH 495 0
DWIDTH 11 0
BBX 11 16 1 0
BITMAP
0F60
1F60
1860
18C0
7EC0
7EC0
30C0
30C0
3180
3180
6180
6180
6180
6300
4300
C300
ENDCHAR
STARTCHAR F004
ENCODING 61444
SWIDTH 315 0
DWIDTH 7 0
BBX 4 5 0 -6
BITMAP
30
60
20
60
80
ENDCHAR
STARTCHAR F005
ENCODING 61445
SWIDTH 315 0
DWIDTH 7 0
BBX 5 4 0 -5
BITMAP
78
18
F8
E0
ENDCHAR
STARTCHAR F006
ENCODING 61446
SWIDTH 0 0
DWIDTH 0 0
BBX 4 2 -2 18
BITMAP
70
C0
ENDCHAR
STARTCHAR F007
ENCODING 61447
SWIDTH 0 0
DWIDTH 0 0
BBX 4 2 -6 18
BITMAP
70
C0
ENDCHAR
STARTCHAR F008
ENCODING 61448
SWIDTH 0 0
DWIDTH 0 0
BBX 3 3 -1 13
BITMAP
60
E0
C0
ENDCHAR
STARTCHAR F009
ENCODING 61449
SWIDTH 0 0
DWIDTH 0 0
BBX 3 3 -4 17
BITMAP
60
C0
80
ENDCHAR
STARTCHAR F00A
ENCODING 61450
SWIDTH 0 0
DWIDTH 0 0
BBX 1 23 -1 -4
BITMAP
80
80
80
80
80
80
80
80
80
00
00
00
00
00
80
80
80
80
80
80
80
80
80
ENDCHAR
STARTCHAR F00B
ENCODING 61451
SWIDTH 0 0
DWIDTH 0 0
BBX 6 25 -3 -5
BITMAP
FC
20
20
20
20
20
20
20
20
20
20
20
20
20
20
20
20
20
20
20
20
20
20
20
FC
ENDCHAR
STARTCHAR F00C
ENCODING 61452
SWIDTH 0 0
DWIDTH 0 0
BBX 2 23 0 -4
BITMAP
C0
C0
80
80
80
80
80
80
80
80
80
80
80
80
80
80
80
80
80
80
80
80
80
ENDCHAR
STARTCHAR F00D
ENCODING 61453
SWIDTH 0 0
DWIDTH 0 0
BBX 2 23 -2 -4
BITMAP
C0
C0
40
40
40
40
40
40
40
40
40
40
40
40
40
40
40
40
40
40
40
40
40
ENDCHAR
STARTCHAR F00E
ENCODING 61454
SWIDTH 0 0
DWIDTH 0 0
BBX 3 24 0 -4
BITMAP
80
80
80
80
80
80
80
80
80
80
80
80
80
80
80
80
80
80
80
80
80
80
80
E0
ENDCHAR
STARTCHAR F00F
ENCODING 61455
SWIDTH 0 0
DWIDTH 0 0
BBX 3 3 -6 13
BITMAP
C0
60
20
ENDCHAR
STARTCHAR F010
ENCODING 61456
SWIDTH 0 0
DWIDTH 0 0
BBX 4 2 -2 18
BITMAP
F0
70
ENDCHAR
STARTCHAR F011
ENCODING 61457
SWIDTH 0 0
DWIDTH 0 0
BBX 4 2 -7 18
BITMAP
F0
70
ENDCHAR
STARTCHAR F012
ENCODING 61458
SWIDTH 0 0
DWIDTH 0 0
BBX 4 4 -2 13
BITMAP
E0
30
30
40
ENDCHAR
STARTCHAR F013
ENCODING 61459
SWIDTH 0 0
DWIDTH 0 0
BBX 4 3 -5 17
BITMAP
E0
30
60
ENDCHAR
STARTCHAR F014
ENCODING 61460
SWIDTH 0 0
DWIDTH 0 0
BBX 4 4 -6 13
BITMAP
E0
30
30
40
ENDCHAR
STARTCHAR F015
ENCODING 61461
SWIDTH 0 0
DWIDTH 0 0
BBX 7 2 -8 18
BITMAP
62
9C
ENDCHAR
STARTCHAR F016
ENCODING 61462
SWIDTH 0 0
DWIDTH 0 0
BBX 8 3 -9 17
BITMAP
73
7E
C4
ENDCHAR
STARTCHAR F017
ENCODING 61463
SWIDTH 0 0
DWIDTH 0 0
BBX 7 3 -11 17
BITMAP
72
FE
84
ENDCHAR
STARTCHAR F018
ENCODING 61464
SWIDTH 0 0
DWIDTH 0 0
BBX 7 3 -11 17
BITMAP
72
FE
84
ENDCHAR
STARTCHAR F019
ENCODING 61465
SWIDTH 0 0
DWIDTH 0 0
BBX 7 3 -8 13
BITMAP
62
FE
8C
ENDCHAR
STARTCHAR F01A
ENCODING 61466
SWIDTH 0 0
DWIDTH 0 0
BBX 7 3 -9 13
BITMAP
66
FE
8C
ENDCHAR
STARTCHAR F01B
ENCODING 61467
SWIDTH 0 0
DWIDTH 0 0
BBX 8 3 -10 13
BITMAP
23
7E
CC
ENDCHAR
STARTCHAR F01C
ENCODING 61468
SWIDTH 0 0
DWIDTH 0 0
BBX 8 3 -4 17
BITMAP
73
7E
C4
ENDCHAR
STARTCHAR F01D
ENCODING 61469
SWIDTH 0 0
DWIDTH 0 0
BBX 7 3 -4 13
BITMAP
62
FE
8C
ENDCHAR
STARTCHAR F01E
ENCODING 61470
SWIDTH 0 0
DWIDTH 0 0
BBX 3 3 -10 -4
BITMAP
60
60
E0
ENDCHAR
STARTCHAR F01F
ENCODING 61471
SWIDTH 0 0
DWIDTH 0 0
BBX 2 3 -10 -4
BITMAP
C0
C0
C0
ENDCHAR
STARTCHAR F020
ENCODING 61472
SWIDTH 0 0
DWIDTH 0 0
BBX 3 3 -11 -4
BITMAP
E0
C0
C0
ENDCHAR
STARTCHAR F021
ENCODING 61473
SWIDTH 0 0
DWIDTH 0 0
BBX 2 3 -10 -4
BITMAP
C0
C0
C0
ENDCHAR
STARTCHAR F022
ENCODING 61474
SWIDTH 0 0
DWIDTH 0 0
BBX 2 3 -11 -4
BITMAP
C0
C0
C0
ENDCHAR
STARTCHAR F023
ENCODING 61475
SWIDTH 0 0
DWIDTH 0 0
BBX 2 3 -9 -4
BITMAP
C0
C0
C0
ENDCHAR
STARTCHAR F024
ENCODING 61476
SWIDTH 0 0
DWIDTH 0 0
BBX 2 3 -8 -4
BITMAP
C0
C0
C0
ENDCHAR
STARTCHAR F025
ENCODING 61477
SWIDTH 0 0
DWIDTH 0 0
BBX 3 3 -9 -4
BITMAP
60
60
E0
ENDCHAR
STARTCHAR F026
ENCODING 61478
SWIDTH 0 0
DWIDTH 0 0
BBX 2 3 -9 -4
BITMAP
C0
C0
C0
ENDCHAR
STARTCHAR F027
ENCODING 61479
SWIDTH 0 0
DWIDTH 0 0
BBX 3 3 -10 -4
BITMAP
60
60
E0
ENDCHAR
STARTCHAR F028
ENCODING 61480
SWIDTH 0 0
DWIDTH 0 0
BBX 2 3 -11 -4
BITMAP
C0
C0
C0
ENDCHAR
STARTCHAR F029
ENCODING 61481
SWIDTH 0 0
DWIDTH 0 0
BBX 3 3 -6 -4
BITMAP
60
60
E0
ENDCHAR
STARTCHAR F02A
ENCODING 61482
SWIDTH 0 0
DWIDTH 0 0
BBX 3 3 -5 -4
BITMAP
E0
C0
C0
ENDCHAR
STARTCHAR F02B
ENCODING 61483
SWIDTH 0 0
DWIDTH 0 0
BBX 2 3 -9 -4
BITMAP
C0
C0
C0
ENDCHAR
STARTCHAR F02C
ENCODING 61484
SWIDTH 0 0
DWIDTH 0 0
BBX 3 3 -5 -4
BITMAP
60
E0
C0
ENDCHAR
STARTCHAR F02D
ENCODING 61485
SWIDTH 0 0
DWIDTH 0 0
BBX 7 2 -8 18
BITMAP
72
8C
ENDCHAR
STARTCHAR F02E
ENCODING 61486
SWIDTH 0 0
DWIDTH 0 0
BBX 8 3 -8 17
BITMAP
73
7E
C4
ENDCHAR
STARTCHAR F02F
ENCODING 61487
SWIDTH 0 0
DWIDTH 0 0
BBX 7 2 -10 18
BITMAP
72
8C
ENDCHAR
STARTCHAR F030
ENCODING 61488
SWIDTH 0 0
DWIDTH 0 0
BBX 7 3 -10 17
BITMAP
72
FE
84
ENDCHAR
STARTCHAR F031
ENCODING 61489
SWIDTH 225 0
DWIDTH 5 0
BBX 4 12 1 0
BITMAP
30
30
30
60
60
60
60
60
C0
C0
C0
C0
ENDCHAR
STARTCHAR FB01
ENCODING 64257
SWIDTH 495 0
DWIDTH 11 0
BBX 11 16 1 0
BITMAP
0F60
1F60
1800
1800
7EC0
7EC0
30C0
30C0
3180
3180
6180
6180
6180
6300
4300
C300
ENDCHAR
STARTCHAR FB02
ENCODING 64258
SWIDTH 495 0
DWIDTH 11 0
BBX 11 16 1 0
BITMAP
0F60
1F60
1860
18C0
7EC0
7EC0
30C0
30C0
3180
3180
6180
6180
6180
6300
4300
C300
ENDCHAR
STARTCHAR FB1D
ENCODING 64285
SWIDTH 225 0
DWIDTH 5 0
BBX 3 10 3 2
BITMAP
60
60
60
E0
C0
C0
00
00
80
80
ENDCHAR
STARTCHAR FB1E
ENCODING 64286
SWIDTH 0 0
DWIDTH 0 0
BBX 6 2 0 14
BITMAP
C4
78
ENDCHAR
STARTCHAR FB1F
ENCODING 64287
SWIDTH 495 0
DWIDTH 11 0
BBX 10 9 2 3
BITMAP
30C0
31C0
3180
7180
6180
6180
0000
0000
FF00
ENDCHAR
STARTCHAR FB20
ENCODING 64288
SWIDTH 540 0
DWIDTH 12 0
BBX 12 12 1 0
BITMAP
1830
1830
1860
1860
1860
1860
18C0
18C0
1980
1B80
FF00
FC00
ENDCHAR
STARTCHAR FB2A
ENCODING 64298
SWIDTH 675 0
DWIDTH 15 0
BBX 14 15 3 0
BITMAP
0004
000C
0000
630C
C318
C318
C618
C638
CE30
FC30
F060
C060
C0C0
F380
7F00
ENDCHAR
STARTCHAR FB2B
ENCODING 64299
SWIDTH 675 0
DWIDTH 15 0
BBX 14 15 3 0
BITMAP
2000
6000
0000
630C
C318
C318
C618
C638
CE30
FC30
F060
C060
C0C0
F380
7F00
ENDCHAR
STARTCHAR FB2C
ENCODING 64300
SWIDTH 675 0
DWIDTH 15 0
BBX 14 15 3 0
BITMAP
0004
000C
0000
630C
C318
C318
C618
C638
CE30
FDB0
F160
C060
C0C0
F380
7F00
ENDCHAR
STARTCHAR FB2D
ENCODING 64301
SWIDTH 675 0
DWIDTH 15 0
BBX 14 15 3 0
BITMAP
2000
6000
0000
630C
C318
C318
C618
C638
CE30
FDB0
F160
C060
C0C0
F380
7F00
ENDCHAR
STARTCHAR FB2E
ENCODING 64302
SWIDTH 585 0
DWIDTH 13 0
BBX 13 15 1 -3
BITMAP
1838
1C30
0C30
0E70
0E60
1FE0
33C0
3380
6180
61C0
60C0
C0E0
0000
0000
1E00
ENDCHAR
STARTCHAR FB2F
ENCODING 64303
SWIDTH 585 0
DWIDTH 13 0
BBX 13 17 1 -5
BITMAP
1838
1C30
0C30
0E70
0E60
1FE0
33C0
3380
6180
61C0
60C0
C0E0
0000
0000
1E00
0800
0800
ENDCHAR
STARTCHAR FB30
ENCODING 64304
SWIDTH 585 0
DWIDTH 13 0
BBX 13 12 1 0
BITMAP
1838
1C30
0C30
0E70
0E60
1FE0
3380
3380
6180
65C0
6CC0
C0E0
ENDCHAR
STARTCHAR FB31
ENCODING 64305
SWIDTH 540 0
DWIDTH 12 0
BBX 11 12 1 0
BITMAP
1E00
3F80
01C0
00C0
00C0
18C0
18C0
00C0
0180
0180
FFE0
FFE0
ENDCHAR
STARTCHAR FB32
ENCODING 64306
SWIDTH 405 0
DWIDTH 9 0
BBX 8 12 1 0
BITMAP
1C
1F
07
03
1B
16
06
06
3E
76
E6
C6
ENDCHAR
STARTCHAR FB33
ENCODING 64307
SWIDTH 495 0
DWIDTH 11 0
BBX 10 12 3 0
BITMAP
FFC0
FFC0
0300
0300
0600
3600
2600
0600
0600
0C00
0C00
0C00
ENDCHAR
STARTCHAR FB34
ENCODING 64308
SWIDTH 585 0
DWIDTH 13 0
BBX 11 12 2 0
BITMAP
1F00
3FC0
00E0
0060
0060
0060
6660
6060
E0E0
C0C0
C0C0
C0C0
ENDCHAR
STARTCHAR FB35
ENCODING 64309
SWIDTH 270 0
DWIDTH 6 0
BBX 6 12 1 0
BITMAP
0C
0C
0C
18
18
D8
58
18
30
30
30
30
ENDCHAR
STARTCHAR FB36
ENCODING 64310
SWIDTH 405 0
DWIDTH 9 0
BBX 10 12 1 0
BITMAP
1FC0
1FC0
0300
0600
4C00
CC00
0C00
0C00
1800
1800
1800
1800
ENDCHAR
STARTCHAR FB38
ENCODING 64312
SWIDTH 585 0
DWIDTH 13 0
BBX 12 12 2 0
BITMAP
30C0
33E0
3270
6070
6060
6660
6460
6060
E0C0
60C0
7380
3F00
ENDCHAR
STARTCHAR FB39
ENCODING 64313
SWIDTH 270 0
DWIDTH 6 0
BBX 5 6 2 6
BITMAP
18
18
18
B0
B0
30
ENDCHAR
STARTCHAR FB3A
ENCODING 64314
SWIDTH 495 0
DWIDTH 11 0
BBX 8 16 3 -4
BITMAP
78
FE
07
03
03
03
63
03
06
06
06
06
06
0C
0C
0C
ENDCHAR
STARTCHAR FB3B
ENCODING 64315
SWIDTH 450 0
DWIDTH 10 0
BBX 10 12 1 0
BITMAP
1C00
3F00
0380
01C0
01C0
01C0
1980
0180
0380
0700
FE00
F800
ENDCHAR
STARTCHAR FB3C
ENCODING 64316
SWIDTH 450 0
DWIDTH 10 0
BBX 9 16 3 0
BITMAP
6000
6000
6000
C000
FF80
FF00
0300
0300
2300
2600
0C00
1C00
1800
3000
3000
3000
ENDCHAR
STARTCHAR FB3E
ENCODING 64318
SWIDTH 585 0
DWIDTH 13 0
BBX 12 12 1 0
BITMAP
30C0
33F0
1E30
1C30
1C30
1830
1B30
3030
3070
6060
67E0
C7E0
ENDCHAR
STARTCHAR FB40
ENCODING 64320
SWIDTH 360 0
DWIDTH 8 0
BBX 7 12 1 0
BITMAP
18
3E
06
06
06
26
6C
0C
0C
0C
FC
F8
ENDCHAR
STARTCHAR FB41
ENCODING 64321
SWIDTH 585 0
DWIDTH 13 0
BBX 11 12 2 0
BITMAP
0780
1FC0
38E0
7060
6060
E460
C460
C0E0
C0C0
E1C0
7380
7E00
ENDCHAR
STARTCHAR FB43
ENCODING 64323
SWIDTH 585 0
DWIDTH 13 0
BBX 10 16 3 -4
BITMAP
1E00
FF80
C380
C1C0
C1C0
C180
CD80
E980
0180
0380
0300
0300
0300
0300
0600
0600
ENDCHAR
STARTCHAR FB44
ENCODING 64324
SWIDTH 540 0
DWIDTH 12 0
BBX 11 12 2 0
BITMAP
1E00
3F80
61C0
60C0
60E0
62E0
76C0
00C0
01C0
0380
FF00
FC00
ENDCHAR
STARTCHAR FB46
ENCODING 64326
SWIDTH 495 0
DWIDTH 11 0
BBX 11 12 1 0
BITMAP
3060
30E0
38C0
18C0
1DC0
0F80
6E00
6600
0600
0700
FF00
FF00
ENDCHAR
STARTCHAR FB47
ENCODING 64327
SWIDTH 540 0
DWIDTH 12 0
BBX 12 16 1 -4
BITMAP
1FF0
1FF0
0030
0030
0030
0660
36C0
3180
3380
6300
6300
6300
6000
C000
C000
C000
ENDCHAR
STARTCHAR FB48
ENCODING 64328
SWIDTH 495 0
DWIDTH 11 0
BBX 8 12 3 0
BITMAP
78
FE
07
03
03
03
63
03
06
06
06
06
ENDCHAR
STARTCHAR FB49
ENCODING 64329
SWIDTH 675 0
DWIDTH 15 0
BBX 14 12 3 0
BITMAP
630C
C318
C318
C618
C638
CE30
FDB0
F160
C060
C0C0
F380
7F00
ENDCHAR
STARTCHAR FB4A
ENCODING 64330
SWIDTH 630 0
DWIDTH 14 0
BBX 13 12 1 0
BITMAP
0FC0
3FF0
0C38
0C18
0C18
0C18
1D98
1918
1830
1830
F830
F030
ENDCHAR
STARTCHAR FB4B
ENCODING 64331
SWIDTH 225 0
DWIDTH 5 0
BBX 4 15 2 0
BITMAP
10
10
00
30
30
30
70
60
60
60
60
E0
C0
C0
C0
ENDCHAR
STARTCHAR FB4C
ENCODING 64332
SWIDTH 540 0
DWIDTH 12 0
BBX 11 15 1 0
BITMAP
0780
0000
0000
1E00
3F80
01C0
00C0
00C0
00C0
00C0
00C0
0180
0180
FFE0
FFE0
ENDCHAR
STARTCHAR FB4D
ENCODING 64333
SWIDTH 450 0
DWIDTH 10 0
BBX 10 15 1 0
BITMAP
0780
0000
0000
1C00
3F00
0380
0180
01C0
01C0
0180
0180
0380
0700
FE00
F800
ENDCHAR
STARTCHAR FB4E
ENCODING 64334
SWIDTH 540 0
DWIDTH 12 0
BBX 11 15 2 0
BITMAP
0780
0000
0000
1E00
3F80
61C0
60E0
60E0
60E0
78C0
00C0
01C0
0380
FF00
FC00
ENDCHAR
STARTCHAR FB4F
ENCODING 64335
SWIDTH 585 0
DWIDTH 13 0
BBX 12 16 2 0
BITMAP
3000
3000
3000
6000
6030
7870
1860
1C60
1CC0
3FC0
7780
6700
6300
C380
C180
C1C0
ENDCHAR
STARTCHAR FFFC
ENCODING 65532
SWIDTH 990 0
DWIDTH 22 0
BBX 22 16 0 0
BITMAP
F3CF1C
800004
800004
800004
0F3C20
19A620
90A224
B0BE24
B0A624
90A224
11A220
0F3CE0
800004
800004
800004
F3CF1C
ENDCHAR
ENDFONT
